ISO-10303-21;
HEADER;
/* Generated by software containing ST-Developer
 * from STEP Tools, Inc. (www.steptools.com) 
 */
/* OPTION: using custom renumber hook */

FILE_DESCRIPTION(
/* description */ ('STEP AP242 Edition 2',
'CAx-IF Rec.Pracs.---Representation and Presentation of Product Manufa
cturing Information (PMI)---4.0---2014-10-13',
'CAx-IF Rec.Pracs.---3D Tessellated Geometry---0.4---2014-09-14','2;1',
'CAx-IF Rec.Pracs.---User Defined Attributes---1.5---2016-08-15'),
/* implementation_level */ '2;1');

FILE_NAME(
/* name */ 'Neural DSP Quad Cortex - left',
/* time_stamp */ '2026-09-02T19:26:30Z',
/* author */ (''),
/* organization */ (''),
/* preprocessor_version */ 'ST-DEVELOPER v20',
/* originating_system */ 'ONSHAPE BY PTC INC, 1.220',
/* authorisation */ '  ');

FILE_SCHEMA (('AP242_MANAGED_MODEL_BASED_3D_ENGINEERING_MIM_LF { 1 0 10303 442 3 1 4 }'));
ENDSEC;

DATA;
#10=SHAPE_REPRESENTATION_RELATIONSHIP('','',#701,#11);
#11=ADVANCED_BREP_SHAPE_REPRESENTATION('',(#699),#1165);
#12=CONICAL_SURFACE('',#767,0.0036,0.785398163397449);
#13=CONICAL_SURFACE('',#768,0.0036,0.785398163397449);
#14=CIRCLE('',#707,0.00149999999999995);
#15=CIRCLE('',#708,0.00149999999999995);
#16=CIRCLE('',#711,0.0015);
#17=CIRCLE('',#712,0.0015);
#18=CIRCLE('',#715,0.0119999999999996);
#19=CIRCLE('',#716,0.0119999999999996);
#20=CIRCLE('',#721,0.01);
#21=CIRCLE('',#722,0.01);
#22=CIRCLE('',#725,0.01);
#23=CIRCLE('',#726,0.01);
#24=CIRCLE('',#730,0.0119999999999996);
#25=CIRCLE('',#731,0.0119999999999996);
#26=CIRCLE('',#734,0.0015);
#27=CIRCLE('',#735,0.0015);
#28=CIRCLE('',#738,0.0026);
#29=CIRCLE('',#739,0.0026);
#30=CIRCLE('',#741,0.0015);
#31=CIRCLE('',#742,0.0015);
#32=CIRCLE('',#744,0.0026);
#33=CIRCLE('',#745,0.0026);
#34=CIRCLE('',#748,0.0036);
#35=CIRCLE('',#749,0.0036);
#36=CIRCLE('',#751,0.0075);
#37=CIRCLE('',#752,0.0075);
#38=CIRCLE('',#755,0.0075);
#39=CIRCLE('',#758,0.0075);
#40=CIRCLE('',#760,0.0016);
#41=CIRCLE('',#761,0.0016);
#42=CIRCLE('',#764,0.0016);
#43=CIRCLE('',#765,0.0016);
#44=CYLINDRICAL_SURFACE('',#706,0.00149999999999995);
#45=CYLINDRICAL_SURFACE('',#710,0.0015);
#46=CYLINDRICAL_SURFACE('',#714,0.0119999999999996);
#47=CYLINDRICAL_SURFACE('',#720,0.01);
#48=CYLINDRICAL_SURFACE('',#724,0.01);
#49=CYLINDRICAL_SURFACE('',#729,0.0119999999999996);
#50=CYLINDRICAL_SURFACE('',#733,0.0015);
#51=CYLINDRICAL_SURFACE('',#737,0.0026);
#52=CYLINDRICAL_SURFACE('',#740,0.0015);
#53=CYLINDRICAL_SURFACE('',#743,0.0026);
#54=CYLINDRICAL_SURFACE('',#754,0.0075);
#55=CYLINDRICAL_SURFACE('',#757,0.0075);
#56=CYLINDRICAL_SURFACE('',#759,0.0016);
#57=CYLINDRICAL_SURFACE('',#763,0.0016);
#58=ORIENTED_EDGE('',*,*,#246,.F.);
#59=ORIENTED_EDGE('',*,*,#247,.F.);
#60=ORIENTED_EDGE('',*,*,#248,.T.);
#61=ORIENTED_EDGE('',*,*,#249,.T.);
#62=ORIENTED_EDGE('',*,*,#250,.T.);
#63=ORIENTED_EDGE('',*,*,#251,.F.);
#64=ORIENTED_EDGE('',*,*,#252,.F.);
#65=ORIENTED_EDGE('',*,*,#247,.T.);
#66=ORIENTED_EDGE('',*,*,#253,.F.);
#67=ORIENTED_EDGE('',*,*,#254,.F.);
#68=ORIENTED_EDGE('',*,*,#255,.T.);
#69=ORIENTED_EDGE('',*,*,#251,.T.);
#70=ORIENTED_EDGE('',*,*,#256,.T.);
#71=ORIENTED_EDGE('',*,*,#257,.F.);
#72=ORIENTED_EDGE('',*,*,#258,.F.);
#73=ORIENTED_EDGE('',*,*,#254,.T.);
#74=ORIENTED_EDGE('',*,*,#259,.T.);
#75=ORIENTED_EDGE('',*,*,#260,.F.);
#76=ORIENTED_EDGE('',*,*,#261,.F.);
#77=ORIENTED_EDGE('',*,*,#257,.T.);
#78=ORIENTED_EDGE('',*,*,#262,.T.);
#79=ORIENTED_EDGE('',*,*,#263,.F.);
#80=ORIENTED_EDGE('',*,*,#264,.F.);
#81=ORIENTED_EDGE('',*,*,#260,.T.);
#82=ORIENTED_EDGE('',*,*,#265,.T.);
#83=ORIENTED_EDGE('',*,*,#266,.F.);
#84=ORIENTED_EDGE('',*,*,#267,.F.);
#85=ORIENTED_EDGE('',*,*,#263,.T.);
#86=ORIENTED_EDGE('',*,*,#268,.F.);
#87=ORIENTED_EDGE('',*,*,#269,.F.);
#88=ORIENTED_EDGE('',*,*,#270,.T.);
#89=ORIENTED_EDGE('',*,*,#266,.T.);
#90=ORIENTED_EDGE('',*,*,#271,.F.);
#91=ORIENTED_EDGE('',*,*,#272,.F.);
#92=ORIENTED_EDGE('',*,*,#273,.T.);
#93=ORIENTED_EDGE('',*,*,#269,.T.);
#94=ORIENTED_EDGE('',*,*,#274,.F.);
#95=ORIENTED_EDGE('',*,*,#275,.F.);
#96=ORIENTED_EDGE('',*,*,#276,.T.);
#97=ORIENTED_EDGE('',*,*,#277,.T.);
#98=ORIENTED_EDGE('',*,*,#278,.T.);
#99=ORIENTED_EDGE('',*,*,#279,.F.);
#100=ORIENTED_EDGE('',*,*,#280,.T.);
#101=ORIENTED_EDGE('',*,*,#281,.T.);
#102=ORIENTED_EDGE('',*,*,#282,.T.);
#103=ORIENTED_EDGE('',*,*,#283,.F.);
#104=ORIENTED_EDGE('',*,*,#284,.T.);
#105=ORIENTED_EDGE('',*,*,#272,.T.);
#106=ORIENTED_EDGE('',*,*,#283,.T.);
#107=ORIENTED_EDGE('',*,*,#285,.T.);
#108=ORIENTED_EDGE('',*,*,#286,.F.);
#109=ORIENTED_EDGE('',*,*,#287,.F.);
#110=ORIENTED_EDGE('',*,*,#286,.T.);
#111=ORIENTED_EDGE('',*,*,#288,.T.);
#112=ORIENTED_EDGE('',*,*,#289,.F.);
#113=ORIENTED_EDGE('',*,*,#290,.F.);
#114=ORIENTED_EDGE('',*,*,#291,.F.);
#115=ORIENTED_EDGE('',*,*,#292,.F.);
#116=ORIENTED_EDGE('',*,*,#293,.T.);
#117=ORIENTED_EDGE('',*,*,#289,.T.);
#118=ORIENTED_EDGE('',*,*,#292,.T.);
#119=ORIENTED_EDGE('',*,*,#294,.T.);
#120=ORIENTED_EDGE('',*,*,#295,.F.);
#121=ORIENTED_EDGE('',*,*,#296,.F.);
#122=ORIENTED_EDGE('',*,*,#297,.F.);
#123=ORIENTED_EDGE('',*,*,#277,.F.);
#124=ORIENTED_EDGE('',*,*,#298,.T.);
#125=ORIENTED_EDGE('',*,*,#295,.T.);
#126=ORIENTED_EDGE('',*,*,#299,.T.);
#127=ORIENTED_EDGE('',*,*,#300,.F.);
#128=ORIENTED_EDGE('',*,*,#301,.F.);
#129=ORIENTED_EDGE('',*,*,#275,.T.);
#130=ORIENTED_EDGE('',*,*,#302,.F.);
#131=ORIENTED_EDGE('',*,*,#303,.F.);
#132=ORIENTED_EDGE('',*,*,#304,.T.);
#133=ORIENTED_EDGE('',*,*,#300,.T.);
#134=ORIENTED_EDGE('',*,*,#305,.T.);
#135=ORIENTED_EDGE('',*,*,#306,.F.);
#136=ORIENTED_EDGE('',*,*,#307,.F.);
#137=ORIENTED_EDGE('',*,*,#303,.T.);
#138=ORIENTED_EDGE('',*,*,#308,.T.);
#139=ORIENTED_EDGE('',*,*,#309,.F.);
#140=ORIENTED_EDGE('',*,*,#310,.F.);
#141=ORIENTED_EDGE('',*,*,#306,.T.);
#142=ORIENTED_EDGE('',*,*,#311,.T.);
#143=ORIENTED_EDGE('',*,*,#312,.F.);
#144=ORIENTED_EDGE('',*,*,#313,.F.);
#145=ORIENTED_EDGE('',*,*,#309,.T.);
#146=ORIENTED_EDGE('',*,*,#314,.T.);
#147=ORIENTED_EDGE('',*,*,#315,.F.);
#148=ORIENTED_EDGE('',*,*,#316,.T.);
#149=ORIENTED_EDGE('',*,*,#249,.F.);
#150=ORIENTED_EDGE('',*,*,#317,.F.);
#151=ORIENTED_EDGE('',*,*,#312,.T.);
#152=ORIENTED_EDGE('',*,*,#318,.T.);
#153=ORIENTED_EDGE('',*,*,#319,.F.);
#154=ORIENTED_EDGE('',*,*,#248,.F.);
#155=ORIENTED_EDGE('',*,*,#252,.T.);
#156=ORIENTED_EDGE('',*,*,#255,.F.);
#157=ORIENTED_EDGE('',*,*,#258,.T.);
#158=ORIENTED_EDGE('',*,*,#261,.T.);
#159=ORIENTED_EDGE('',*,*,#264,.T.);
#160=ORIENTED_EDGE('',*,*,#267,.T.);
#161=ORIENTED_EDGE('',*,*,#270,.F.);
#162=ORIENTED_EDGE('',*,*,#273,.F.);
#163=ORIENTED_EDGE('',*,*,#284,.F.);
#164=ORIENTED_EDGE('',*,*,#287,.T.);
#165=ORIENTED_EDGE('',*,*,#290,.T.);
#166=ORIENTED_EDGE('',*,*,#293,.F.);
#167=ORIENTED_EDGE('',*,*,#296,.T.);
#168=ORIENTED_EDGE('',*,*,#298,.F.);
#169=ORIENTED_EDGE('',*,*,#276,.F.);
#170=ORIENTED_EDGE('',*,*,#301,.T.);
#171=ORIENTED_EDGE('',*,*,#304,.F.);
#172=ORIENTED_EDGE('',*,*,#307,.T.);
#173=ORIENTED_EDGE('',*,*,#310,.T.);
#174=ORIENTED_EDGE('',*,*,#313,.T.);
#175=ORIENTED_EDGE('',*,*,#317,.T.);
#176=ORIENTED_EDGE('',*,*,#314,.F.);
#177=ORIENTED_EDGE('',*,*,#318,.F.);
#178=ORIENTED_EDGE('',*,*,#320,.T.);
#179=ORIENTED_EDGE('',*,*,#321,.T.);
#180=ORIENTED_EDGE('',*,*,#299,.F.);
#181=ORIENTED_EDGE('',*,*,#274,.T.);
#182=ORIENTED_EDGE('',*,*,#271,.T.);
#183=ORIENTED_EDGE('',*,*,#268,.T.);
#184=ORIENTED_EDGE('',*,*,#265,.F.);
#185=ORIENTED_EDGE('',*,*,#262,.F.);
#186=ORIENTED_EDGE('',*,*,#259,.F.);
#187=ORIENTED_EDGE('',*,*,#256,.F.);
#188=ORIENTED_EDGE('',*,*,#253,.T.);
#189=ORIENTED_EDGE('',*,*,#250,.F.);
#190=ORIENTED_EDGE('',*,*,#246,.T.);
#191=ORIENTED_EDGE('',*,*,#316,.F.);
#192=ORIENTED_EDGE('',*,*,#311,.F.);
#193=ORIENTED_EDGE('',*,*,#308,.F.);
#194=ORIENTED_EDGE('',*,*,#305,.F.);
#195=ORIENTED_EDGE('',*,*,#302,.T.);
#196=ORIENTED_EDGE('',*,*,#315,.T.);
#197=ORIENTED_EDGE('',*,*,#319,.T.);
#198=ORIENTED_EDGE('',*,*,#282,.F.);
#199=ORIENTED_EDGE('',*,*,#322,.T.);
#200=ORIENTED_EDGE('',*,*,#323,.T.);
#201=ORIENTED_EDGE('',*,*,#324,.F.);
#202=ORIENTED_EDGE('',*,*,#325,.T.);
#203=ORIENTED_EDGE('',*,*,#326,.F.);
#204=ORIENTED_EDGE('',*,*,#278,.F.);
#205=ORIENTED_EDGE('',*,*,#297,.T.);
#206=ORIENTED_EDGE('',*,*,#294,.F.);
#207=ORIENTED_EDGE('',*,*,#291,.T.);
#208=ORIENTED_EDGE('',*,*,#288,.F.);
#209=ORIENTED_EDGE('',*,*,#285,.F.);
#210=ORIENTED_EDGE('',*,*,#326,.T.);
#211=ORIENTED_EDGE('',*,*,#327,.F.);
#212=ORIENTED_EDGE('',*,*,#328,.F.);
#213=ORIENTED_EDGE('',*,*,#279,.T.);
#214=ORIENTED_EDGE('',*,*,#327,.T.);
#215=ORIENTED_EDGE('',*,*,#325,.F.);
#216=ORIENTED_EDGE('',*,*,#329,.F.);
#217=ORIENTED_EDGE('',*,*,#330,.T.);
#218=ORIENTED_EDGE('',*,*,#324,.T.);
#219=ORIENTED_EDGE('',*,*,#331,.F.);
#220=ORIENTED_EDGE('',*,*,#332,.F.);
#221=ORIENTED_EDGE('',*,*,#329,.T.);
#222=ORIENTED_EDGE('',*,*,#331,.T.);
#223=ORIENTED_EDGE('',*,*,#323,.F.);
#224=ORIENTED_EDGE('',*,*,#333,.F.);
#225=ORIENTED_EDGE('',*,*,#334,.T.);
#226=ORIENTED_EDGE('',*,*,#335,.T.);
#227=ORIENTED_EDGE('',*,*,#336,.T.);
#228=ORIENTED_EDGE('',*,*,#333,.T.);
#229=ORIENTED_EDGE('',*,*,#322,.F.);
#230=ORIENTED_EDGE('',*,*,#281,.F.);
#231=ORIENTED_EDGE('',*,*,#337,.T.);
#232=ORIENTED_EDGE('',*,*,#338,.T.);
#233=ORIENTED_EDGE('',*,*,#339,.T.);
#234=ORIENTED_EDGE('',*,*,#280,.F.);
#235=ORIENTED_EDGE('',*,*,#328,.T.);
#236=ORIENTED_EDGE('',*,*,#330,.F.);
#237=ORIENTED_EDGE('',*,*,#332,.T.);
#238=ORIENTED_EDGE('',*,*,#334,.F.);
#239=ORIENTED_EDGE('',*,*,#337,.F.);
#240=ORIENTED_EDGE('',*,*,#336,.F.);
#241=ORIENTED_EDGE('',*,*,#339,.F.);
#242=ORIENTED_EDGE('',*,*,#335,.F.);
#243=ORIENTED_EDGE('',*,*,#320,.F.);
#244=ORIENTED_EDGE('',*,*,#338,.F.);
#245=ORIENTED_EDGE('',*,*,#321,.F.);
#246=EDGE_CURVE('',#340,#341,#406,.T.);
#247=EDGE_CURVE('',#342,#340,#407,.T.);
#248=EDGE_CURVE('',#342,#343,#408,.T.);
#249=EDGE_CURVE('',#343,#341,#409,.T.);
#250=EDGE_CURVE('',#340,#344,#410,.T.);
#251=EDGE_CURVE('',#345,#344,#411,.T.);
#252=EDGE_CURVE('',#342,#345,#412,.T.);
#253=EDGE_CURVE('',#346,#344,#413,.T.);
#254=EDGE_CURVE('',#347,#346,#414,.T.);
#255=EDGE_CURVE('',#347,#345,#415,.T.);
#256=EDGE_CURVE('',#346,#348,#14,.T.);
#257=EDGE_CURVE('',#349,#348,#416,.T.);
#258=EDGE_CURVE('',#347,#349,#15,.T.);
#259=EDGE_CURVE('',#348,#350,#417,.T.);
#260=EDGE_CURVE('',#351,#350,#418,.T.);
#261=EDGE_CURVE('',#349,#351,#419,.T.);
#262=EDGE_CURVE('',#350,#352,#16,.T.);
#263=EDGE_CURVE('',#353,#352,#420,.T.);
#264=EDGE_CURVE('',#351,#353,#17,.T.);
#265=EDGE_CURVE('',#352,#354,#421,.T.);
#266=EDGE_CURVE('',#355,#354,#422,.T.);
#267=EDGE_CURVE('',#353,#355,#423,.T.);
#268=EDGE_CURVE('',#356,#354,#18,.T.);
#269=EDGE_CURVE('',#357,#356,#424,.T.);
#270=EDGE_CURVE('',#357,#355,#19,.T.);
#271=EDGE_CURVE('',#358,#356,#425,.T.);
#272=EDGE_CURVE('',#359,#358,#426,.T.);
#273=EDGE_CURVE('',#359,#357,#427,.T.);
#274=EDGE_CURVE('',#360,#358,#428,.T.);
#275=EDGE_CURVE('',#361,#360,#429,.T.);
#276=EDGE_CURVE('',#361,#362,#430,.T.);
#277=EDGE_CURVE('',#362,#363,#431,.T.);
#278=EDGE_CURVE('',#363,#364,#432,.T.);
#279=EDGE_CURVE('',#365,#364,#433,.T.);
#280=EDGE_CURVE('',#365,#366,#434,.T.);
#281=EDGE_CURVE('',#366,#367,#435,.T.);
#282=EDGE_CURVE('',#367,#368,#436,.T.);
#283=EDGE_CURVE('',#369,#368,#437,.T.);
#284=EDGE_CURVE('',#369,#359,#438,.T.);
#285=EDGE_CURVE('',#368,#370,#439,.T.);
#286=EDGE_CURVE('',#371,#370,#440,.T.);
#287=EDGE_CURVE('',#369,#371,#441,.T.);
#288=EDGE_CURVE('',#370,#372,#20,.T.);
#289=EDGE_CURVE('',#373,#372,#442,.T.);
#290=EDGE_CURVE('',#371,#373,#21,.T.);
#291=EDGE_CURVE('',#374,#372,#443,.T.);
#292=EDGE_CURVE('',#375,#374,#444,.T.);
#293=EDGE_CURVE('',#375,#373,#445,.T.);
#294=EDGE_CURVE('',#374,#376,#22,.T.);
#295=EDGE_CURVE('',#377,#376,#446,.T.);
#296=EDGE_CURVE('',#375,#377,#23,.T.);
#297=EDGE_CURVE('',#363,#376,#447,.T.);
#298=EDGE_CURVE('',#362,#377,#448,.T.);
#299=EDGE_CURVE('',#360,#378,#449,.T.);
#300=EDGE_CURVE('',#379,#378,#450,.T.);
#301=EDGE_CURVE('',#361,#379,#451,.T.);
#302=EDGE_CURVE('',#380,#378,#24,.T.);
#303=EDGE_CURVE('',#381,#380,#452,.T.);
#304=EDGE_CURVE('',#381,#379,#25,.T.);
#305=EDGE_CURVE('',#380,#382,#453,.T.);
#306=EDGE_CURVE('',#383,#382,#454,.T.);
#307=EDGE_CURVE('',#381,#383,#455,.T.);
#308=EDGE_CURVE('',#382,#384,#26,.T.);
#309=EDGE_CURVE('',#385,#384,#456,.T.);
#310=EDGE_CURVE('',#383,#385,#27,.T.);
#311=EDGE_CURVE('',#384,#386,#457,.T.);
#312=EDGE_CURVE('',#387,#386,#458,.T.);
#313=EDGE_CURVE('',#385,#387,#459,.T.);
#314=EDGE_CURVE('',#388,#388,#28,.T.);
#315=EDGE_CURVE('',#389,#389,#29,.T.);
#316=EDGE_CURVE('',#386,#341,#30,.T.);
#317=EDGE_CURVE('',#387,#343,#31,.T.);
#318=EDGE_CURVE('',#390,#390,#32,.T.);
#319=EDGE_CURVE('',#391,#391,#33,.T.);
#320=EDGE_CURVE('',#392,#392,#34,.T.);
#321=EDGE_CURVE('',#393,#393,#35,.T.);
#322=EDGE_CURVE('',#367,#394,#460,.T.);
#323=EDGE_CURVE('',#394,#395,#36,.T.);
#324=EDGE_CURVE('',#396,#395,#461,.T.);
#325=EDGE_CURVE('',#396,#397,#37,.T.);
#326=EDGE_CURVE('',#364,#397,#462,.T.);
#327=EDGE_CURVE('',#398,#397,#463,.T.);
#328=EDGE_CURVE('',#365,#398,#464,.T.);
#329=EDGE_CURVE('',#399,#396,#465,.T.);
#330=EDGE_CURVE('',#399,#398,#38,.T.);
#331=EDGE_CURVE('',#400,#395,#466,.T.);
#332=EDGE_CURVE('',#399,#400,#467,.T.);
#333=EDGE_CURVE('',#401,#394,#468,.T.);
#334=EDGE_CURVE('',#401,#400,#39,.T.);
#335=EDGE_CURVE('',#402,#402,#40,.F.);
#336=EDGE_CURVE('',#403,#403,#41,.T.);
#337=EDGE_CURVE('',#366,#401,#469,.T.);
#338=EDGE_CURVE('',#404,#404,#42,.F.);
#339=EDGE_CURVE('',#405,#405,#43,.T.);
#340=VERTEX_POINT('',#970);
#341=VERTEX_POINT('',#971);
#342=VERTEX_POINT('',#973);
#343=VERTEX_POINT('',#975);
#344=VERTEX_POINT('',#979);
#345=VERTEX_POINT('',#981);
#346=VERTEX_POINT('',#985);
#347=VERTEX_POINT('',#987);
#348=VERTEX_POINT('',#991);
#349=VERTEX_POINT('',#993);
#350=VERTEX_POINT('',#997);
#351=VERTEX_POINT('',#999);
#352=VERTEX_POINT('',#1003);
#353=VERTEX_POINT('',#1005);
#354=VERTEX_POINT('',#1009);
#355=VERTEX_POINT('',#1011);
#356=VERTEX_POINT('',#1015);
#357=VERTEX_POINT('',#1017);
#358=VERTEX_POINT('',#1021);
#359=VERTEX_POINT('',#1023);
#360=VERTEX_POINT('',#1027);
#361=VERTEX_POINT('',#1029);
#362=VERTEX_POINT('',#1031);
#363=VERTEX_POINT('',#1033);
#364=VERTEX_POINT('',#1035);
#365=VERTEX_POINT('',#1037);
#366=VERTEX_POINT('',#1039);
#367=VERTEX_POINT('',#1041);
#368=VERTEX_POINT('',#1043);
#369=VERTEX_POINT('',#1045);
#370=VERTEX_POINT('',#1049);
#371=VERTEX_POINT('',#1051);
#372=VERTEX_POINT('',#1055);
#373=VERTEX_POINT('',#1057);
#374=VERTEX_POINT('',#1061);
#375=VERTEX_POINT('',#1063);
#376=VERTEX_POINT('',#1067);
#377=VERTEX_POINT('',#1069);
#378=VERTEX_POINT('',#1076);
#379=VERTEX_POINT('',#1078);
#380=VERTEX_POINT('',#1082);
#381=VERTEX_POINT('',#1084);
#382=VERTEX_POINT('',#1088);
#383=VERTEX_POINT('',#1090);
#384=VERTEX_POINT('',#1094);
#385=VERTEX_POINT('',#1096);
#386=VERTEX_POINT('',#1100);
#387=VERTEX_POINT('',#1102);
#388=VERTEX_POINT('',#1106);
#389=VERTEX_POINT('',#1108);
#390=VERTEX_POINT('',#1114);
#391=VERTEX_POINT('',#1116);
#392=VERTEX_POINT('',#1120);
#393=VERTEX_POINT('',#1122);
#394=VERTEX_POINT('',#1125);
#395=VERTEX_POINT('',#1127);
#396=VERTEX_POINT('',#1129);
#397=VERTEX_POINT('',#1131);
#398=VERTEX_POINT('',#1135);
#399=VERTEX_POINT('',#1139);
#400=VERTEX_POINT('',#1143);
#401=VERTEX_POINT('',#1147);
#402=VERTEX_POINT('',#1151);
#403=VERTEX_POINT('',#1153);
#404=VERTEX_POINT('',#1158);
#405=VERTEX_POINT('',#1160);
#406=LINE('',#969,#470);
#407=LINE('',#972,#471);
#408=LINE('',#974,#472);
#409=LINE('',#976,#473);
#410=LINE('',#978,#474);
#411=LINE('',#980,#475);
#412=LINE('',#982,#476);
#413=LINE('',#984,#477);
#414=LINE('',#986,#478);
#415=LINE('',#988,#479);
#416=LINE('',#992,#480);
#417=LINE('',#996,#481);
#418=LINE('',#998,#482);
#419=LINE('',#1000,#483);
#420=LINE('',#1004,#484);
#421=LINE('',#1008,#485);
#422=LINE('',#1010,#486);
#423=LINE('',#1012,#487);
#424=LINE('',#1016,#488);
#425=LINE('',#1020,#489);
#426=LINE('',#1022,#490);
#427=LINE('',#1024,#491);
#428=LINE('',#1026,#492);
#429=LINE('',#1028,#493);
#430=LINE('',#1030,#494);
#431=LINE('',#1032,#495);
#432=LINE('',#1034,#496);
#433=LINE('',#1036,#497);
#434=LINE('',#1038,#498);
#435=LINE('',#1040,#499);
#436=LINE('',#1042,#500);
#437=LINE('',#1044,#501);
#438=LINE('',#1046,#502);
#439=LINE('',#1048,#503);
#440=LINE('',#1050,#504);
#441=LINE('',#1052,#505);
#442=LINE('',#1056,#506);
#443=LINE('',#1060,#507);
#444=LINE('',#1062,#508);
#445=LINE('',#1064,#509);
#446=LINE('',#1068,#510);
#447=LINE('',#1072,#511);
#448=LINE('',#1073,#512);
#449=LINE('',#1075,#513);
#450=LINE('',#1077,#514);
#451=LINE('',#1079,#515);
#452=LINE('',#1083,#516);
#453=LINE('',#1087,#517);
#454=LINE('',#1089,#518);
#455=LINE('',#1091,#519);
#456=LINE('',#1095,#520);
#457=LINE('',#1099,#521);
#458=LINE('',#1101,#522);
#459=LINE('',#1103,#523);
#460=LINE('',#1124,#524);
#461=LINE('',#1128,#525);
#462=LINE('',#1132,#526);
#463=LINE('',#1134,#527);
#464=LINE('',#1136,#528);
#465=LINE('',#1138,#529);
#466=LINE('',#1142,#530);
#467=LINE('',#1144,#531);
#468=LINE('',#1146,#532);
#469=LINE('',#1155,#533);
#470=VECTOR('',#773,1.);
#471=VECTOR('',#774,1.);
#472=VECTOR('',#775,1.);
#473=VECTOR('',#776,1.);
#474=VECTOR('',#779,1.);
#475=VECTOR('',#780,1.);
#476=VECTOR('',#781,1.);
#477=VECTOR('',#784,1.);
#478=VECTOR('',#785,1.);
#479=VECTOR('',#786,1.);
#480=VECTOR('',#791,1.);
#481=VECTOR('',#796,1.);
#482=VECTOR('',#797,1.);
#483=VECTOR('',#798,1.);
#484=VECTOR('',#803,1.);
#485=VECTOR('',#808,1.);
#486=VECTOR('',#809,1.);
#487=VECTOR('',#810,1.);
#488=VECTOR('',#815,1.);
#489=VECTOR('',#820,1.);
#490=VECTOR('',#821,1.);
#491=VECTOR('',#822,1.);
#492=VECTOR('',#825,1.);
#493=VECTOR('',#826,1.);
#494=VECTOR('',#827,1.);
#495=VECTOR('',#828,1.);
#496=VECTOR('',#829,1.);
#497=VECTOR('',#830,1.);
#498=VECTOR('',#831,1.);
#499=VECTOR('',#832,1.);
#500=VECTOR('',#833,1.);
#501=VECTOR('',#834,1.);
#502=VECTOR('',#835,1.);
#503=VECTOR('',#838,1.);
#504=VECTOR('',#839,1.);
#505=VECTOR('',#840,1.);
#506=VECTOR('',#845,1.);
#507=VECTOR('',#850,1.);
#508=VECTOR('',#851,1.);
#509=VECTOR('',#852,1.);
#510=VECTOR('',#857,1.);
#511=VECTOR('',#862,1.);
#512=VECTOR('',#863,1.);
#513=VECTOR('',#866,1.);
#514=VECTOR('',#867,1.);
#515=VECTOR('',#868,1.);
#516=VECTOR('',#873,1.);
#517=VECTOR('',#878,1.);
#518=VECTOR('',#879,1.);
#519=VECTOR('',#880,1.);
#520=VECTOR('',#885,1.);
#521=VECTOR('',#890,1.);
#522=VECTOR('',#891,1.);
#523=VECTOR('',#892,1.);
#524=VECTOR('',#921,1.);
#525=VECTOR('',#924,1.);
#526=VECTOR('',#927,1.);
#527=VECTOR('',#930,1.);
#528=VECTOR('',#931,1.);
#529=VECTOR('',#934,1.);
#530=VECTOR('',#939,1.);
#531=VECTOR('',#940,1.);
#532=VECTOR('',#943,1.);
#533=VECTOR('',#954,1.);
#534=EDGE_LOOP('',(#58,#59,#60,#61));
#535=EDGE_LOOP('',(#62,#63,#64,#65));
#536=EDGE_LOOP('',(#66,#67,#68,#69));
#537=EDGE_LOOP('',(#70,#71,#72,#73));
#538=EDGE_LOOP('',(#74,#75,#76,#77));
#539=EDGE_LOOP('',(#78,#79,#80,#81));
#540=EDGE_LOOP('',(#82,#83,#84,#85));
#541=EDGE_LOOP('',(#86,#87,#88,#89));
#542=EDGE_LOOP('',(#90,#91,#92,#93));
#543=EDGE_LOOP('',(#94,#95,#96,#97,#98,#99,#100,#101,#102,#103,#104,#105));
#544=EDGE_LOOP('',(#106,#107,#108,#109));
#545=EDGE_LOOP('',(#110,#111,#112,#113));
#546=EDGE_LOOP('',(#114,#115,#116,#117));
#547=EDGE_LOOP('',(#118,#119,#120,#121));
#548=EDGE_LOOP('',(#122,#123,#124,#125));
#549=EDGE_LOOP('',(#126,#127,#128,#129));
#550=EDGE_LOOP('',(#130,#131,#132,#133));
#551=EDGE_LOOP('',(#134,#135,#136,#137));
#552=EDGE_LOOP('',(#138,#139,#140,#141));
#553=EDGE_LOOP('',(#142,#143,#144,#145));
#554=EDGE_LOOP('',(#146));
#555=EDGE_LOOP('',(#147));
#556=EDGE_LOOP('',(#148,#149,#150,#151));
#557=EDGE_LOOP('',(#152));
#558=EDGE_LOOP('',(#153));
#559=EDGE_LOOP('',(#154,#155,#156,#157,#158,#159,#160,#161,#162,#163,#164,
#165,#166,#167,#168,#169,#170,#171,#172,#173,#174,#175));
#560=EDGE_LOOP('',(#176));
#561=EDGE_LOOP('',(#177));
#562=EDGE_LOOP('',(#178));
#563=EDGE_LOOP('',(#179));
#564=EDGE_LOOP('',(#180,#181,#182,#183,#184,#185,#186,#187,#188,#189,#190,
#191,#192,#193,#194,#195));
#565=EDGE_LOOP('',(#196));
#566=EDGE_LOOP('',(#197));
#567=EDGE_LOOP('',(#198,#199,#200,#201,#202,#203,#204,#205,#206,#207,#208,
#209));
#568=EDGE_LOOP('',(#210,#211,#212,#213));
#569=EDGE_LOOP('',(#214,#215,#216,#217));
#570=EDGE_LOOP('',(#218,#219,#220,#221));
#571=EDGE_LOOP('',(#222,#223,#224,#225));
#572=EDGE_LOOP('',(#226));
#573=EDGE_LOOP('',(#227));
#574=EDGE_LOOP('',(#228,#229,#230,#231));
#575=EDGE_LOOP('',(#232));
#576=EDGE_LOOP('',(#233));
#577=EDGE_LOOP('',(#234,#235,#236,#237,#238,#239));
#578=EDGE_LOOP('',(#240));
#579=EDGE_LOOP('',(#241));
#580=EDGE_LOOP('',(#242));
#581=EDGE_LOOP('',(#243));
#582=EDGE_LOOP('',(#244));
#583=EDGE_LOOP('',(#245));
#584=FACE_BOUND('',#534,.T.);
#585=FACE_BOUND('',#535,.T.);
#586=FACE_BOUND('',#536,.T.);
#587=FACE_BOUND('',#537,.T.);
#588=FACE_BOUND('',#538,.T.);
#589=FACE_BOUND('',#539,.T.);
#590=FACE_BOUND('',#540,.T.);
#591=FACE_BOUND('',#541,.T.);
#592=FACE_BOUND('',#542,.T.);
#593=FACE_BOUND('',#543,.T.);
#594=FACE_BOUND('',#544,.T.);
#595=FACE_BOUND('',#545,.T.);
#596=FACE_BOUND('',#546,.T.);
#597=FACE_BOUND('',#547,.T.);
#598=FACE_BOUND('',#548,.T.);
#599=FACE_BOUND('',#549,.T.);
#600=FACE_BOUND('',#550,.T.);
#601=FACE_BOUND('',#551,.T.);
#602=FACE_BOUND('',#552,.T.);
#603=FACE_BOUND('',#553,.T.);
#604=FACE_BOUND('',#554,.T.);
#605=FACE_BOUND('',#555,.T.);
#606=FACE_BOUND('',#556,.T.);
#607=FACE_BOUND('',#557,.T.);
#608=FACE_BOUND('',#558,.T.);
#609=FACE_BOUND('',#559,.T.);
#610=FACE_BOUND('',#560,.T.);
#611=FACE_BOUND('',#561,.T.);
#612=FACE_BOUND('',#562,.T.);
#613=FACE_BOUND('',#563,.T.);
#614=FACE_BOUND('',#564,.T.);
#615=FACE_BOUND('',#565,.T.);
#616=FACE_BOUND('',#566,.T.);
#617=FACE_BOUND('',#567,.T.);
#618=FACE_BOUND('',#568,.T.);
#619=FACE_BOUND('',#569,.T.);
#620=FACE_BOUND('',#570,.T.);
#621=FACE_BOUND('',#571,.T.);
#622=FACE_BOUND('',#572,.T.);
#623=FACE_BOUND('',#573,.T.);
#624=FACE_BOUND('',#574,.T.);
#625=FACE_BOUND('',#575,.T.);
#626=FACE_BOUND('',#576,.T.);
#627=FACE_BOUND('',#577,.T.);
#628=FACE_BOUND('',#578,.T.);
#629=FACE_BOUND('',#579,.T.);
#630=FACE_BOUND('',#580,.T.);
#631=FACE_BOUND('',#581,.T.);
#632=FACE_BOUND('',#582,.T.);
#633=FACE_BOUND('',#583,.T.);
#634=PLANE('',#703);
#635=PLANE('',#704);
#636=PLANE('',#705);
#637=PLANE('',#709);
#638=PLANE('',#713);
#639=PLANE('',#717);
#640=PLANE('',#718);
#641=PLANE('',#719);
#642=PLANE('',#723);
#643=PLANE('',#727);
#644=PLANE('',#728);
#645=PLANE('',#732);
#646=PLANE('',#736);
#647=PLANE('',#746);
#648=PLANE('',#747);
#649=PLANE('',#750);
#650=PLANE('',#753);
#651=PLANE('',#756);
#652=PLANE('',#762);
#653=PLANE('',#766);
#654=ADVANCED_FACE('',(#584),#634,.T.);
#655=ADVANCED_FACE('',(#585),#635,.F.);
#656=ADVANCED_FACE('',(#586),#636,.T.);
#657=ADVANCED_FACE('',(#587),#44,.T.);
#658=ADVANCED_FACE('',(#588),#637,.F.);
#659=ADVANCED_FACE('',(#589),#45,.T.);
#660=ADVANCED_FACE('',(#590),#638,.F.);
#661=ADVANCED_FACE('',(#591),#46,.T.);
#662=ADVANCED_FACE('',(#592),#639,.T.);
#663=ADVANCED_FACE('',(#593),#640,.T.);
#664=ADVANCED_FACE('',(#594),#641,.F.);
#665=ADVANCED_FACE('',(#595),#47,.F.);
#666=ADVANCED_FACE('',(#596),#642,.T.);
#667=ADVANCED_FACE('',(#597),#48,.F.);
#668=ADVANCED_FACE('',(#598),#643,.T.);
#669=ADVANCED_FACE('',(#599),#644,.F.);
#670=ADVANCED_FACE('',(#600),#49,.T.);
#671=ADVANCED_FACE('',(#601),#645,.F.);
#672=ADVANCED_FACE('',(#602),#50,.T.);
#673=ADVANCED_FACE('',(#603),#646,.F.);
#674=ADVANCED_FACE('',(#604,#605),#51,.F.);
#675=ADVANCED_FACE('',(#606),#52,.T.);
#676=ADVANCED_FACE('',(#607,#608),#53,.F.);
#677=ADVANCED_FACE('',(#609,#610,#611),#647,.T.);
#678=ADVANCED_FACE('',(#612,#613,#614,#615,#616),#648,.F.);
#679=ADVANCED_FACE('',(#617),#649,.T.);
#680=ADVANCED_FACE('',(#618),#650,.F.);
#681=ADVANCED_FACE('',(#619),#54,.T.);
#682=ADVANCED_FACE('',(#620),#651,.F.);
#683=ADVANCED_FACE('',(#621),#55,.T.);
#684=ADVANCED_FACE('',(#622,#623),#56,.F.);
#685=ADVANCED_FACE('',(#624),#652,.T.);
#686=ADVANCED_FACE('',(#625,#626),#57,.F.);
#687=ADVANCED_FACE('',(#627,#628,#629),#653,.T.);
#688=ADVANCED_FACE('',(#630,#631),#12,.F.);
#689=ADVANCED_FACE('',(#632,#633),#13,.F.);
#690=CLOSED_SHELL('',(#654,#655,#656,#657,#658,#659,#660,#661,#662,#663,
#664,#665,#666,#667,#668,#669,#670,#671,#672,#673,#674,#675,#676,#677,#678,
#679,#680,#681,#682,#683,#684,#685,#686,#687,#688,#689));
#691=STYLED_ITEM('',(#692),#699);
#692=PRESENTATION_STYLE_ASSIGNMENT((#693));
#693=SURFACE_STYLE_USAGE(.BOTH.,#694);
#694=SURFACE_SIDE_STYLE('',(#695));
#695=SURFACE_STYLE_FILL_AREA(#696);
#696=FILL_AREA_STYLE('',(#697));
#697=FILL_AREA_STYLE_COLOUR('',#698);
#698=COLOUR_RGB('',0.647058823529412,0.647058823529412,0.647058823529412);
#699=MANIFOLD_SOLID_BREP('left',#690);
#700=SHAPE_DEFINITION_REPRESENTATION(#1170,#701);
#701=SHAPE_REPRESENTATION('left',(#702),#1165);
#702=AXIS2_PLACEMENT_3D('',#967,#769,#770);
#703=AXIS2_PLACEMENT_3D('',#968,#771,#772);
#704=AXIS2_PLACEMENT_3D('',#977,#777,#778);
#705=AXIS2_PLACEMENT_3D('',#983,#782,#783);
#706=AXIS2_PLACEMENT_3D('',#989,#787,#788);
#707=AXIS2_PLACEMENT_3D('',#990,#789,#790);
#708=AXIS2_PLACEMENT_3D('',#994,#792,#793);
#709=AXIS2_PLACEMENT_3D('',#995,#794,#795);
#710=AXIS2_PLACEMENT_3D('',#1001,#799,#800);
#711=AXIS2_PLACEMENT_3D('',#1002,#801,#802);
#712=AXIS2_PLACEMENT_3D('',#1006,#804,#805);
#713=AXIS2_PLACEMENT_3D('',#1007,#806,#807);
#714=AXIS2_PLACEMENT_3D('',#1013,#811,#812);
#715=AXIS2_PLACEMENT_3D('',#1014,#813,#814);
#716=AXIS2_PLACEMENT_3D('',#1018,#816,#817);
#717=AXIS2_PLACEMENT_3D('',#1019,#818,#819);
#718=AXIS2_PLACEMENT_3D('',#1025,#823,#824);
#719=AXIS2_PLACEMENT_3D('',#1047,#836,#837);
#720=AXIS2_PLACEMENT_3D('',#1053,#841,#842);
#721=AXIS2_PLACEMENT_3D('',#1054,#843,#844);
#722=AXIS2_PLACEMENT_3D('',#1058,#846,#847);
#723=AXIS2_PLACEMENT_3D('',#1059,#848,#849);
#724=AXIS2_PLACEMENT_3D('',#1065,#853,#854);
#725=AXIS2_PLACEMENT_3D('',#1066,#855,#856);
#726=AXIS2_PLACEMENT_3D('',#1070,#858,#859);
#727=AXIS2_PLACEMENT_3D('',#1071,#860,#861);
#728=AXIS2_PLACEMENT_3D('',#1074,#864,#865);
#729=AXIS2_PLACEMENT_3D('',#1080,#869,#870);
#730=AXIS2_PLACEMENT_3D('',#1081,#871,#872);
#731=AXIS2_PLACEMENT_3D('',#1085,#874,#875);
#732=AXIS2_PLACEMENT_3D('',#1086,#876,#877);
#733=AXIS2_PLACEMENT_3D('',#1092,#881,#882);
#734=AXIS2_PLACEMENT_3D('',#1093,#883,#884);
#735=AXIS2_PLACEMENT_3D('',#1097,#886,#887);
#736=AXIS2_PLACEMENT_3D('',#1098,#888,#889);
#737=AXIS2_PLACEMENT_3D('',#1104,#893,#894);
#738=AXIS2_PLACEMENT_3D('',#1105,#895,#896);
#739=AXIS2_PLACEMENT_3D('',#1107,#897,#898);
#740=AXIS2_PLACEMENT_3D('',#1109,#899,#900);
#741=AXIS2_PLACEMENT_3D('',#1110,#901,#902);
#742=AXIS2_PLACEMENT_3D('',#1111,#903,#904);
#743=AXIS2_PLACEMENT_3D('',#1112,#905,#906);
#744=AXIS2_PLACEMENT_3D('',#1113,#907,#908);
#745=AXIS2_PLACEMENT_3D('',#1115,#909,#910);
#746=AXIS2_PLACEMENT_3D('',#1117,#911,#912);
#747=AXIS2_PLACEMENT_3D('',#1118,#913,#914);
#748=AXIS2_PLACEMENT_3D('',#1119,#915,#916);
#749=AXIS2_PLACEMENT_3D('',#1121,#917,#918);
#750=AXIS2_PLACEMENT_3D('',#1123,#919,#920);
#751=AXIS2_PLACEMENT_3D('',#1126,#922,#923);
#752=AXIS2_PLACEMENT_3D('',#1130,#925,#926);
#753=AXIS2_PLACEMENT_3D('',#1133,#928,#929);
#754=AXIS2_PLACEMENT_3D('',#1137,#932,#933);
#755=AXIS2_PLACEMENT_3D('',#1140,#935,#936);
#756=AXIS2_PLACEMENT_3D('',#1141,#937,#938);
#757=AXIS2_PLACEMENT_3D('',#1145,#941,#942);
#758=AXIS2_PLACEMENT_3D('',#1148,#944,#945);
#759=AXIS2_PLACEMENT_3D('',#1149,#946,#947);
#760=AXIS2_PLACEMENT_3D('',#1150,#948,#949);
#761=AXIS2_PLACEMENT_3D('',#1152,#950,#951);
#762=AXIS2_PLACEMENT_3D('',#1154,#952,#953);
#763=AXIS2_PLACEMENT_3D('',#1156,#955,#956);
#764=AXIS2_PLACEMENT_3D('',#1157,#957,#958);
#765=AXIS2_PLACEMENT_3D('',#1159,#959,#960);
#766=AXIS2_PLACEMENT_3D('',#1161,#961,#962);
#767=AXIS2_PLACEMENT_3D('',#1162,#963,#964);
#768=AXIS2_PLACEMENT_3D('',#1163,#965,#966);
#769=DIRECTION('',(0.,0.,1.));
#770=DIRECTION('',(1.,0.,0.));
#771=DIRECTION('',(0.,-1.,0.));
#772=DIRECTION('',(0.,0.,-1.));
#773=DIRECTION('',(-1.,0.,0.));
#774=DIRECTION('',(0.,0.,-1.));
#775=DIRECTION('',(-1.,0.,0.));
#776=DIRECTION('',(0.,0.,-1.));
#777=DIRECTION('',(1.,0.,0.));
#778=DIRECTION('',(0.,0.,-1.));
#779=DIRECTION('',(0.,-1.,0.));
#780=DIRECTION('',(0.,0.,-1.));
#781=DIRECTION('',(0.,-1.,0.));
#782=DIRECTION('',(0.,1.,0.));
#783=DIRECTION('',(0.,0.,1.));
#784=DIRECTION('',(1.,0.,0.));
#785=DIRECTION('',(0.,0.,-1.));
#786=DIRECTION('',(1.,0.,0.));
#787=DIRECTION('',(0.,0.,-1.));
#788=DIRECTION('',(-1.,0.,0.));
#789=DIRECTION('',(0.,0.,1.));
#790=DIRECTION('',(1.,0.,0.));
#791=DIRECTION('',(0.,0.,-1.));
#792=DIRECTION('',(0.,0.,1.));
#793=DIRECTION('',(1.,0.,0.));
#794=DIRECTION('',(1.,0.,0.));
#795=DIRECTION('',(0.,0.,-1.));
#796=DIRECTION('',(0.,-1.,0.));
#797=DIRECTION('',(0.,0.,-1.));
#798=DIRECTION('',(0.,-1.,0.));
#799=DIRECTION('',(0.,0.,-1.));
#800=DIRECTION('',(-1.,0.,0.));
#801=DIRECTION('',(0.,0.,1.));
#802=DIRECTION('',(1.,0.,0.));
#803=DIRECTION('',(0.,0.,-1.));
#804=DIRECTION('',(0.,0.,1.));
#805=DIRECTION('',(1.,0.,0.));
#806=DIRECTION('',(0.,1.,0.));
#807=DIRECTION('',(0.,0.,1.));
#808=DIRECTION('',(1.,0.,0.));
#809=DIRECTION('',(0.,0.,-1.));
#810=DIRECTION('',(1.,0.,0.));
#811=DIRECTION('',(0.,0.,-1.));
#812=DIRECTION('',(-1.,0.,0.));
#813=DIRECTION('',(0.,0.,-1.));
#814=DIRECTION('',(1.,0.,0.));
#815=DIRECTION('',(0.,0.,-1.));
#816=DIRECTION('',(0.,0.,-1.));
#817=DIRECTION('',(1.,0.,0.));
#818=DIRECTION('',(0.,-1.,0.));
#819=DIRECTION('',(0.,0.,-1.));
#820=DIRECTION('',(-1.,0.,0.));
#821=DIRECTION('',(0.,0.,-1.));
#822=DIRECTION('',(-1.,0.,0.));
#823=DIRECTION('',(1.,0.,0.));
#824=DIRECTION('',(0.,0.,-1.));
#825=DIRECTION('',(0.,-1.,0.));
#826=DIRECTION('',(0.,0.,-1.));
#827=DIRECTION('',(0.,-1.,0.));
#828=DIRECTION('',(0.,0.,-1.));
#829=DIRECTION('',(0.,-1.,0.));
#830=DIRECTION('',(0.,0.,-1.));
#831=DIRECTION('',(1.49625744558646E-16,-1.,0.));
#832=DIRECTION('',(0.,0.,-1.));
#833=DIRECTION('',(0.,-1.,0.));
#834=DIRECTION('',(0.,0.,-1.));
#835=DIRECTION('',(0.,-1.,0.));
#836=DIRECTION('',(0.,-1.,0.));
#837=DIRECTION('',(0.,0.,-1.));
#838=DIRECTION('',(-1.,0.,0.));
#839=DIRECTION('',(0.,0.,-1.));
#840=DIRECTION('',(-1.,0.,0.));
#841=DIRECTION('',(0.,0.,-1.));
#842=DIRECTION('',(-1.,0.,0.));
#843=DIRECTION('',(0.,0.,-1.));
#844=DIRECTION('',(1.,0.,0.));
#845=DIRECTION('',(0.,0.,-1.));
#846=DIRECTION('',(0.,0.,-1.));
#847=DIRECTION('',(1.,0.,0.));
#848=DIRECTION('',(1.,0.,0.));
#849=DIRECTION('',(0.,0.,-1.));
#850=DIRECTION('',(0.,-1.,0.));
#851=DIRECTION('',(0.,0.,-1.));
#852=DIRECTION('',(0.,-1.,0.));
#853=DIRECTION('',(0.,0.,-1.));
#854=DIRECTION('',(-1.,0.,0.));
#855=DIRECTION('',(0.,0.,-1.));
#856=DIRECTION('',(1.,0.,0.));
#857=DIRECTION('',(0.,0.,-1.));
#858=DIRECTION('',(0.,0.,-1.));
#859=DIRECTION('',(1.,0.,0.));
#860=DIRECTION('',(0.,-1.,0.));
#861=DIRECTION('',(0.,0.,-1.));
#862=DIRECTION('',(-1.,0.,0.));
#863=DIRECTION('',(-1.,0.,0.));
#864=DIRECTION('',(0.,-1.,0.));
#865=DIRECTION('',(0.,0.,-1.));
#866=DIRECTION('',(-1.,0.,0.));
#867=DIRECTION('',(0.,0.,-1.));
#868=DIRECTION('',(-1.,0.,0.));
#869=DIRECTION('',(0.,0.,-1.));
#870=DIRECTION('',(-1.,0.,0.));
#871=DIRECTION('',(0.,0.,-1.));
#872=DIRECTION('',(1.,0.,0.));
#873=DIRECTION('',(0.,0.,-1.));
#874=DIRECTION('',(0.,0.,-1.));
#875=DIRECTION('',(1.,0.,0.));
#876=DIRECTION('',(0.,-1.,0.));
#877=DIRECTION('',(0.,0.,-1.));
#878=DIRECTION('',(-1.,0.,0.));
#879=DIRECTION('',(0.,0.,-1.));
#880=DIRECTION('',(-1.,0.,0.));
#881=DIRECTION('',(0.,0.,-1.));
#882=DIRECTION('',(-1.,0.,0.));
#883=DIRECTION('',(0.,0.,1.));
#884=DIRECTION('',(1.,0.,0.));
#885=DIRECTION('',(0.,0.,-1.));
#886=DIRECTION('',(0.,0.,1.));
#887=DIRECTION('',(1.,0.,0.));
#888=DIRECTION('',(1.,0.,0.));
#889=DIRECTION('',(0.,0.,-1.));
#890=DIRECTION('',(0.,-1.,0.));
#891=DIRECTION('',(0.,0.,-1.));
#892=DIRECTION('',(0.,-1.,0.));
#893=DIRECTION('',(0.,0.,-1.));
#894=DIRECTION('',(-1.,0.,0.));
#895=DIRECTION('',(0.,0.,1.));
#896=DIRECTION('',(1.,0.,0.));
#897=DIRECTION('',(0.,0.,1.));
#898=DIRECTION('',(1.,0.,0.));
#899=DIRECTION('',(0.,0.,-1.));
#900=DIRECTION('',(-1.,0.,0.));
#901=DIRECTION('',(0.,0.,1.));
#902=DIRECTION('',(1.,0.,0.));
#903=DIRECTION('',(0.,0.,1.));
#904=DIRECTION('',(1.,0.,0.));
#905=DIRECTION('',(0.,0.,-1.));
#906=DIRECTION('',(-1.,0.,0.));
#907=DIRECTION('',(0.,0.,1.));
#908=DIRECTION('',(1.,0.,0.));
#909=DIRECTION('',(0.,0.,1.));
#910=DIRECTION('',(1.,0.,0.));
#911=DIRECTION('',(0.,0.,1.));
#912=DIRECTION('',(1.,0.,0.));
#913=DIRECTION('',(0.,0.,1.));
#914=DIRECTION('',(1.,0.,0.));
#915=DIRECTION('',(0.,0.,1.));
#916=DIRECTION('',(1.,0.,0.));
#917=DIRECTION('',(0.,0.,1.));
#918=DIRECTION('',(1.,0.,0.));
#919=DIRECTION('',(0.,0.,1.));
#920=DIRECTION('',(1.,0.,0.));
#921=DIRECTION('',(-1.,0.,0.));
#922=DIRECTION('',(0.,0.,-1.));
#923=DIRECTION('',(1.,0.,0.));
#924=DIRECTION('',(-3.2557859959682E-16,-1.,0.));
#925=DIRECTION('',(0.,0.,-1.));
#926=DIRECTION('',(1.,0.,0.));
#927=DIRECTION('',(-1.,0.,0.));
#928=DIRECTION('',(0.,-1.,0.));
#929=DIRECTION('',(0.,0.,-1.));
#930=DIRECTION('',(0.,0.,-1.));
#931=DIRECTION('',(-1.,0.,0.));
#932=DIRECTION('',(0.,0.,-1.));
#933=DIRECTION('',(-1.,0.,0.));
#934=DIRECTION('',(0.,0.,-1.));
#935=DIRECTION('',(0.,0.,-1.));
#936=DIRECTION('',(1.,0.,0.));
#937=DIRECTION('',(1.,-3.2557859959682E-16,0.));
#938=DIRECTION('',(3.2557859959682E-16,1.,0.));
#939=DIRECTION('',(0.,0.,-1.));
#940=DIRECTION('',(-3.2557859959682E-16,-1.,0.));
#941=DIRECTION('',(0.,0.,-1.));
#942=DIRECTION('',(-1.,0.,0.));
#943=DIRECTION('',(0.,0.,-1.));
#944=DIRECTION('',(0.,0.,-1.));
#945=DIRECTION('',(1.,0.,0.));
#946=DIRECTION('',(0.,0.,-1.));
#947=DIRECTION('',(-1.,0.,0.));
#948=DIRECTION('',(0.,0.,1.));
#949=DIRECTION('',(1.,0.,0.));
#950=DIRECTION('',(0.,0.,1.));
#951=DIRECTION('',(1.,0.,0.));
#952=DIRECTION('',(0.,-1.,0.));
#953=DIRECTION('',(0.,0.,-1.));
#954=DIRECTION('',(-1.,0.,0.));
#955=DIRECTION('',(0.,0.,-1.));
#956=DIRECTION('',(-1.,0.,0.));
#957=DIRECTION('',(0.,0.,1.));
#958=DIRECTION('',(1.,0.,0.));
#959=DIRECTION('',(0.,0.,1.));
#960=DIRECTION('',(1.,0.,0.));
#961=DIRECTION('',(0.,0.,1.));
#962=DIRECTION('',(1.,0.,0.));
#963=DIRECTION('',(0.,0.,-1.));
#964=DIRECTION('',(-1.,0.,0.));
#965=DIRECTION('',(0.,0.,-1.));
#966=DIRECTION('',(-1.,0.,0.));
#967=CARTESIAN_POINT('',(0.,0.,0.));
#968=CARTESIAN_POINT('',(-0.15175,0.084,0.005));
#969=CARTESIAN_POINT('',(-0.15175,0.084,0.));
#970=CARTESIAN_POINT('',(-0.1475,0.084,0.));
#971=CARTESIAN_POINT('',(-0.156,0.084,0.));
#972=CARTESIAN_POINT('',(-0.1475,0.084,0.005));
#973=CARTESIAN_POINT('',(-0.1475,0.084,0.005));
#974=CARTESIAN_POINT('',(-0.15175,0.084,0.005));
#975=CARTESIAN_POINT('',(-0.156,0.084,0.005));
#976=CARTESIAN_POINT('',(-0.156,0.084,0.005));
#977=CARTESIAN_POINT('',(-0.1475,1.38777878078145E-17,0.005));
#978=CARTESIAN_POINT('',(-0.1475,1.38777878078145E-17,0.));
#979=CARTESIAN_POINT('',(-0.1475,-0.084,0.));
#980=CARTESIAN_POINT('',(-0.1475,-0.084,0.005));
#981=CARTESIAN_POINT('',(-0.1475,-0.084,0.005));
#982=CARTESIAN_POINT('',(-0.1475,1.38777878078145E-17,0.005));
#983=CARTESIAN_POINT('',(-0.15175,-0.084,0.005));
#984=CARTESIAN_POINT('',(-0.15175,-0.084,0.));
#985=CARTESIAN_POINT('',(-0.156,-0.084,0.));
#986=CARTESIAN_POINT('',(-0.156,-0.084,0.005));
#987=CARTESIAN_POINT('',(-0.156,-0.084,0.005));
#988=CARTESIAN_POINT('',(-0.15175,-0.084,0.005));
#989=CARTESIAN_POINT('',(-0.156,-0.0855,0.005));
#990=CARTESIAN_POINT('',(-0.156,-0.0855,0.));
#991=CARTESIAN_POINT('',(-0.1575,-0.0855,0.));
#992=CARTESIAN_POINT('',(-0.1575,-0.0855,0.005));
#993=CARTESIAN_POINT('',(-0.1575,-0.0855,0.005));
#994=CARTESIAN_POINT('',(-0.156,-0.0855,0.005));
#995=CARTESIAN_POINT('',(-0.1575,-0.09,0.005));
#996=CARTESIAN_POINT('',(-0.1575,-0.09,0.));
#997=CARTESIAN_POINT('',(-0.1575,-0.0945,0.));
#998=CARTESIAN_POINT('',(-0.1575,-0.0945,0.005));
#999=CARTESIAN_POINT('',(-0.1575,-0.0945,0.005));
#1000=CARTESIAN_POINT('',(-0.1575,-0.09,0.005));
#1001=CARTESIAN_POINT('',(-0.156,-0.0945,0.005));
#1002=CARTESIAN_POINT('',(-0.156,-0.0945,0.));
#1003=CARTESIAN_POINT('',(-0.156,-0.096,0.));
#1004=CARTESIAN_POINT('',(-0.156,-0.096,0.005));
#1005=CARTESIAN_POINT('',(-0.156,-0.096,0.005));
#1006=CARTESIAN_POINT('',(-0.156,-0.0945,0.005));
#1007=CARTESIAN_POINT('',(-0.15075,-0.096,0.005));
#1008=CARTESIAN_POINT('',(-0.15075,-0.096,0.));
#1009=CARTESIAN_POINT('',(-0.140832682251925,-0.096,0.));
#1010=CARTESIAN_POINT('',(-0.140832682251925,-0.096,0.005));
#1011=CARTESIAN_POINT('',(-0.140832682251925,-0.096,0.005));
#1012=CARTESIAN_POINT('',(-0.15075,-0.096,0.005));
#1013=CARTESIAN_POINT('',(-0.1355,-0.08525,0.005));
#1014=CARTESIAN_POINT('',(-0.1355,-0.08525,0.));
#1015=CARTESIAN_POINT('',(-0.1355,-0.09725,0.));
#1016=CARTESIAN_POINT('',(-0.1355,-0.09725,0.005));
#1017=CARTESIAN_POINT('',(-0.1355,-0.09725,0.005));
#1018=CARTESIAN_POINT('',(-0.1355,-0.08525,0.005));
#1019=CARTESIAN_POINT('',(-0.12675,-0.09725,0.005));
#1020=CARTESIAN_POINT('',(-0.12675,-0.09725,0.));
#1021=CARTESIAN_POINT('',(-0.118,-0.09725,0.));
#1022=CARTESIAN_POINT('',(-0.118,-0.09725,0.005));
#1023=CARTESIAN_POINT('',(-0.118,-0.09725,0.005));
#1024=CARTESIAN_POINT('',(-0.12675,-0.09725,0.005));
#1025=CARTESIAN_POINT('',(-0.118,-0.09625,0.005));
#1026=CARTESIAN_POINT('',(-0.118,-0.09625,0.));
#1027=CARTESIAN_POINT('',(-0.118,0.09725,0.));
#1028=CARTESIAN_POINT('',(-0.118,0.09725,0.005));
#1029=CARTESIAN_POINT('',(-0.118,0.09725,0.005));
#1030=CARTESIAN_POINT('',(-0.118,0.09625,0.005));
#1031=CARTESIAN_POINT('',(-0.118,0.09525,0.005));
#1032=CARTESIAN_POINT('',(-0.118,0.09525,0.005));
#1033=CARTESIAN_POINT('',(-0.118,0.09525,0.0025));
#1034=CARTESIAN_POINT('',(-0.118,0.094,0.0025));
#1035=CARTESIAN_POINT('',(-0.118,0.09275,0.0025));
#1036=CARTESIAN_POINT('',(-0.118,0.09275,0.003));
#1037=CARTESIAN_POINT('',(-0.118,0.09275,0.003));
#1038=CARTESIAN_POINT('',(-0.118,0.,0.003));
#1039=CARTESIAN_POINT('',(-0.118,-0.09275,0.003));
#1040=CARTESIAN_POINT('',(-0.118,-0.09275,0.003));
#1041=CARTESIAN_POINT('',(-0.118,-0.09275,0.0025));
#1042=CARTESIAN_POINT('',(-0.118,-0.094,0.0025));
#1043=CARTESIAN_POINT('',(-0.118,-0.09525,0.0025));
#1044=CARTESIAN_POINT('',(-0.118,-0.09525,0.005));
#1045=CARTESIAN_POINT('',(-0.118,-0.09525,0.005));
#1046=CARTESIAN_POINT('',(-0.118,-0.09625,0.005));
#1047=CARTESIAN_POINT('',(-0.12675,-0.09525,0.005));
#1048=CARTESIAN_POINT('',(-0.12675,-0.09525,0.0025));
#1049=CARTESIAN_POINT('',(-0.1355,-0.09525,0.0025));
#1050=CARTESIAN_POINT('',(-0.1355,-0.09525,0.005));
#1051=CARTESIAN_POINT('',(-0.1355,-0.09525,0.005));
#1052=CARTESIAN_POINT('',(-0.12675,-0.09525,0.005));
#1053=CARTESIAN_POINT('',(-0.1355,-0.08525,0.005));
#1054=CARTESIAN_POINT('',(-0.1355,-0.08525,0.0025));
#1055=CARTESIAN_POINT('',(-0.1455,-0.08525,0.0025));
#1056=CARTESIAN_POINT('',(-0.1455,-0.08525,0.005));
#1057=CARTESIAN_POINT('',(-0.1455,-0.08525,0.005));
#1058=CARTESIAN_POINT('',(-0.1355,-0.08525,0.005));
#1059=CARTESIAN_POINT('',(-0.1455,0.084625,0.005));
#1060=CARTESIAN_POINT('',(-0.1455,0.084625,0.0025));
#1061=CARTESIAN_POINT('',(-0.1455,0.08525,0.0025));
#1062=CARTESIAN_POINT('',(-0.1455,0.08525,0.005));
#1063=CARTESIAN_POINT('',(-0.1455,0.08525,0.005));
#1064=CARTESIAN_POINT('',(-0.1455,0.084625,0.005));
#1065=CARTESIAN_POINT('',(-0.1355,0.08525,0.005));
#1066=CARTESIAN_POINT('',(-0.1355,0.08525,0.0025));
#1067=CARTESIAN_POINT('',(-0.1355,0.09525,0.0025));
#1068=CARTESIAN_POINT('',(-0.1355,0.09525,0.005));
#1069=CARTESIAN_POINT('',(-0.1355,0.09525,0.005));
#1070=CARTESIAN_POINT('',(-0.1355,0.08525,0.005));
#1071=CARTESIAN_POINT('',(-0.12675,0.09525,0.005));
#1072=CARTESIAN_POINT('',(-0.12675,0.09525,0.0025));
#1073=CARTESIAN_POINT('',(-0.12675,0.09525,0.005));
#1074=CARTESIAN_POINT('',(-0.12675,0.09725,0.005));
#1075=CARTESIAN_POINT('',(-0.12675,0.09725,0.));
#1076=CARTESIAN_POINT('',(-0.1355,0.09725,0.));
#1077=CARTESIAN_POINT('',(-0.1355,0.09725,0.005));
#1078=CARTESIAN_POINT('',(-0.1355,0.09725,0.005));
#1079=CARTESIAN_POINT('',(-0.12675,0.09725,0.005));
#1080=CARTESIAN_POINT('',(-0.1355,0.08525,0.005));
#1081=CARTESIAN_POINT('',(-0.1355,0.08525,0.));
#1082=CARTESIAN_POINT('',(-0.140832682251925,0.096,0.));
#1083=CARTESIAN_POINT('',(-0.140832682251925,0.096,0.005));
#1084=CARTESIAN_POINT('',(-0.140832682251925,0.096,0.005));
#1085=CARTESIAN_POINT('',(-0.1355,0.08525,0.005));
#1086=CARTESIAN_POINT('',(-0.15075,0.096,0.005));
#1087=CARTESIAN_POINT('',(-0.15075,0.096,0.));
#1088=CARTESIAN_POINT('',(-0.156,0.096,0.));
#1089=CARTESIAN_POINT('',(-0.156,0.096,0.005));
#1090=CARTESIAN_POINT('',(-0.156,0.096,0.005));
#1091=CARTESIAN_POINT('',(-0.15075,0.096,0.005));
#1092=CARTESIAN_POINT('',(-0.156,0.0945,0.005));
#1093=CARTESIAN_POINT('',(-0.156,0.0945,0.));
#1094=CARTESIAN_POINT('',(-0.1575,0.0945,0.));
#1095=CARTESIAN_POINT('',(-0.1575,0.0945,0.005));
#1096=CARTESIAN_POINT('',(-0.1575,0.0945,0.005));
#1097=CARTESIAN_POINT('',(-0.156,0.0945,0.005));
#1098=CARTESIAN_POINT('',(-0.1575,0.09,0.005));
#1099=CARTESIAN_POINT('',(-0.1575,0.09,0.));
#1100=CARTESIAN_POINT('',(-0.1575,0.0855,0.));
#1101=CARTESIAN_POINT('',(-0.1575,0.0855,0.005));
#1102=CARTESIAN_POINT('',(-0.1575,0.0855,0.005));
#1103=CARTESIAN_POINT('',(-0.1575,0.09,0.005));
#1104=CARTESIAN_POINT('',(-0.1515,0.09,0.005));
#1105=CARTESIAN_POINT('',(-0.1515,0.09,0.005));
#1106=CARTESIAN_POINT('',(-0.1489,0.09,0.005));
#1107=CARTESIAN_POINT('',(-0.1515,0.09,0.));
#1108=CARTESIAN_POINT('',(-0.1489,0.09,0.));
#1109=CARTESIAN_POINT('',(-0.156,0.0855,0.005));
#1110=CARTESIAN_POINT('',(-0.156,0.0855,0.));
#1111=CARTESIAN_POINT('',(-0.156,0.0855,0.005));
#1112=CARTESIAN_POINT('',(-0.1515,-0.09,0.005));
#1113=CARTESIAN_POINT('',(-0.1515,-0.09,0.005));
#1114=CARTESIAN_POINT('',(-0.1489,-0.09,0.005));
#1115=CARTESIAN_POINT('',(-0.1515,-0.09,0.));
#1116=CARTESIAN_POINT('',(-0.1489,-0.09,0.));
#1117=CARTESIAN_POINT('',(0.,2.77555756156289E-17,0.005));
#1118=CARTESIAN_POINT('',(0.,2.77555756156289E-17,0.));
#1119=CARTESIAN_POINT('',(-0.138,-0.088,0.));
#1120=CARTESIAN_POINT('',(-0.1344,-0.088,0.));
#1121=CARTESIAN_POINT('',(-0.138,0.088,0.));
#1122=CARTESIAN_POINT('',(-0.1344,0.088,0.));
#1123=CARTESIAN_POINT('',(0.,2.77555756156289E-17,0.0025));
#1124=CARTESIAN_POINT('',(-0.12675,-0.09275,0.0025));
#1125=CARTESIAN_POINT('',(-0.1355,-0.09275,0.0025));
#1126=CARTESIAN_POINT('',(-0.1355,-0.08525,0.0025));
#1127=CARTESIAN_POINT('',(-0.143,-0.08525,0.0025));
#1128=CARTESIAN_POINT('',(-0.143,0.,0.0025));
#1129=CARTESIAN_POINT('',(-0.143,0.08525,0.0025));
#1130=CARTESIAN_POINT('',(-0.1355,0.08525,0.0025));
#1131=CARTESIAN_POINT('',(-0.1355,0.09275,0.0025));
#1132=CARTESIAN_POINT('',(-0.12675,0.09275,0.0025));
#1133=CARTESIAN_POINT('',(-0.12675,0.09275,0.003));
#1134=CARTESIAN_POINT('',(-0.1355,0.09275,0.003));
#1135=CARTESIAN_POINT('',(-0.1355,0.09275,0.003));
#1136=CARTESIAN_POINT('',(-0.12675,0.09275,0.003));
#1137=CARTESIAN_POINT('',(-0.1355,0.08525,0.003));
#1138=CARTESIAN_POINT('',(-0.143,0.08525,0.003));
#1139=CARTESIAN_POINT('',(-0.143,0.08525,0.003));
#1140=CARTESIAN_POINT('',(-0.1355,0.08525,0.003));
#1141=CARTESIAN_POINT('',(-0.143,0.,0.003));
#1142=CARTESIAN_POINT('',(-0.143,-0.08525,0.003));
#1143=CARTESIAN_POINT('',(-0.143,-0.08525,0.003));
#1144=CARTESIAN_POINT('',(-0.143,0.,0.003));
#1145=CARTESIAN_POINT('',(-0.1355,-0.08525,0.003));
#1146=CARTESIAN_POINT('',(-0.1355,-0.09275,0.003));
#1147=CARTESIAN_POINT('',(-0.1355,-0.09275,0.003));
#1148=CARTESIAN_POINT('',(-0.1355,-0.08525,0.003));
#1149=CARTESIAN_POINT('',(-0.138,-0.088,0.003));
#1150=CARTESIAN_POINT('',(-0.138,-0.088,0.002));
#1151=CARTESIAN_POINT('',(-0.1364,-0.088,0.002));
#1152=CARTESIAN_POINT('',(-0.138,-0.088,0.003));
#1153=CARTESIAN_POINT('',(-0.1364,-0.088,0.003));
#1154=CARTESIAN_POINT('',(-0.12675,-0.09275,0.003));
#1155=CARTESIAN_POINT('',(-0.12675,-0.09275,0.003));
#1156=CARTESIAN_POINT('',(-0.138,0.088,0.003));
#1157=CARTESIAN_POINT('',(-0.138,0.088,0.002));
#1158=CARTESIAN_POINT('',(-0.1364,0.088,0.002));
#1159=CARTESIAN_POINT('',(-0.138,0.088,0.003));
#1160=CARTESIAN_POINT('',(-0.1364,0.088,0.003));
#1161=CARTESIAN_POINT('',(0.,2.77555756156289E-17,0.003));
#1162=CARTESIAN_POINT('',(-0.138,-0.088,0.));
#1163=CARTESIAN_POINT('',(-0.138,0.088,0.));
#1164=MECHANICAL_DESIGN_GEOMETRIC_PRESENTATION_REPRESENTATION('',(#691),
#1165);
#1165=(
GEOMETRIC_REPRESENTATION_CONTEXT(3)
GLOBAL_UNCERTAINTY_ASSIGNED_CONTEXT((#1166))
GLOBAL_UNIT_ASSIGNED_CONTEXT((#1169,#1168,#1167))
REPRESENTATION_CONTEXT('left','TOP_LEVEL_ASSEMBLY_PART')
);
#1166=UNCERTAINTY_MEASURE_WITH_UNIT(LENGTH_MEASURE(1.E-8),#1169,
'DISTANCE_ACCURACY_VALUE','Maximum Tolerance applied to model');
#1167=(
NAMED_UNIT(*)
SI_UNIT($,.STERADIAN.)
SOLID_ANGLE_UNIT()
);
#1168=(
NAMED_UNIT(*)
PLANE_ANGLE_UNIT()
SI_UNIT($,.RADIAN.)
);
#1169=(
LENGTH_UNIT()
NAMED_UNIT(*)
SI_UNIT($,.METRE.)
);
#1170=PRODUCT_DEFINITION_SHAPE('','',#1171);
#1171=PRODUCT_DEFINITION('','',#1173,#1172);
#1172=PRODUCT_DEFINITION_CONTEXT('',#1179,'design');
#1173=PRODUCT_DEFINITION_FORMATION_WITH_SPECIFIED_SOURCE('','',#1175,
 .NOT_KNOWN.);
#1174=PRODUCT_RELATED_PRODUCT_CATEGORY('','',(#1175));
#1175=PRODUCT('left','left','left',(#1177));
#1176=PRODUCT_CATEGORY('','');
#1177=PRODUCT_CONTEXT('',#1179,'mechanical');
#1178=APPLICATION_PROTOCOL_DEFINITION('international standard',
'ap242_managed_model_based_3d_engineering',2020,#1179);
#1179=APPLICATION_CONTEXT('managed model based 3d engineering');
ENDSEC;
END-ISO-10303-21;
