ISO-10303-21;
HEADER;
/* Generated by software containing ST-Developer
 * from STEP Tools, Inc. (www.steptools.com) 
 */
/* OPTION: using custom renumber hook */

FILE_DESCRIPTION(
/* description */ ('STEP AP242 Edition 2',
'CAx-IF Rec.Pracs.---Representation and Presentation of Product Manufa
cturing Information (PMI)---4.0---2014-10-13',
'CAx-IF Rec.Pracs.---3D Tessellated Geometry---0.4---2014-09-14','2;1',
'CAx-IF Rec.Pracs.---User Defined Attributes---1.5---2016-08-15'),
/* implementation_level */ '2;1');

FILE_NAME(
/* name */ 'Sennheiser EM 10 - left',
/* time_stamp */ '2026-09-05T13:56:26Z',
/* author */ (''),
/* organization */ (''),
/* preprocessor_version */ 'ST-DEVELOPER v20',
/* originating_system */ 'ONSHAPE BY PTC INC, 1.220',
/* authorisation */ '  ');

FILE_SCHEMA (('AP242_MANAGED_MODEL_BASED_3D_ENGINEERING_MIM_LF { 1 0 10303 442 3 1 4 }'));
ENDSEC;

DATA;
#10=SHAPE_REPRESENTATION_RELATIONSHIP('','',#419,#11);
#11=ADVANCED_BREP_SHAPE_REPRESENTATION('',(#417),#691);
#12=CONICAL_SURFACE('',#459,0.0036,0.785398163397449);
#13=CONICAL_SURFACE('',#460,0.0036,0.785398163397449);
#14=PLANE('',#424);
#15=PLANE('',#425);
#16=PLANE('',#426);
#17=PLANE('',#430);
#18=PLANE('',#434);
#19=PLANE('',#435);
#20=PLANE('',#436);
#21=PLANE('',#440);
#22=PLANE('',#447);
#23=PLANE('',#448);
#24=PLANE('',#454);
#25=PLANE('',#458);
#26=LINE('',#582,#60);
#27=LINE('',#586,#61);
#28=LINE('',#588,#62);
#29=LINE('',#590,#63);
#30=LINE('',#592,#64);
#31=LINE('',#594,#65);
#32=LINE('',#596,#66);
#33=LINE('',#598,#67);
#34=LINE('',#600,#68);
#35=LINE('',#602,#69);
#36=LINE('',#604,#70);
#37=LINE('',#607,#71);
#38=LINE('',#609,#72);
#39=LINE('',#610,#73);
#40=LINE('',#612,#74);
#41=LINE('',#616,#75);
#42=LINE('',#620,#76);
#43=LINE('',#622,#77);
#44=LINE('',#624,#78);
#45=LINE('',#628,#79);
#46=LINE('',#632,#80);
#47=LINE('',#634,#81);
#48=LINE('',#636,#82);
#49=LINE('',#638,#83);
#50=LINE('',#640,#84);
#51=LINE('',#642,#85);
#52=LINE('',#644,#86);
#53=LINE('',#646,#87);
#54=LINE('',#648,#88);
#55=LINE('',#652,#89);
#56=LINE('',#656,#90);
#57=LINE('',#657,#91);
#58=LINE('',#674,#92);
#59=LINE('',#681,#93);
#60=VECTOR('',#467,1.);
#61=VECTOR('',#470,1.);
#62=VECTOR('',#473,1.);
#63=VECTOR('',#474,1.);
#64=VECTOR('',#475,1.);
#65=VECTOR('',#476,1.);
#66=VECTOR('',#477,1.);
#67=VECTOR('',#480,1.);
#68=VECTOR('',#481,1.);
#69=VECTOR('',#482,1.);
#70=VECTOR('',#485,1.);
#71=VECTOR('',#486,1.);
#72=VECTOR('',#487,1.);
#73=VECTOR('',#488,1.);
#74=VECTOR('',#489,1.);
#75=VECTOR('',#494,1.);
#76=VECTOR('',#499,1.);
#77=VECTOR('',#500,1.);
#78=VECTOR('',#501,1.);
#79=VECTOR('',#506,1.);
#80=VECTOR('',#511,1.);
#81=VECTOR('',#512,1.);
#82=VECTOR('',#513,1.);
#83=VECTOR('',#516,1.);
#84=VECTOR('',#517,1.);
#85=VECTOR('',#518,1.);
#86=VECTOR('',#521,1.);
#87=VECTOR('',#522,1.);
#88=VECTOR('',#523,1.);
#89=VECTOR('',#528,1.);
#90=VECTOR('',#533,1.);
#91=VECTOR('',#534,1.);
#92=VECTOR('',#555,1.);
#93=VECTOR('',#564,1.);
#94=ORIENTED_EDGE('',*,*,#198,.T.);
#95=ORIENTED_EDGE('',*,*,#199,.F.);
#96=ORIENTED_EDGE('',*,*,#200,.F.);
#97=ORIENTED_EDGE('',*,*,#201,.T.);
#98=ORIENTED_EDGE('',*,*,#202,.T.);
#99=ORIENTED_EDGE('',*,*,#203,.F.);
#100=ORIENTED_EDGE('',*,*,#204,.F.);
#101=ORIENTED_EDGE('',*,*,#205,.F.);
#102=ORIENTED_EDGE('',*,*,#206,.F.);
#103=ORIENTED_EDGE('',*,*,#199,.T.);
#104=ORIENTED_EDGE('',*,*,#207,.F.);
#105=ORIENTED_EDGE('',*,*,#208,.F.);
#106=ORIENTED_EDGE('',*,*,#209,.T.);
#107=ORIENTED_EDGE('',*,*,#205,.T.);
#108=ORIENTED_EDGE('',*,*,#210,.F.);
#109=ORIENTED_EDGE('',*,*,#211,.F.);
#110=ORIENTED_EDGE('',*,*,#212,.T.);
#111=ORIENTED_EDGE('',*,*,#208,.T.);
#112=ORIENTED_EDGE('',*,*,#213,.T.);
#113=ORIENTED_EDGE('',*,*,#214,.T.);
#114=ORIENTED_EDGE('',*,*,#215,.T.);
#115=ORIENTED_EDGE('',*,*,#216,.F.);
#116=ORIENTED_EDGE('',*,*,#217,.F.);
#117=ORIENTED_EDGE('',*,*,#211,.T.);
#118=ORIENTED_EDGE('',*,*,#218,.T.);
#119=ORIENTED_EDGE('',*,*,#219,.F.);
#120=ORIENTED_EDGE('',*,*,#220,.F.);
#121=ORIENTED_EDGE('',*,*,#216,.T.);
#122=ORIENTED_EDGE('',*,*,#221,.T.);
#123=ORIENTED_EDGE('',*,*,#222,.F.);
#124=ORIENTED_EDGE('',*,*,#223,.F.);
#125=ORIENTED_EDGE('',*,*,#219,.T.);
#126=ORIENTED_EDGE('',*,*,#224,.T.);
#127=ORIENTED_EDGE('',*,*,#225,.F.);
#128=ORIENTED_EDGE('',*,*,#226,.F.);
#129=ORIENTED_EDGE('',*,*,#222,.T.);
#130=ORIENTED_EDGE('',*,*,#227,.T.);
#131=ORIENTED_EDGE('',*,*,#228,.F.);
#132=ORIENTED_EDGE('',*,*,#229,.F.);
#133=ORIENTED_EDGE('',*,*,#225,.T.);
#134=ORIENTED_EDGE('',*,*,#230,.F.);
#135=ORIENTED_EDGE('',*,*,#231,.F.);
#136=ORIENTED_EDGE('',*,*,#232,.T.);
#137=ORIENTED_EDGE('',*,*,#228,.T.);
#138=ORIENTED_EDGE('',*,*,#233,.T.);
#139=ORIENTED_EDGE('',*,*,#234,.F.);
#140=ORIENTED_EDGE('',*,*,#235,.F.);
#141=ORIENTED_EDGE('',*,*,#231,.T.);
#142=ORIENTED_EDGE('',*,*,#236,.T.);
#143=ORIENTED_EDGE('',*,*,#201,.F.);
#144=ORIENTED_EDGE('',*,*,#237,.F.);
#145=ORIENTED_EDGE('',*,*,#234,.T.);
#146=ORIENTED_EDGE('',*,*,#238,.T.);
#147=ORIENTED_EDGE('',*,*,#239,.F.);
#148=ORIENTED_EDGE('',*,*,#240,.T.);
#149=ORIENTED_EDGE('',*,*,#241,.F.);
#150=ORIENTED_EDGE('',*,*,#238,.F.);
#151=ORIENTED_EDGE('',*,*,#200,.T.);
#152=ORIENTED_EDGE('',*,*,#206,.T.);
#153=ORIENTED_EDGE('',*,*,#209,.F.);
#154=ORIENTED_EDGE('',*,*,#212,.F.);
#155=ORIENTED_EDGE('',*,*,#217,.T.);
#156=ORIENTED_EDGE('',*,*,#220,.T.);
#157=ORIENTED_EDGE('',*,*,#223,.T.);
#158=ORIENTED_EDGE('',*,*,#226,.T.);
#159=ORIENTED_EDGE('',*,*,#229,.T.);
#160=ORIENTED_EDGE('',*,*,#232,.F.);
#161=ORIENTED_EDGE('',*,*,#235,.T.);
#162=ORIENTED_EDGE('',*,*,#237,.T.);
#163=ORIENTED_EDGE('',*,*,#240,.F.);
#164=ORIENTED_EDGE('',*,*,#242,.T.);
#165=ORIENTED_EDGE('',*,*,#243,.T.);
#166=ORIENTED_EDGE('',*,*,#239,.T.);
#167=ORIENTED_EDGE('',*,*,#198,.F.);
#168=ORIENTED_EDGE('',*,*,#236,.F.);
#169=ORIENTED_EDGE('',*,*,#233,.F.);
#170=ORIENTED_EDGE('',*,*,#230,.T.);
#171=ORIENTED_EDGE('',*,*,#227,.F.);
#172=ORIENTED_EDGE('',*,*,#224,.F.);
#173=ORIENTED_EDGE('',*,*,#221,.F.);
#174=ORIENTED_EDGE('',*,*,#218,.F.);
#175=ORIENTED_EDGE('',*,*,#215,.F.);
#176=ORIENTED_EDGE('',*,*,#210,.T.);
#177=ORIENTED_EDGE('',*,*,#244,.T.);
#178=ORIENTED_EDGE('',*,*,#202,.F.);
#179=ORIENTED_EDGE('',*,*,#241,.T.);
#180=ORIENTED_EDGE('',*,*,#245,.T.);
#181=ORIENTED_EDGE('',*,*,#246,.T.);
#182=ORIENTED_EDGE('',*,*,#244,.F.);
#183=ORIENTED_EDGE('',*,*,#214,.F.);
#184=ORIENTED_EDGE('',*,*,#247,.T.);
#185=ORIENTED_EDGE('',*,*,#203,.T.);
#186=ORIENTED_EDGE('',*,*,#248,.T.);
#187=ORIENTED_EDGE('',*,*,#249,.T.);
#188=ORIENTED_EDGE('',*,*,#213,.F.);
#189=ORIENTED_EDGE('',*,*,#207,.T.);
#190=ORIENTED_EDGE('',*,*,#204,.T.);
#191=ORIENTED_EDGE('',*,*,#247,.F.);
#192=ORIENTED_EDGE('',*,*,#246,.F.);
#193=ORIENTED_EDGE('',*,*,#249,.F.);
#194=ORIENTED_EDGE('',*,*,#248,.F.);
#195=ORIENTED_EDGE('',*,*,#242,.F.);
#196=ORIENTED_EDGE('',*,*,#245,.F.);
#197=ORIENTED_EDGE('',*,*,#243,.F.);
#198=EDGE_CURVE('',#250,#251,#288,.T.);
#199=EDGE_CURVE('',#252,#251,#26,.T.);
#200=EDGE_CURVE('',#253,#252,#289,.T.);
#201=EDGE_CURVE('',#253,#250,#27,.T.);
#202=EDGE_CURVE('',#251,#254,#28,.T.);
#203=EDGE_CURVE('',#255,#254,#29,.T.);
#204=EDGE_CURVE('',#256,#255,#30,.T.);
#205=EDGE_CURVE('',#257,#256,#31,.T.);
#206=EDGE_CURVE('',#252,#257,#32,.T.);
#207=EDGE_CURVE('',#258,#256,#33,.T.);
#208=EDGE_CURVE('',#259,#258,#34,.T.);
#209=EDGE_CURVE('',#259,#257,#35,.T.);
#210=EDGE_CURVE('',#260,#261,#36,.T.);
#211=EDGE_CURVE('',#262,#260,#37,.T.);
#212=EDGE_CURVE('',#262,#259,#38,.T.);
#213=EDGE_CURVE('',#258,#263,#39,.T.);
#214=EDGE_CURVE('',#263,#261,#40,.T.);
#215=EDGE_CURVE('',#260,#264,#290,.T.);
#216=EDGE_CURVE('',#265,#264,#41,.T.);
#217=EDGE_CURVE('',#262,#265,#291,.T.);
#218=EDGE_CURVE('',#264,#266,#42,.T.);
#219=EDGE_CURVE('',#267,#266,#43,.T.);
#220=EDGE_CURVE('',#265,#267,#44,.T.);
#221=EDGE_CURVE('',#266,#268,#292,.T.);
#222=EDGE_CURVE('',#269,#268,#45,.T.);
#223=EDGE_CURVE('',#267,#269,#293,.T.);
#224=EDGE_CURVE('',#268,#270,#46,.T.);
#225=EDGE_CURVE('',#271,#270,#47,.T.);
#226=EDGE_CURVE('',#269,#271,#48,.T.);
#227=EDGE_CURVE('',#270,#272,#49,.T.);
#228=EDGE_CURVE('',#273,#272,#50,.T.);
#229=EDGE_CURVE('',#271,#273,#51,.T.);
#230=EDGE_CURVE('',#274,#272,#52,.T.);
#231=EDGE_CURVE('',#275,#274,#53,.T.);
#232=EDGE_CURVE('',#275,#273,#54,.T.);
#233=EDGE_CURVE('',#274,#276,#294,.T.);
#234=EDGE_CURVE('',#277,#276,#55,.T.);
#235=EDGE_CURVE('',#275,#277,#295,.T.);
#236=EDGE_CURVE('',#276,#250,#56,.T.);
#237=EDGE_CURVE('',#277,#253,#57,.T.);
#238=EDGE_CURVE('',#278,#278,#296,.T.);
#239=EDGE_CURVE('',#279,#279,#297,.T.);
#240=EDGE_CURVE('',#280,#280,#298,.T.);
#241=EDGE_CURVE('',#281,#281,#299,.T.);
#242=EDGE_CURVE('',#282,#282,#300,.T.);
#243=EDGE_CURVE('',#283,#283,#301,.T.);
#244=EDGE_CURVE('',#261,#254,#58,.T.);
#245=EDGE_CURVE('',#284,#284,#302,.F.);
#246=EDGE_CURVE('',#285,#285,#303,.T.);
#247=EDGE_CURVE('',#263,#255,#59,.T.);
#248=EDGE_CURVE('',#286,#286,#304,.F.);
#249=EDGE_CURVE('',#287,#287,#305,.T.);
#250=VERTEX_POINT('',#580);
#251=VERTEX_POINT('',#581);
#252=VERTEX_POINT('',#583);
#253=VERTEX_POINT('',#585);
#254=VERTEX_POINT('',#589);
#255=VERTEX_POINT('',#591);
#256=VERTEX_POINT('',#593);
#257=VERTEX_POINT('',#595);
#258=VERTEX_POINT('',#599);
#259=VERTEX_POINT('',#601);
#260=VERTEX_POINT('',#605);
#261=VERTEX_POINT('',#606);
#262=VERTEX_POINT('',#608);
#263=VERTEX_POINT('',#611);
#264=VERTEX_POINT('',#615);
#265=VERTEX_POINT('',#617);
#266=VERTEX_POINT('',#621);
#267=VERTEX_POINT('',#623);
#268=VERTEX_POINT('',#627);
#269=VERTEX_POINT('',#629);
#270=VERTEX_POINT('',#633);
#271=VERTEX_POINT('',#635);
#272=VERTEX_POINT('',#639);
#273=VERTEX_POINT('',#641);
#274=VERTEX_POINT('',#645);
#275=VERTEX_POINT('',#647);
#276=VERTEX_POINT('',#651);
#277=VERTEX_POINT('',#653);
#278=VERTEX_POINT('',#660);
#279=VERTEX_POINT('',#662);
#280=VERTEX_POINT('',#665);
#281=VERTEX_POINT('',#667);
#282=VERTEX_POINT('',#671);
#283=VERTEX_POINT('',#673);
#284=VERTEX_POINT('',#677);
#285=VERTEX_POINT('',#679);
#286=VERTEX_POINT('',#684);
#287=VERTEX_POINT('',#686);
#288=CIRCLE('',#422,0.0015);
#289=CIRCLE('',#423,0.0015);
#290=CIRCLE('',#428,0.0015);
#291=CIRCLE('',#429,0.0015);
#292=CIRCLE('',#432,0.0015);
#293=CIRCLE('',#433,0.0015);
#294=CIRCLE('',#438,0.0015);
#295=CIRCLE('',#439,0.0015);
#296=CIRCLE('',#442,0.0026);
#297=CIRCLE('',#443,0.0026);
#298=CIRCLE('',#445,0.0026);
#299=CIRCLE('',#446,0.0026);
#300=CIRCLE('',#449,0.0036);
#301=CIRCLE('',#450,0.0036);
#302=CIRCLE('',#452,0.0016);
#303=CIRCLE('',#453,0.0016);
#304=CIRCLE('',#456,0.0016);
#305=CIRCLE('',#457,0.0016);
#306=EDGE_LOOP('',(#94,#95,#96,#97));
#307=EDGE_LOOP('',(#98,#99,#100,#101,#102,#103));
#308=EDGE_LOOP('',(#104,#105,#106,#107));
#309=EDGE_LOOP('',(#108,#109,#110,#111,#112,#113));
#310=EDGE_LOOP('',(#114,#115,#116,#117));
#311=EDGE_LOOP('',(#118,#119,#120,#121));
#312=EDGE_LOOP('',(#122,#123,#124,#125));
#313=EDGE_LOOP('',(#126,#127,#128,#129));
#314=EDGE_LOOP('',(#130,#131,#132,#133));
#315=EDGE_LOOP('',(#134,#135,#136,#137));
#316=EDGE_LOOP('',(#138,#139,#140,#141));
#317=EDGE_LOOP('',(#142,#143,#144,#145));
#318=EDGE_LOOP('',(#146));
#319=EDGE_LOOP('',(#147));
#320=EDGE_LOOP('',(#148));
#321=EDGE_LOOP('',(#149));
#322=EDGE_LOOP('',(#150));
#323=EDGE_LOOP('',(#151,#152,#153,#154,#155,#156,#157,#158,#159,#160,#161,
#162));
#324=EDGE_LOOP('',(#163));
#325=EDGE_LOOP('',(#164));
#326=EDGE_LOOP('',(#165));
#327=EDGE_LOOP('',(#166));
#328=EDGE_LOOP('',(#167,#168,#169,#170,#171,#172,#173,#174,#175,#176,#177,
#178));
#329=EDGE_LOOP('',(#179));
#330=EDGE_LOOP('',(#180));
#331=EDGE_LOOP('',(#181));
#332=EDGE_LOOP('',(#182,#183,#184,#185));
#333=EDGE_LOOP('',(#186));
#334=EDGE_LOOP('',(#187));
#335=EDGE_LOOP('',(#188,#189,#190,#191));
#336=EDGE_LOOP('',(#192));
#337=EDGE_LOOP('',(#193));
#338=EDGE_LOOP('',(#194));
#339=EDGE_LOOP('',(#195));
#340=EDGE_LOOP('',(#196));
#341=EDGE_LOOP('',(#197));
#342=FACE_BOUND('',#306,.T.);
#343=FACE_BOUND('',#307,.T.);
#344=FACE_BOUND('',#308,.T.);
#345=FACE_BOUND('',#309,.T.);
#346=FACE_BOUND('',#310,.T.);
#347=FACE_BOUND('',#311,.T.);
#348=FACE_BOUND('',#312,.T.);
#349=FACE_BOUND('',#313,.T.);
#350=FACE_BOUND('',#314,.T.);
#351=FACE_BOUND('',#315,.T.);
#352=FACE_BOUND('',#316,.T.);
#353=FACE_BOUND('',#317,.T.);
#354=FACE_BOUND('',#318,.T.);
#355=FACE_BOUND('',#319,.T.);
#356=FACE_BOUND('',#320,.T.);
#357=FACE_BOUND('',#321,.T.);
#358=FACE_BOUND('',#322,.T.);
#359=FACE_BOUND('',#323,.T.);
#360=FACE_BOUND('',#324,.T.);
#361=FACE_BOUND('',#325,.T.);
#362=FACE_BOUND('',#326,.T.);
#363=FACE_BOUND('',#327,.T.);
#364=FACE_BOUND('',#328,.T.);
#365=FACE_BOUND('',#329,.T.);
#366=FACE_BOUND('',#330,.T.);
#367=FACE_BOUND('',#331,.T.);
#368=FACE_BOUND('',#332,.T.);
#369=FACE_BOUND('',#333,.T.);
#370=FACE_BOUND('',#334,.T.);
#371=FACE_BOUND('',#335,.T.);
#372=FACE_BOUND('',#336,.T.);
#373=FACE_BOUND('',#337,.T.);
#374=FACE_BOUND('',#338,.T.);
#375=FACE_BOUND('',#339,.T.);
#376=FACE_BOUND('',#340,.T.);
#377=FACE_BOUND('',#341,.T.);
#378=CYLINDRICAL_SURFACE('',#421,0.0015);
#379=CYLINDRICAL_SURFACE('',#427,0.0015);
#380=CYLINDRICAL_SURFACE('',#431,0.0015);
#381=CYLINDRICAL_SURFACE('',#437,0.0015);
#382=CYLINDRICAL_SURFACE('',#441,0.0026);
#383=CYLINDRICAL_SURFACE('',#444,0.0026);
#384=CYLINDRICAL_SURFACE('',#451,0.0016);
#385=CYLINDRICAL_SURFACE('',#455,0.0016);
#386=ADVANCED_FACE('',(#342),#378,.T.);
#387=ADVANCED_FACE('',(#343),#14,.F.);
#388=ADVANCED_FACE('',(#344),#15,.T.);
#389=ADVANCED_FACE('',(#345),#16,.T.);
#390=ADVANCED_FACE('',(#346),#379,.T.);
#391=ADVANCED_FACE('',(#347),#17,.F.);
#392=ADVANCED_FACE('',(#348),#380,.T.);
#393=ADVANCED_FACE('',(#349),#18,.F.);
#394=ADVANCED_FACE('',(#350),#19,.F.);
#395=ADVANCED_FACE('',(#351),#20,.T.);
#396=ADVANCED_FACE('',(#352),#381,.T.);
#397=ADVANCED_FACE('',(#353),#21,.F.);
#398=ADVANCED_FACE('',(#354,#355),#382,.F.);
#399=ADVANCED_FACE('',(#356,#357),#383,.F.);
#400=ADVANCED_FACE('',(#358,#359,#360),#22,.T.);
#401=ADVANCED_FACE('',(#361,#362,#363,#364,#365),#23,.F.);
#402=ADVANCED_FACE('',(#366,#367),#384,.F.);
#403=ADVANCED_FACE('',(#368),#24,.T.);
#404=ADVANCED_FACE('',(#369,#370),#385,.F.);
#405=ADVANCED_FACE('',(#371,#372,#373),#25,.T.);
#406=ADVANCED_FACE('',(#374,#375),#12,.F.);
#407=ADVANCED_FACE('',(#376,#377),#13,.F.);
#408=CLOSED_SHELL('',(#386,#387,#388,#389,#390,#391,#392,#393,#394,#395,
#396,#397,#398,#399,#400,#401,#402,#403,#404,#405,#406,#407));
#409=STYLED_ITEM('',(#410),#417);
#410=PRESENTATION_STYLE_ASSIGNMENT((#411));
#411=SURFACE_STYLE_USAGE(.BOTH.,#412);
#412=SURFACE_SIDE_STYLE('',(#413));
#413=SURFACE_STYLE_FILL_AREA(#414);
#414=FILL_AREA_STYLE('',(#415));
#415=FILL_AREA_STYLE_COLOUR('',#416);
#416=COLOUR_RGB('',0.615686274509804,0.811764705882353,0.929411764705882);
#417=MANIFOLD_SOLID_BREP('left',#408);
#418=SHAPE_DEFINITION_REPRESENTATION(#696,#419);
#419=SHAPE_REPRESENTATION('left',(#420),#691);
#420=AXIS2_PLACEMENT_3D('',#577,#461,#462);
#421=AXIS2_PLACEMENT_3D('',#578,#463,#464);
#422=AXIS2_PLACEMENT_3D('',#579,#465,#466);
#423=AXIS2_PLACEMENT_3D('',#584,#468,#469);
#424=AXIS2_PLACEMENT_3D('',#587,#471,#472);
#425=AXIS2_PLACEMENT_3D('',#597,#478,#479);
#426=AXIS2_PLACEMENT_3D('',#603,#483,#484);
#427=AXIS2_PLACEMENT_3D('',#613,#490,#491);
#428=AXIS2_PLACEMENT_3D('',#614,#492,#493);
#429=AXIS2_PLACEMENT_3D('',#618,#495,#496);
#430=AXIS2_PLACEMENT_3D('',#619,#497,#498);
#431=AXIS2_PLACEMENT_3D('',#625,#502,#503);
#432=AXIS2_PLACEMENT_3D('',#626,#504,#505);
#433=AXIS2_PLACEMENT_3D('',#630,#507,#508);
#434=AXIS2_PLACEMENT_3D('',#631,#509,#510);
#435=AXIS2_PLACEMENT_3D('',#637,#514,#515);
#436=AXIS2_PLACEMENT_3D('',#643,#519,#520);
#437=AXIS2_PLACEMENT_3D('',#649,#524,#525);
#438=AXIS2_PLACEMENT_3D('',#650,#526,#527);
#439=AXIS2_PLACEMENT_3D('',#654,#529,#530);
#440=AXIS2_PLACEMENT_3D('',#655,#531,#532);
#441=AXIS2_PLACEMENT_3D('',#658,#535,#536);
#442=AXIS2_PLACEMENT_3D('',#659,#537,#538);
#443=AXIS2_PLACEMENT_3D('',#661,#539,#540);
#444=AXIS2_PLACEMENT_3D('',#663,#541,#542);
#445=AXIS2_PLACEMENT_3D('',#664,#543,#544);
#446=AXIS2_PLACEMENT_3D('',#666,#545,#546);
#447=AXIS2_PLACEMENT_3D('',#668,#547,#548);
#448=AXIS2_PLACEMENT_3D('',#669,#549,#550);
#449=AXIS2_PLACEMENT_3D('',#670,#551,#552);
#450=AXIS2_PLACEMENT_3D('',#672,#553,#554);
#451=AXIS2_PLACEMENT_3D('',#675,#556,#557);
#452=AXIS2_PLACEMENT_3D('',#676,#558,#559);
#453=AXIS2_PLACEMENT_3D('',#678,#560,#561);
#454=AXIS2_PLACEMENT_3D('',#680,#562,#563);
#455=AXIS2_PLACEMENT_3D('',#682,#565,#566);
#456=AXIS2_PLACEMENT_3D('',#683,#567,#568);
#457=AXIS2_PLACEMENT_3D('',#685,#569,#570);
#458=AXIS2_PLACEMENT_3D('',#687,#571,#572);
#459=AXIS2_PLACEMENT_3D('',#688,#573,#574);
#460=AXIS2_PLACEMENT_3D('',#689,#575,#576);
#461=DIRECTION('',(0.,0.,1.));
#462=DIRECTION('',(1.,0.,0.));
#463=DIRECTION('',(0.,0.,-1.));
#464=DIRECTION('',(-1.,0.,0.));
#465=DIRECTION('',(0.,0.,1.));
#466=DIRECTION('',(1.,0.,0.));
#467=DIRECTION('',(0.,0.,-1.));
#468=DIRECTION('',(0.,0.,1.));
#469=DIRECTION('',(1.,0.,0.));
#470=DIRECTION('',(0.,0.,-1.));
#471=DIRECTION('',(0.,1.,0.));
#472=DIRECTION('',(0.,0.,1.));
#473=DIRECTION('',(1.,0.,0.));
#474=DIRECTION('',(0.,0.,-1.));
#475=DIRECTION('',(1.,0.,0.));
#476=DIRECTION('',(0.,0.,-1.));
#477=DIRECTION('',(1.,0.,0.));
#478=DIRECTION('',(1.,0.,0.));
#479=DIRECTION('',(0.,0.,-1.));
#480=DIRECTION('',(0.,-1.,0.));
#481=DIRECTION('',(0.,0.,-1.));
#482=DIRECTION('',(0.,-1.,0.));
#483=DIRECTION('',(0.,1.,0.));
#484=DIRECTION('',(0.,0.,1.));
#485=DIRECTION('',(1.,0.,0.));
#486=DIRECTION('',(0.,0.,-1.));
#487=DIRECTION('',(1.,0.,0.));
#488=DIRECTION('',(1.,0.,0.));
#489=DIRECTION('',(0.,0.,-1.));
#490=DIRECTION('',(0.,0.,-1.));
#491=DIRECTION('',(-1.,0.,0.));
#492=DIRECTION('',(0.,0.,1.));
#493=DIRECTION('',(1.,0.,0.));
#494=DIRECTION('',(0.,0.,-1.));
#495=DIRECTION('',(0.,0.,1.));
#496=DIRECTION('',(1.,0.,0.));
#497=DIRECTION('',(1.,0.,0.));
#498=DIRECTION('',(0.,0.,-1.));
#499=DIRECTION('',(0.,-1.,0.));
#500=DIRECTION('',(0.,0.,-1.));
#501=DIRECTION('',(0.,-1.,0.));
#502=DIRECTION('',(0.,0.,-1.));
#503=DIRECTION('',(-1.,0.,0.));
#504=DIRECTION('',(0.,0.,1.));
#505=DIRECTION('',(1.,0.,0.));
#506=DIRECTION('',(0.,0.,-1.));
#507=DIRECTION('',(0.,0.,1.));
#508=DIRECTION('',(1.,0.,0.));
#509=DIRECTION('',(0.,1.,0.));
#510=DIRECTION('',(0.,0.,1.));
#511=DIRECTION('',(1.,0.,0.));
#512=DIRECTION('',(0.,0.,-1.));
#513=DIRECTION('',(1.,0.,0.));
#514=DIRECTION('',(1.,0.,0.));
#515=DIRECTION('',(0.,0.,-1.));
#516=DIRECTION('',(0.,-1.,0.));
#517=DIRECTION('',(0.,0.,-1.));
#518=DIRECTION('',(0.,-1.,0.));
#519=DIRECTION('',(0.,1.,0.));
#520=DIRECTION('',(0.,0.,1.));
#521=DIRECTION('',(1.,0.,0.));
#522=DIRECTION('',(0.,0.,-1.));
#523=DIRECTION('',(1.,0.,0.));
#524=DIRECTION('',(0.,0.,-1.));
#525=DIRECTION('',(-1.,0.,0.));
#526=DIRECTION('',(0.,0.,1.));
#527=DIRECTION('',(1.,0.,0.));
#528=DIRECTION('',(0.,0.,-1.));
#529=DIRECTION('',(0.,0.,1.));
#530=DIRECTION('',(1.,0.,0.));
#531=DIRECTION('',(1.,0.,0.));
#532=DIRECTION('',(0.,0.,-1.));
#533=DIRECTION('',(0.,-1.,0.));
#534=DIRECTION('',(0.,-1.,0.));
#535=DIRECTION('',(0.,0.,-1.));
#536=DIRECTION('',(-1.,0.,0.));
#537=DIRECTION('',(0.,0.,1.));
#538=DIRECTION('',(1.,0.,0.));
#539=DIRECTION('',(0.,0.,1.));
#540=DIRECTION('',(1.,0.,0.));
#541=DIRECTION('',(0.,0.,-1.));
#542=DIRECTION('',(-1.,0.,0.));
#543=DIRECTION('',(0.,0.,1.));
#544=DIRECTION('',(1.,0.,0.));
#545=DIRECTION('',(0.,0.,1.));
#546=DIRECTION('',(1.,0.,0.));
#547=DIRECTION('',(0.,0.,1.));
#548=DIRECTION('',(1.,0.,0.));
#549=DIRECTION('',(0.,0.,1.));
#550=DIRECTION('',(1.,0.,0.));
#551=DIRECTION('',(0.,0.,1.));
#552=DIRECTION('',(1.,0.,0.));
#553=DIRECTION('',(0.,0.,1.));
#554=DIRECTION('',(1.,0.,0.));
#555=DIRECTION('',(2.47817639425258E-16,-1.,0.));
#556=DIRECTION('',(0.,0.,-1.));
#557=DIRECTION('',(-1.,0.,0.));
#558=DIRECTION('',(0.,0.,1.));
#559=DIRECTION('',(1.,0.,0.));
#560=DIRECTION('',(0.,0.,1.));
#561=DIRECTION('',(1.,0.,0.));
#562=DIRECTION('',(1.,2.47817639425258E-16,0.));
#563=DIRECTION('',(-2.47817639425258E-16,1.,0.));
#564=DIRECTION('',(2.47817639425258E-16,-1.,0.));
#565=DIRECTION('',(0.,0.,-1.));
#566=DIRECTION('',(-1.,0.,0.));
#567=DIRECTION('',(0.,0.,1.));
#568=DIRECTION('',(1.,0.,0.));
#569=DIRECTION('',(0.,0.,1.));
#570=DIRECTION('',(1.,0.,0.));
#571=DIRECTION('',(0.,0.,1.));
#572=DIRECTION('',(1.,0.,0.));
#573=DIRECTION('',(0.,0.,-1.));
#574=DIRECTION('',(-1.,0.,0.));
#575=DIRECTION('',(0.,0.,-1.));
#576=DIRECTION('',(-1.,0.,0.));
#577=CARTESIAN_POINT('',(0.,0.,0.));
#578=CARTESIAN_POINT('',(-0.1105,-0.0545,0.005));
#579=CARTESIAN_POINT('',(-0.1105,-0.0545,0.));
#580=CARTESIAN_POINT('',(-0.112,-0.0545,0.));
#581=CARTESIAN_POINT('',(-0.1105,-0.056,0.));
#582=CARTESIAN_POINT('',(-0.1105,-0.056,0.005));
#583=CARTESIAN_POINT('',(-0.1105,-0.056,0.005));
#584=CARTESIAN_POINT('',(-0.1105,-0.0545,0.005));
#585=CARTESIAN_POINT('',(-0.112,-0.0545,0.005));
#586=CARTESIAN_POINT('',(-0.112,-0.0545,0.005));
#587=CARTESIAN_POINT('',(-0.101,-0.056,0.005));
#588=CARTESIAN_POINT('',(-0.101,-0.056,0.));
#589=CARTESIAN_POINT('',(-0.082,-0.056,0.));
#590=CARTESIAN_POINT('',(-0.082,-0.056,0.003));
#591=CARTESIAN_POINT('',(-0.082,-0.056,0.003));
#592=CARTESIAN_POINT('',(-0.091,-0.056,0.003));
#593=CARTESIAN_POINT('',(-0.1,-0.056,0.003));
#594=CARTESIAN_POINT('',(-0.1,-0.056,0.005));
#595=CARTESIAN_POINT('',(-0.1,-0.056,0.005));
#596=CARTESIAN_POINT('',(-0.101,-0.056,0.005));
#597=CARTESIAN_POINT('',(-0.1,0.05,0.005));
#598=CARTESIAN_POINT('',(-0.1,0.05,0.003));
#599=CARTESIAN_POINT('',(-0.1,0.056,0.003));
#600=CARTESIAN_POINT('',(-0.1,0.056,0.005));
#601=CARTESIAN_POINT('',(-0.1,0.056,0.005));
#602=CARTESIAN_POINT('',(-0.1,0.05,0.005));
#603=CARTESIAN_POINT('',(-0.101,0.056,0.005));
#604=CARTESIAN_POINT('',(-0.101,0.056,0.));
#605=CARTESIAN_POINT('',(-0.1105,0.056,0.));
#606=CARTESIAN_POINT('',(-0.082,0.056,0.));
#607=CARTESIAN_POINT('',(-0.1105,0.056,0.005));
#608=CARTESIAN_POINT('',(-0.1105,0.056,0.005));
#609=CARTESIAN_POINT('',(-0.101,0.056,0.005));
#610=CARTESIAN_POINT('',(-0.091,0.056,0.003));
#611=CARTESIAN_POINT('',(-0.082,0.056,0.003));
#612=CARTESIAN_POINT('',(-0.082,0.056,0.003));
#613=CARTESIAN_POINT('',(-0.1105,0.0545,0.005));
#614=CARTESIAN_POINT('',(-0.1105,0.0545,0.));
#615=CARTESIAN_POINT('',(-0.112,0.0545,0.));
#616=CARTESIAN_POINT('',(-0.112,0.0545,0.005));
#617=CARTESIAN_POINT('',(-0.112,0.0545,0.005));
#618=CARTESIAN_POINT('',(-0.1105,0.0545,0.005));
#619=CARTESIAN_POINT('',(-0.112,0.05,0.005));
#620=CARTESIAN_POINT('',(-0.112,0.05,0.));
#621=CARTESIAN_POINT('',(-0.112,0.0455,0.));
#622=CARTESIAN_POINT('',(-0.112,0.0455,0.005));
#623=CARTESIAN_POINT('',(-0.112,0.0455,0.005));
#624=CARTESIAN_POINT('',(-0.112,0.05,0.005));
#625=CARTESIAN_POINT('',(-0.1105,0.0455,0.005));
#626=CARTESIAN_POINT('',(-0.1105,0.0455,0.));
#627=CARTESIAN_POINT('',(-0.1105,0.044,0.));
#628=CARTESIAN_POINT('',(-0.1105,0.044,0.005));
#629=CARTESIAN_POINT('',(-0.1105,0.044,0.005));
#630=CARTESIAN_POINT('',(-0.1105,0.0455,0.005));
#631=CARTESIAN_POINT('',(-0.10625,0.044,0.005));
#632=CARTESIAN_POINT('',(-0.10625,0.044,0.));
#633=CARTESIAN_POINT('',(-0.102,0.044,0.));
#634=CARTESIAN_POINT('',(-0.102,0.044,0.005));
#635=CARTESIAN_POINT('',(-0.102,0.044,0.005));
#636=CARTESIAN_POINT('',(-0.10625,0.044,0.005));
#637=CARTESIAN_POINT('',(-0.102,-2.08166817117217E-17,0.005));
#638=CARTESIAN_POINT('',(-0.102,-2.08166817117217E-17,0.));
#639=CARTESIAN_POINT('',(-0.102,-0.044,0.));
#640=CARTESIAN_POINT('',(-0.102,-0.044,0.005));
#641=CARTESIAN_POINT('',(-0.102,-0.044,0.005));
#642=CARTESIAN_POINT('',(-0.102,-2.08166817117217E-17,0.005));
#643=CARTESIAN_POINT('',(-0.10625,-0.044,0.005));
#644=CARTESIAN_POINT('',(-0.10625,-0.044,0.));
#645=CARTESIAN_POINT('',(-0.1105,-0.044,0.));
#646=CARTESIAN_POINT('',(-0.1105,-0.044,0.005));
#647=CARTESIAN_POINT('',(-0.1105,-0.044,0.005));
#648=CARTESIAN_POINT('',(-0.10625,-0.044,0.005));
#649=CARTESIAN_POINT('',(-0.1105,-0.0455,0.005));
#650=CARTESIAN_POINT('',(-0.1105,-0.0455,0.));
#651=CARTESIAN_POINT('',(-0.112,-0.0455,0.));
#652=CARTESIAN_POINT('',(-0.112,-0.0455,0.005));
#653=CARTESIAN_POINT('',(-0.112,-0.0455,0.005));
#654=CARTESIAN_POINT('',(-0.1105,-0.0455,0.005));
#655=CARTESIAN_POINT('',(-0.112,-0.05,0.005));
#656=CARTESIAN_POINT('',(-0.112,-0.05,0.));
#657=CARTESIAN_POINT('',(-0.112,-0.05,0.005));
#658=CARTESIAN_POINT('',(-0.106,-0.05,0.005));
#659=CARTESIAN_POINT('',(-0.106,-0.05,0.005));
#660=CARTESIAN_POINT('',(-0.1034,-0.05,0.005));
#661=CARTESIAN_POINT('',(-0.106,-0.05,0.));
#662=CARTESIAN_POINT('',(-0.1034,-0.05,0.));
#663=CARTESIAN_POINT('',(-0.106,0.05,0.005));
#664=CARTESIAN_POINT('',(-0.106,0.05,0.005));
#665=CARTESIAN_POINT('',(-0.1034,0.05,0.005));
#666=CARTESIAN_POINT('',(-0.106,0.05,0.));
#667=CARTESIAN_POINT('',(-0.1034,0.05,0.));
#668=CARTESIAN_POINT('',(1.38777878078145E-17,-2.08166817117217E-17,0.005));
#669=CARTESIAN_POINT('',(1.38777878078145E-17,-2.08166817117217E-17,0.));
#670=CARTESIAN_POINT('',(-0.09,-0.0235,0.));
#671=CARTESIAN_POINT('',(-0.0864,-0.0235,0.));
#672=CARTESIAN_POINT('',(-0.09,0.0375,0.));
#673=CARTESIAN_POINT('',(-0.0864,0.0375,0.));
#674=CARTESIAN_POINT('',(-0.082,0.,0.));
#675=CARTESIAN_POINT('',(-0.09,0.0375,0.003));
#676=CARTESIAN_POINT('',(-0.09,0.0375,0.002));
#677=CARTESIAN_POINT('',(-0.0884,0.0375,0.002));
#678=CARTESIAN_POINT('',(-0.09,0.0375,0.003));
#679=CARTESIAN_POINT('',(-0.0884,0.0375,0.003));
#680=CARTESIAN_POINT('',(-0.082,0.,0.003));
#681=CARTESIAN_POINT('',(-0.082,0.,0.003));
#682=CARTESIAN_POINT('',(-0.09,-0.0235,0.003));
#683=CARTESIAN_POINT('',(-0.09,-0.0235,0.002));
#684=CARTESIAN_POINT('',(-0.0884,-0.0235,0.002));
#685=CARTESIAN_POINT('',(-0.09,-0.0235,0.003));
#686=CARTESIAN_POINT('',(-0.0884,-0.0235,0.003));
#687=CARTESIAN_POINT('',(1.38777878078145E-17,-2.08166817117217E-17,0.003));
#688=CARTESIAN_POINT('',(-0.09,-0.0235,0.));
#689=CARTESIAN_POINT('',(-0.09,0.0375,0.));
#690=MECHANICAL_DESIGN_GEOMETRIC_PRESENTATION_REPRESENTATION('',(#409),
#691);
#691=(
GEOMETRIC_REPRESENTATION_CONTEXT(3)
GLOBAL_UNCERTAINTY_ASSIGNED_CONTEXT((#692))
GLOBAL_UNIT_ASSIGNED_CONTEXT((#695,#694,#693))
REPRESENTATION_CONTEXT('left','TOP_LEVEL_ASSEMBLY_PART')
);
#692=UNCERTAINTY_MEASURE_WITH_UNIT(LENGTH_MEASURE(1.E-8),#695,
'DISTANCE_ACCURACY_VALUE','Maximum Tolerance applied to model');
#693=(
NAMED_UNIT(*)
SI_UNIT($,.STERADIAN.)
SOLID_ANGLE_UNIT()
);
#694=(
NAMED_UNIT(*)
PLANE_ANGLE_UNIT()
SI_UNIT($,.RADIAN.)
);
#695=(
LENGTH_UNIT()
NAMED_UNIT(*)
SI_UNIT($,.METRE.)
);
#696=PRODUCT_DEFINITION_SHAPE('','',#697);
#697=PRODUCT_DEFINITION('','',#699,#698);
#698=PRODUCT_DEFINITION_CONTEXT('',#705,'design');
#699=PRODUCT_DEFINITION_FORMATION_WITH_SPECIFIED_SOURCE('','',#701,
 .NOT_KNOWN.);
#700=PRODUCT_RELATED_PRODUCT_CATEGORY('','',(#701));
#701=PRODUCT('left','left','left',(#703));
#702=PRODUCT_CATEGORY('','');
#703=PRODUCT_CONTEXT('',#705,'mechanical');
#704=APPLICATION_PROTOCOL_DEFINITION('international standard',
'ap242_managed_model_based_3d_engineering',2020,#705);
#705=APPLICATION_CONTEXT('managed model based 3d engineering');
ENDSEC;
END-ISO-10303-21;
