ISO-10303-21;
HEADER;
/* Generated by software containing ST-Developer
 * from STEP Tools, Inc. (www.steptools.com) 
 */
/* OPTION: using custom renumber hook */

FILE_DESCRIPTION(
/* description */ ('STEP AP242 Edition 2',
'CAx-IF Rec.Pracs.---Representation and Presentation of Product Manufa
cturing Information (PMI)---4.0---2014-10-13',
'CAx-IF Rec.Pracs.---3D Tessellated Geometry---0.4---2014-09-14','2;1',
'CAx-IF Rec.Pracs.---User Defined Attributes---1.5---2016-08-15'),
/* implementation_level */ '2;1');

FILE_NAME(
/* name */ 'Sennheiser EM 10 - right',
/* time_stamp */ '2026-09-05T13:56:48Z',
/* author */ (''),
/* organization */ (''),
/* preprocessor_version */ 'ST-DEVELOPER v20',
/* originating_system */ 'ONSHAPE BY PTC INC, 1.220',
/* authorisation */ '  ');

FILE_SCHEMA (('AP242_MANAGED_MODEL_BASED_3D_ENGINEERING_MIM_LF { 1 0 10303 442 3 1 4 }'));
ENDSEC;

DATA;
#10=SHAPE_REPRESENTATION_RELATIONSHIP('','',#503,#11);
#11=ADVANCED_BREP_SHAPE_REPRESENTATION('',(#501),#823);
#12=CONICAL_SURFACE('',#547,0.0036,0.785398163397449);
#13=CONICAL_SURFACE('',#548,0.0036,0.785398163397449);
#14=CIRCLE('',#513,0.0015);
#15=CIRCLE('',#514,0.0015);
#16=CIRCLE('',#517,0.0015);
#17=CIRCLE('',#518,0.0015);
#18=CIRCLE('',#523,0.0015);
#19=CIRCLE('',#524,0.0015);
#20=CIRCLE('',#527,0.0015);
#21=CIRCLE('',#528,0.0015);
#22=CIRCLE('',#530,0.0026);
#23=CIRCLE('',#531,0.0026);
#24=CIRCLE('',#533,0.0026);
#25=CIRCLE('',#534,0.0026);
#26=CIRCLE('',#537,0.0036);
#27=CIRCLE('',#538,0.0036);
#28=CIRCLE('',#541,0.0016);
#29=CIRCLE('',#542,0.0016);
#30=CIRCLE('',#544,0.0016);
#31=CIRCLE('',#545,0.0016);
#32=CYLINDRICAL_SURFACE('',#512,0.0015);
#33=CYLINDRICAL_SURFACE('',#516,0.0015);
#34=CYLINDRICAL_SURFACE('',#522,0.0015);
#35=CYLINDRICAL_SURFACE('',#526,0.0015);
#36=CYLINDRICAL_SURFACE('',#529,0.0026);
#37=CYLINDRICAL_SURFACE('',#532,0.0026);
#38=CYLINDRICAL_SURFACE('',#540,0.0016);
#39=CYLINDRICAL_SURFACE('',#543,0.0016);
#40=ORIENTED_EDGE('',*,*,#168,.F.);
#41=ORIENTED_EDGE('',*,*,#169,.F.);
#42=ORIENTED_EDGE('',*,*,#170,.T.);
#43=ORIENTED_EDGE('',*,*,#171,.T.);
#44=ORIENTED_EDGE('',*,*,#172,.F.);
#45=ORIENTED_EDGE('',*,*,#173,.F.);
#46=ORIENTED_EDGE('',*,*,#174,.T.);
#47=ORIENTED_EDGE('',*,*,#169,.T.);
#48=ORIENTED_EDGE('',*,*,#175,.F.);
#49=ORIENTED_EDGE('',*,*,#176,.F.);
#50=ORIENTED_EDGE('',*,*,#177,.T.);
#51=ORIENTED_EDGE('',*,*,#178,.F.);
#52=ORIENTED_EDGE('',*,*,#179,.T.);
#53=ORIENTED_EDGE('',*,*,#173,.T.);
#54=ORIENTED_EDGE('',*,*,#178,.T.);
#55=ORIENTED_EDGE('',*,*,#180,.T.);
#56=ORIENTED_EDGE('',*,*,#181,.F.);
#57=ORIENTED_EDGE('',*,*,#182,.F.);
#58=ORIENTED_EDGE('',*,*,#183,.T.);
#59=ORIENTED_EDGE('',*,*,#184,.F.);
#60=ORIENTED_EDGE('',*,*,#185,.F.);
#61=ORIENTED_EDGE('',*,*,#181,.T.);
#62=ORIENTED_EDGE('',*,*,#186,.F.);
#63=ORIENTED_EDGE('',*,*,#187,.T.);
#64=ORIENTED_EDGE('',*,*,#188,.F.);
#65=ORIENTED_EDGE('',*,*,#189,.F.);
#66=ORIENTED_EDGE('',*,*,#190,.T.);
#67=ORIENTED_EDGE('',*,*,#184,.T.);
#68=ORIENTED_EDGE('',*,*,#191,.T.);
#69=ORIENTED_EDGE('',*,*,#192,.F.);
#70=ORIENTED_EDGE('',*,*,#193,.F.);
#71=ORIENTED_EDGE('',*,*,#189,.T.);
#72=ORIENTED_EDGE('',*,*,#194,.T.);
#73=ORIENTED_EDGE('',*,*,#195,.F.);
#74=ORIENTED_EDGE('',*,*,#196,.F.);
#75=ORIENTED_EDGE('',*,*,#192,.T.);
#76=ORIENTED_EDGE('',*,*,#197,.F.);
#77=ORIENTED_EDGE('',*,*,#198,.F.);
#78=ORIENTED_EDGE('',*,*,#199,.T.);
#79=ORIENTED_EDGE('',*,*,#195,.T.);
#80=ORIENTED_EDGE('',*,*,#200,.T.);
#81=ORIENTED_EDGE('',*,*,#201,.F.);
#82=ORIENTED_EDGE('',*,*,#202,.F.);
#83=ORIENTED_EDGE('',*,*,#198,.T.);
#84=ORIENTED_EDGE('',*,*,#203,.F.);
#85=ORIENTED_EDGE('',*,*,#204,.F.);
#86=ORIENTED_EDGE('',*,*,#205,.T.);
#87=ORIENTED_EDGE('',*,*,#201,.T.);
#88=ORIENTED_EDGE('',*,*,#206,.F.);
#89=ORIENTED_EDGE('',*,*,#207,.F.);
#90=ORIENTED_EDGE('',*,*,#208,.T.);
#91=ORIENTED_EDGE('',*,*,#204,.T.);
#92=ORIENTED_EDGE('',*,*,#209,.T.);
#93=ORIENTED_EDGE('',*,*,#210,.F.);
#94=ORIENTED_EDGE('',*,*,#211,.F.);
#95=ORIENTED_EDGE('',*,*,#207,.T.);
#96=ORIENTED_EDGE('',*,*,#212,.T.);
#97=ORIENTED_EDGE('',*,*,#213,.F.);
#98=ORIENTED_EDGE('',*,*,#214,.F.);
#99=ORIENTED_EDGE('',*,*,#210,.T.);
#100=ORIENTED_EDGE('',*,*,#215,.F.);
#101=ORIENTED_EDGE('',*,*,#216,.F.);
#102=ORIENTED_EDGE('',*,*,#217,.T.);
#103=ORIENTED_EDGE('',*,*,#213,.T.);
#104=ORIENTED_EDGE('',*,*,#218,.T.);
#105=ORIENTED_EDGE('',*,*,#171,.F.);
#106=ORIENTED_EDGE('',*,*,#219,.F.);
#107=ORIENTED_EDGE('',*,*,#216,.T.);
#108=ORIENTED_EDGE('',*,*,#220,.T.);
#109=ORIENTED_EDGE('',*,*,#221,.F.);
#110=ORIENTED_EDGE('',*,*,#222,.T.);
#111=ORIENTED_EDGE('',*,*,#223,.F.);
#112=ORIENTED_EDGE('',*,*,#220,.F.);
#113=ORIENTED_EDGE('',*,*,#170,.F.);
#114=ORIENTED_EDGE('',*,*,#174,.F.);
#115=ORIENTED_EDGE('',*,*,#179,.F.);
#116=ORIENTED_EDGE('',*,*,#182,.T.);
#117=ORIENTED_EDGE('',*,*,#185,.T.);
#118=ORIENTED_EDGE('',*,*,#190,.F.);
#119=ORIENTED_EDGE('',*,*,#193,.T.);
#120=ORIENTED_EDGE('',*,*,#196,.T.);
#121=ORIENTED_EDGE('',*,*,#199,.F.);
#122=ORIENTED_EDGE('',*,*,#202,.T.);
#123=ORIENTED_EDGE('',*,*,#205,.F.);
#124=ORIENTED_EDGE('',*,*,#208,.F.);
#125=ORIENTED_EDGE('',*,*,#211,.T.);
#126=ORIENTED_EDGE('',*,*,#214,.T.);
#127=ORIENTED_EDGE('',*,*,#217,.F.);
#128=ORIENTED_EDGE('',*,*,#219,.T.);
#129=ORIENTED_EDGE('',*,*,#222,.F.);
#130=ORIENTED_EDGE('',*,*,#224,.T.);
#131=ORIENTED_EDGE('',*,*,#225,.T.);
#132=ORIENTED_EDGE('',*,*,#221,.T.);
#133=ORIENTED_EDGE('',*,*,#168,.T.);
#134=ORIENTED_EDGE('',*,*,#218,.F.);
#135=ORIENTED_EDGE('',*,*,#215,.T.);
#136=ORIENTED_EDGE('',*,*,#212,.F.);
#137=ORIENTED_EDGE('',*,*,#209,.F.);
#138=ORIENTED_EDGE('',*,*,#206,.T.);
#139=ORIENTED_EDGE('',*,*,#203,.T.);
#140=ORIENTED_EDGE('',*,*,#200,.F.);
#141=ORIENTED_EDGE('',*,*,#197,.T.);
#142=ORIENTED_EDGE('',*,*,#194,.F.);
#143=ORIENTED_EDGE('',*,*,#191,.F.);
#144=ORIENTED_EDGE('',*,*,#188,.T.);
#145=ORIENTED_EDGE('',*,*,#183,.F.);
#146=ORIENTED_EDGE('',*,*,#226,.F.);
#147=ORIENTED_EDGE('',*,*,#175,.T.);
#148=ORIENTED_EDGE('',*,*,#172,.T.);
#149=ORIENTED_EDGE('',*,*,#223,.T.);
#150=ORIENTED_EDGE('',*,*,#226,.T.);
#151=ORIENTED_EDGE('',*,*,#187,.F.);
#152=ORIENTED_EDGE('',*,*,#227,.F.);
#153=ORIENTED_EDGE('',*,*,#176,.T.);
#154=ORIENTED_EDGE('',*,*,#228,.T.);
#155=ORIENTED_EDGE('',*,*,#229,.T.);
#156=ORIENTED_EDGE('',*,*,#230,.T.);
#157=ORIENTED_EDGE('',*,*,#231,.T.);
#158=ORIENTED_EDGE('',*,*,#177,.F.);
#159=ORIENTED_EDGE('',*,*,#227,.T.);
#160=ORIENTED_EDGE('',*,*,#186,.T.);
#161=ORIENTED_EDGE('',*,*,#180,.F.);
#162=ORIENTED_EDGE('',*,*,#229,.F.);
#163=ORIENTED_EDGE('',*,*,#231,.F.);
#164=ORIENTED_EDGE('',*,*,#228,.F.);
#165=ORIENTED_EDGE('',*,*,#224,.F.);
#166=ORIENTED_EDGE('',*,*,#230,.F.);
#167=ORIENTED_EDGE('',*,*,#225,.F.);
#168=EDGE_CURVE('',#232,#233,#278,.T.);
#169=EDGE_CURVE('',#234,#232,#279,.T.);
#170=EDGE_CURVE('',#234,#235,#280,.T.);
#171=EDGE_CURVE('',#235,#233,#281,.T.);
#172=EDGE_CURVE('',#236,#232,#282,.T.);
#173=EDGE_CURVE('',#237,#236,#283,.T.);
#174=EDGE_CURVE('',#237,#234,#284,.T.);
#175=EDGE_CURVE('',#238,#236,#285,.T.);
#176=EDGE_CURVE('',#239,#238,#286,.T.);
#177=EDGE_CURVE('',#239,#240,#287,.T.);
#178=EDGE_CURVE('',#241,#240,#288,.T.);
#179=EDGE_CURVE('',#241,#237,#289,.T.);
#180=EDGE_CURVE('',#240,#242,#290,.T.);
#181=EDGE_CURVE('',#243,#242,#291,.T.);
#182=EDGE_CURVE('',#241,#243,#292,.T.);
#183=EDGE_CURVE('',#244,#245,#293,.T.);
#184=EDGE_CURVE('',#246,#245,#294,.T.);
#185=EDGE_CURVE('',#243,#246,#295,.T.);
#186=EDGE_CURVE('',#247,#242,#296,.T.);
#187=EDGE_CURVE('',#247,#244,#297,.T.);
#188=EDGE_CURVE('',#248,#245,#298,.T.);
#189=EDGE_CURVE('',#249,#248,#299,.T.);
#190=EDGE_CURVE('',#249,#246,#300,.T.);
#191=EDGE_CURVE('',#248,#250,#301,.T.);
#192=EDGE_CURVE('',#251,#250,#302,.T.);
#193=EDGE_CURVE('',#249,#251,#303,.T.);
#194=EDGE_CURVE('',#250,#252,#14,.T.);
#195=EDGE_CURVE('',#253,#252,#304,.T.);
#196=EDGE_CURVE('',#251,#253,#15,.T.);
#197=EDGE_CURVE('',#254,#252,#305,.T.);
#198=EDGE_CURVE('',#255,#254,#306,.T.);
#199=EDGE_CURVE('',#255,#253,#307,.T.);
#200=EDGE_CURVE('',#254,#256,#16,.T.);
#201=EDGE_CURVE('',#257,#256,#308,.T.);
#202=EDGE_CURVE('',#255,#257,#17,.T.);
#203=EDGE_CURVE('',#258,#256,#309,.T.);
#204=EDGE_CURVE('',#259,#258,#310,.T.);
#205=EDGE_CURVE('',#259,#257,#311,.T.);
#206=EDGE_CURVE('',#260,#258,#312,.T.);
#207=EDGE_CURVE('',#261,#260,#313,.T.);
#208=EDGE_CURVE('',#261,#259,#314,.T.);
#209=EDGE_CURVE('',#260,#262,#315,.T.);
#210=EDGE_CURVE('',#263,#262,#316,.T.);
#211=EDGE_CURVE('',#261,#263,#317,.T.);
#212=EDGE_CURVE('',#262,#264,#18,.T.);
#213=EDGE_CURVE('',#265,#264,#318,.T.);
#214=EDGE_CURVE('',#263,#265,#19,.T.);
#215=EDGE_CURVE('',#266,#264,#319,.T.);
#216=EDGE_CURVE('',#267,#266,#320,.T.);
#217=EDGE_CURVE('',#267,#265,#321,.T.);
#218=EDGE_CURVE('',#266,#233,#20,.T.);
#219=EDGE_CURVE('',#267,#235,#21,.T.);
#220=EDGE_CURVE('',#268,#268,#22,.T.);
#221=EDGE_CURVE('',#269,#269,#23,.T.);
#222=EDGE_CURVE('',#270,#270,#24,.T.);
#223=EDGE_CURVE('',#271,#271,#25,.T.);
#224=EDGE_CURVE('',#272,#272,#26,.T.);
#225=EDGE_CURVE('',#273,#273,#27,.T.);
#226=EDGE_CURVE('',#238,#244,#322,.T.);
#227=EDGE_CURVE('',#239,#247,#323,.T.);
#228=EDGE_CURVE('',#274,#274,#28,.F.);
#229=EDGE_CURVE('',#275,#275,#29,.T.);
#230=EDGE_CURVE('',#276,#276,#30,.F.);
#231=EDGE_CURVE('',#277,#277,#31,.T.);
#232=VERTEX_POINT('',#688);
#233=VERTEX_POINT('',#689);
#234=VERTEX_POINT('',#691);
#235=VERTEX_POINT('',#693);
#236=VERTEX_POINT('',#697);
#237=VERTEX_POINT('',#699);
#238=VERTEX_POINT('',#703);
#239=VERTEX_POINT('',#705);
#240=VERTEX_POINT('',#707);
#241=VERTEX_POINT('',#709);
#242=VERTEX_POINT('',#713);
#243=VERTEX_POINT('',#715);
#244=VERTEX_POINT('',#719);
#245=VERTEX_POINT('',#720);
#246=VERTEX_POINT('',#722);
#247=VERTEX_POINT('',#725);
#248=VERTEX_POINT('',#729);
#249=VERTEX_POINT('',#731);
#250=VERTEX_POINT('',#735);
#251=VERTEX_POINT('',#737);
#252=VERTEX_POINT('',#741);
#253=VERTEX_POINT('',#743);
#254=VERTEX_POINT('',#747);
#255=VERTEX_POINT('',#749);
#256=VERTEX_POINT('',#753);
#257=VERTEX_POINT('',#755);
#258=VERTEX_POINT('',#759);
#259=VERTEX_POINT('',#761);
#260=VERTEX_POINT('',#765);
#261=VERTEX_POINT('',#767);
#262=VERTEX_POINT('',#771);
#263=VERTEX_POINT('',#773);
#264=VERTEX_POINT('',#777);
#265=VERTEX_POINT('',#779);
#266=VERTEX_POINT('',#783);
#267=VERTEX_POINT('',#785);
#268=VERTEX_POINT('',#792);
#269=VERTEX_POINT('',#794);
#270=VERTEX_POINT('',#797);
#271=VERTEX_POINT('',#799);
#272=VERTEX_POINT('',#803);
#273=VERTEX_POINT('',#805);
#274=VERTEX_POINT('',#811);
#275=VERTEX_POINT('',#813);
#276=VERTEX_POINT('',#816);
#277=VERTEX_POINT('',#818);
#278=LINE('',#687,#324);
#279=LINE('',#690,#325);
#280=LINE('',#692,#326);
#281=LINE('',#694,#327);
#282=LINE('',#696,#328);
#283=LINE('',#698,#329);
#284=LINE('',#700,#330);
#285=LINE('',#702,#331);
#286=LINE('',#704,#332);
#287=LINE('',#706,#333);
#288=LINE('',#708,#334);
#289=LINE('',#710,#335);
#290=LINE('',#712,#336);
#291=LINE('',#714,#337);
#292=LINE('',#716,#338);
#293=LINE('',#718,#339);
#294=LINE('',#721,#340);
#295=LINE('',#723,#341);
#296=LINE('',#724,#342);
#297=LINE('',#726,#343);
#298=LINE('',#728,#344);
#299=LINE('',#730,#345);
#300=LINE('',#732,#346);
#301=LINE('',#734,#347);
#302=LINE('',#736,#348);
#303=LINE('',#738,#349);
#304=LINE('',#742,#350);
#305=LINE('',#746,#351);
#306=LINE('',#748,#352);
#307=LINE('',#750,#353);
#308=LINE('',#754,#354);
#309=LINE('',#758,#355);
#310=LINE('',#760,#356);
#311=LINE('',#762,#357);
#312=LINE('',#764,#358);
#313=LINE('',#766,#359);
#314=LINE('',#768,#360);
#315=LINE('',#770,#361);
#316=LINE('',#772,#362);
#317=LINE('',#774,#363);
#318=LINE('',#778,#364);
#319=LINE('',#782,#365);
#320=LINE('',#784,#366);
#321=LINE('',#786,#367);
#322=LINE('',#806,#368);
#323=LINE('',#808,#369);
#324=VECTOR('',#553,1.);
#325=VECTOR('',#554,1.);
#326=VECTOR('',#555,1.);
#327=VECTOR('',#556,1.);
#328=VECTOR('',#559,1.);
#329=VECTOR('',#560,1.);
#330=VECTOR('',#561,1.);
#331=VECTOR('',#564,1.);
#332=VECTOR('',#565,1.);
#333=VECTOR('',#566,1.);
#334=VECTOR('',#567,1.);
#335=VECTOR('',#568,1.);
#336=VECTOR('',#571,1.);
#337=VECTOR('',#572,1.);
#338=VECTOR('',#573,1.);
#339=VECTOR('',#576,1.);
#340=VECTOR('',#577,1.);
#341=VECTOR('',#578,1.);
#342=VECTOR('',#579,1.);
#343=VECTOR('',#580,1.);
#344=VECTOR('',#583,1.);
#345=VECTOR('',#584,1.);
#346=VECTOR('',#585,1.);
#347=VECTOR('',#588,1.);
#348=VECTOR('',#589,1.);
#349=VECTOR('',#590,1.);
#350=VECTOR('',#595,1.);
#351=VECTOR('',#600,1.);
#352=VECTOR('',#601,1.);
#353=VECTOR('',#602,1.);
#354=VECTOR('',#607,1.);
#355=VECTOR('',#612,1.);
#356=VECTOR('',#613,1.);
#357=VECTOR('',#614,1.);
#358=VECTOR('',#617,1.);
#359=VECTOR('',#618,1.);
#360=VECTOR('',#619,1.);
#361=VECTOR('',#622,1.);
#362=VECTOR('',#623,1.);
#363=VECTOR('',#624,1.);
#364=VECTOR('',#629,1.);
#365=VECTOR('',#634,1.);
#366=VECTOR('',#635,1.);
#367=VECTOR('',#636,1.);
#368=VECTOR('',#663,1.);
#369=VECTOR('',#666,1.);
#370=EDGE_LOOP('',(#40,#41,#42,#43));
#371=EDGE_LOOP('',(#44,#45,#46,#47));
#372=EDGE_LOOP('',(#48,#49,#50,#51,#52,#53));
#373=EDGE_LOOP('',(#54,#55,#56,#57));
#374=EDGE_LOOP('',(#58,#59,#60,#61,#62,#63));
#375=EDGE_LOOP('',(#64,#65,#66,#67));
#376=EDGE_LOOP('',(#68,#69,#70,#71));
#377=EDGE_LOOP('',(#72,#73,#74,#75));
#378=EDGE_LOOP('',(#76,#77,#78,#79));
#379=EDGE_LOOP('',(#80,#81,#82,#83));
#380=EDGE_LOOP('',(#84,#85,#86,#87));
#381=EDGE_LOOP('',(#88,#89,#90,#91));
#382=EDGE_LOOP('',(#92,#93,#94,#95));
#383=EDGE_LOOP('',(#96,#97,#98,#99));
#384=EDGE_LOOP('',(#100,#101,#102,#103));
#385=EDGE_LOOP('',(#104,#105,#106,#107));
#386=EDGE_LOOP('',(#108));
#387=EDGE_LOOP('',(#109));
#388=EDGE_LOOP('',(#110));
#389=EDGE_LOOP('',(#111));
#390=EDGE_LOOP('',(#112));
#391=EDGE_LOOP('',(#113,#114,#115,#116,#117,#118,#119,#120,#121,#122,#123,
#124,#125,#126,#127,#128));
#392=EDGE_LOOP('',(#129));
#393=EDGE_LOOP('',(#130));
#394=EDGE_LOOP('',(#131));
#395=EDGE_LOOP('',(#132));
#396=EDGE_LOOP('',(#133,#134,#135,#136,#137,#138,#139,#140,#141,#142,#143,
#144,#145,#146,#147,#148));
#397=EDGE_LOOP('',(#149));
#398=EDGE_LOOP('',(#150,#151,#152,#153));
#399=EDGE_LOOP('',(#154));
#400=EDGE_LOOP('',(#155));
#401=EDGE_LOOP('',(#156));
#402=EDGE_LOOP('',(#157));
#403=EDGE_LOOP('',(#158,#159,#160,#161));
#404=EDGE_LOOP('',(#162));
#405=EDGE_LOOP('',(#163));
#406=EDGE_LOOP('',(#164));
#407=EDGE_LOOP('',(#165));
#408=EDGE_LOOP('',(#166));
#409=EDGE_LOOP('',(#167));
#410=FACE_BOUND('',#370,.T.);
#411=FACE_BOUND('',#371,.T.);
#412=FACE_BOUND('',#372,.T.);
#413=FACE_BOUND('',#373,.T.);
#414=FACE_BOUND('',#374,.T.);
#415=FACE_BOUND('',#375,.T.);
#416=FACE_BOUND('',#376,.T.);
#417=FACE_BOUND('',#377,.T.);
#418=FACE_BOUND('',#378,.T.);
#419=FACE_BOUND('',#379,.T.);
#420=FACE_BOUND('',#380,.T.);
#421=FACE_BOUND('',#381,.T.);
#422=FACE_BOUND('',#382,.T.);
#423=FACE_BOUND('',#383,.T.);
#424=FACE_BOUND('',#384,.T.);
#425=FACE_BOUND('',#385,.T.);
#426=FACE_BOUND('',#386,.T.);
#427=FACE_BOUND('',#387,.T.);
#428=FACE_BOUND('',#388,.T.);
#429=FACE_BOUND('',#389,.T.);
#430=FACE_BOUND('',#390,.T.);
#431=FACE_BOUND('',#391,.T.);
#432=FACE_BOUND('',#392,.T.);
#433=FACE_BOUND('',#393,.T.);
#434=FACE_BOUND('',#394,.T.);
#435=FACE_BOUND('',#395,.T.);
#436=FACE_BOUND('',#396,.T.);
#437=FACE_BOUND('',#397,.T.);
#438=FACE_BOUND('',#398,.T.);
#439=FACE_BOUND('',#399,.T.);
#440=FACE_BOUND('',#400,.T.);
#441=FACE_BOUND('',#401,.T.);
#442=FACE_BOUND('',#402,.T.);
#443=FACE_BOUND('',#403,.T.);
#444=FACE_BOUND('',#404,.T.);
#445=FACE_BOUND('',#405,.T.);
#446=FACE_BOUND('',#406,.T.);
#447=FACE_BOUND('',#407,.T.);
#448=FACE_BOUND('',#408,.T.);
#449=FACE_BOUND('',#409,.T.);
#450=PLANE('',#505);
#451=PLANE('',#506);
#452=PLANE('',#507);
#453=PLANE('',#508);
#454=PLANE('',#509);
#455=PLANE('',#510);
#456=PLANE('',#511);
#457=PLANE('',#515);
#458=PLANE('',#519);
#459=PLANE('',#520);
#460=PLANE('',#521);
#461=PLANE('',#525);
#462=PLANE('',#535);
#463=PLANE('',#536);
#464=PLANE('',#539);
#465=PLANE('',#546);
#466=ADVANCED_FACE('',(#410),#450,.T.);
#467=ADVANCED_FACE('',(#411),#451,.T.);
#468=ADVANCED_FACE('',(#412),#452,.T.);
#469=ADVANCED_FACE('',(#413),#453,.F.);
#470=ADVANCED_FACE('',(#414),#454,.F.);
#471=ADVANCED_FACE('',(#415),#455,.T.);
#472=ADVANCED_FACE('',(#416),#456,.F.);
#473=ADVANCED_FACE('',(#417),#32,.T.);
#474=ADVANCED_FACE('',(#418),#457,.T.);
#475=ADVANCED_FACE('',(#419),#33,.T.);
#476=ADVANCED_FACE('',(#420),#458,.T.);
#477=ADVANCED_FACE('',(#421),#459,.T.);
#478=ADVANCED_FACE('',(#422),#460,.F.);
#479=ADVANCED_FACE('',(#423),#34,.T.);
#480=ADVANCED_FACE('',(#424),#461,.T.);
#481=ADVANCED_FACE('',(#425),#35,.T.);
#482=ADVANCED_FACE('',(#426,#427),#36,.F.);
#483=ADVANCED_FACE('',(#428,#429),#37,.F.);
#484=ADVANCED_FACE('',(#430,#431,#432),#462,.T.);
#485=ADVANCED_FACE('',(#433,#434,#435,#436,#437),#463,.F.);
#486=ADVANCED_FACE('',(#438),#464,.F.);
#487=ADVANCED_FACE('',(#439,#440),#38,.F.);
#488=ADVANCED_FACE('',(#441,#442),#39,.F.);
#489=ADVANCED_FACE('',(#443,#444,#445),#465,.T.);
#490=ADVANCED_FACE('',(#446,#447),#12,.F.);
#491=ADVANCED_FACE('',(#448,#449),#13,.F.);
#492=CLOSED_SHELL('',(#466,#467,#468,#469,#470,#471,#472,#473,#474,#475,
#476,#477,#478,#479,#480,#481,#482,#483,#484,#485,#486,#487,#488,#489,#490,
#491));
#493=STYLED_ITEM('',(#494),#501);
#494=PRESENTATION_STYLE_ASSIGNMENT((#495));
#495=SURFACE_STYLE_USAGE(.BOTH.,#496);
#496=SURFACE_SIDE_STYLE('',(#497));
#497=SURFACE_STYLE_FILL_AREA(#498);
#498=FILL_AREA_STYLE('',(#499));
#499=FILL_AREA_STYLE_COLOUR('',#500);
#500=COLOUR_RGB('',0.647058823529412,0.647058823529412,0.647058823529412);
#501=MANIFOLD_SOLID_BREP('right',#492);
#502=SHAPE_DEFINITION_REPRESENTATION(#828,#503);
#503=SHAPE_REPRESENTATION('right',(#504),#823);
#504=AXIS2_PLACEMENT_3D('',#685,#549,#550);
#505=AXIS2_PLACEMENT_3D('',#686,#551,#552);
#506=AXIS2_PLACEMENT_3D('',#695,#557,#558);
#507=AXIS2_PLACEMENT_3D('',#701,#562,#563);
#508=AXIS2_PLACEMENT_3D('',#711,#569,#570);
#509=AXIS2_PLACEMENT_3D('',#717,#574,#575);
#510=AXIS2_PLACEMENT_3D('',#727,#581,#582);
#511=AXIS2_PLACEMENT_3D('',#733,#586,#587);
#512=AXIS2_PLACEMENT_3D('',#739,#591,#592);
#513=AXIS2_PLACEMENT_3D('',#740,#593,#594);
#514=AXIS2_PLACEMENT_3D('',#744,#596,#597);
#515=AXIS2_PLACEMENT_3D('',#745,#598,#599);
#516=AXIS2_PLACEMENT_3D('',#751,#603,#604);
#517=AXIS2_PLACEMENT_3D('',#752,#605,#606);
#518=AXIS2_PLACEMENT_3D('',#756,#608,#609);
#519=AXIS2_PLACEMENT_3D('',#757,#610,#611);
#520=AXIS2_PLACEMENT_3D('',#763,#615,#616);
#521=AXIS2_PLACEMENT_3D('',#769,#620,#621);
#522=AXIS2_PLACEMENT_3D('',#775,#625,#626);
#523=AXIS2_PLACEMENT_3D('',#776,#627,#628);
#524=AXIS2_PLACEMENT_3D('',#780,#630,#631);
#525=AXIS2_PLACEMENT_3D('',#781,#632,#633);
#526=AXIS2_PLACEMENT_3D('',#787,#637,#638);
#527=AXIS2_PLACEMENT_3D('',#788,#639,#640);
#528=AXIS2_PLACEMENT_3D('',#789,#641,#642);
#529=AXIS2_PLACEMENT_3D('',#790,#643,#644);
#530=AXIS2_PLACEMENT_3D('',#791,#645,#646);
#531=AXIS2_PLACEMENT_3D('',#793,#647,#648);
#532=AXIS2_PLACEMENT_3D('',#795,#649,#650);
#533=AXIS2_PLACEMENT_3D('',#796,#651,#652);
#534=AXIS2_PLACEMENT_3D('',#798,#653,#654);
#535=AXIS2_PLACEMENT_3D('',#800,#655,#656);
#536=AXIS2_PLACEMENT_3D('',#801,#657,#658);
#537=AXIS2_PLACEMENT_3D('',#802,#659,#660);
#538=AXIS2_PLACEMENT_3D('',#804,#661,#662);
#539=AXIS2_PLACEMENT_3D('',#807,#664,#665);
#540=AXIS2_PLACEMENT_3D('',#809,#667,#668);
#541=AXIS2_PLACEMENT_3D('',#810,#669,#670);
#542=AXIS2_PLACEMENT_3D('',#812,#671,#672);
#543=AXIS2_PLACEMENT_3D('',#814,#673,#674);
#544=AXIS2_PLACEMENT_3D('',#815,#675,#676);
#545=AXIS2_PLACEMENT_3D('',#817,#677,#678);
#546=AXIS2_PLACEMENT_3D('',#819,#679,#680);
#547=AXIS2_PLACEMENT_3D('',#820,#681,#682);
#548=AXIS2_PLACEMENT_3D('',#821,#683,#684);
#549=DIRECTION('',(0.,0.,1.));
#550=DIRECTION('',(1.,0.,0.));
#551=DIRECTION('',(0.,1.,0.));
#552=DIRECTION('',(0.,0.,1.));
#553=DIRECTION('',(1.,0.,0.));
#554=DIRECTION('',(0.,0.,-1.));
#555=DIRECTION('',(1.,0.,0.));
#556=DIRECTION('',(0.,0.,-1.));
#557=DIRECTION('',(1.,0.,0.));
#558=DIRECTION('',(0.,0.,-1.));
#559=DIRECTION('',(0.,-1.,0.));
#560=DIRECTION('',(0.,0.,-1.));
#561=DIRECTION('',(0.,-1.,0.));
#562=DIRECTION('',(0.,1.,0.));
#563=DIRECTION('',(0.,0.,1.));
#564=DIRECTION('',(1.,0.,0.));
#565=DIRECTION('',(0.,0.,-1.));
#566=DIRECTION('',(1.,0.,0.));
#567=DIRECTION('',(0.,0.,-1.));
#568=DIRECTION('',(1.,0.,0.));
#569=DIRECTION('',(1.,0.,0.));
#570=DIRECTION('',(0.,0.,-1.));
#571=DIRECTION('',(0.,-1.,0.));
#572=DIRECTION('',(0.,0.,-1.));
#573=DIRECTION('',(0.,-1.,0.));
#574=DIRECTION('',(0.,1.,0.));
#575=DIRECTION('',(0.,0.,1.));
#576=DIRECTION('',(1.,0.,0.));
#577=DIRECTION('',(0.,0.,-1.));
#578=DIRECTION('',(1.,0.,0.));
#579=DIRECTION('',(1.,0.,0.));
#580=DIRECTION('',(0.,0.,-1.));
#581=DIRECTION('',(1.,0.,0.));
#582=DIRECTION('',(0.,0.,-1.));
#583=DIRECTION('',(0.,-1.,0.));
#584=DIRECTION('',(0.,0.,-1.));
#585=DIRECTION('',(0.,-1.,0.));
#586=DIRECTION('',(0.,1.,0.));
#587=DIRECTION('',(0.,0.,1.));
#588=DIRECTION('',(1.,0.,0.));
#589=DIRECTION('',(0.,0.,-1.));
#590=DIRECTION('',(1.,0.,0.));
#591=DIRECTION('',(0.,0.,-1.));
#592=DIRECTION('',(-1.,0.,0.));
#593=DIRECTION('',(0.,0.,1.));
#594=DIRECTION('',(1.,0.,0.));
#595=DIRECTION('',(0.,0.,-1.));
#596=DIRECTION('',(0.,0.,1.));
#597=DIRECTION('',(1.,0.,0.));
#598=DIRECTION('',(1.,0.,0.));
#599=DIRECTION('',(0.,0.,-1.));
#600=DIRECTION('',(0.,-1.,0.));
#601=DIRECTION('',(0.,0.,-1.));
#602=DIRECTION('',(0.,-1.,0.));
#603=DIRECTION('',(0.,0.,-1.));
#604=DIRECTION('',(-1.,0.,0.));
#605=DIRECTION('',(0.,0.,1.));
#606=DIRECTION('',(1.,0.,0.));
#607=DIRECTION('',(0.,0.,-1.));
#608=DIRECTION('',(0.,0.,1.));
#609=DIRECTION('',(1.,0.,0.));
#610=DIRECTION('',(0.,1.,0.));
#611=DIRECTION('',(0.,0.,1.));
#612=DIRECTION('',(1.,0.,0.));
#613=DIRECTION('',(0.,0.,-1.));
#614=DIRECTION('',(1.,0.,0.));
#615=DIRECTION('',(1.,0.,0.));
#616=DIRECTION('',(0.,0.,-1.));
#617=DIRECTION('',(0.,-1.,0.));
#618=DIRECTION('',(0.,0.,-1.));
#619=DIRECTION('',(0.,-1.,0.));
#620=DIRECTION('',(0.,1.,0.));
#621=DIRECTION('',(0.,0.,1.));
#622=DIRECTION('',(1.,0.,0.));
#623=DIRECTION('',(0.,0.,-1.));
#624=DIRECTION('',(1.,0.,0.));
#625=DIRECTION('',(0.,0.,-1.));
#626=DIRECTION('',(-1.,0.,0.));
#627=DIRECTION('',(0.,0.,1.));
#628=DIRECTION('',(1.,0.,0.));
#629=DIRECTION('',(0.,0.,-1.));
#630=DIRECTION('',(0.,0.,1.));
#631=DIRECTION('',(1.,0.,0.));
#632=DIRECTION('',(1.,0.,0.));
#633=DIRECTION('',(0.,0.,-1.));
#634=DIRECTION('',(0.,-1.,0.));
#635=DIRECTION('',(0.,0.,-1.));
#636=DIRECTION('',(0.,-1.,0.));
#637=DIRECTION('',(0.,0.,-1.));
#638=DIRECTION('',(-1.,0.,0.));
#639=DIRECTION('',(0.,0.,1.));
#640=DIRECTION('',(1.,0.,0.));
#641=DIRECTION('',(0.,0.,1.));
#642=DIRECTION('',(1.,0.,0.));
#643=DIRECTION('',(0.,0.,-1.));
#644=DIRECTION('',(-1.,0.,0.));
#645=DIRECTION('',(0.,0.,1.));
#646=DIRECTION('',(1.,0.,0.));
#647=DIRECTION('',(0.,0.,1.));
#648=DIRECTION('',(1.,0.,0.));
#649=DIRECTION('',(0.,0.,-1.));
#650=DIRECTION('',(-1.,0.,0.));
#651=DIRECTION('',(0.,0.,1.));
#652=DIRECTION('',(1.,0.,0.));
#653=DIRECTION('',(0.,0.,1.));
#654=DIRECTION('',(1.,0.,0.));
#655=DIRECTION('',(0.,0.,1.));
#656=DIRECTION('',(1.,0.,0.));
#657=DIRECTION('',(0.,0.,1.));
#658=DIRECTION('',(1.,0.,0.));
#659=DIRECTION('',(0.,0.,1.));
#660=DIRECTION('',(1.,0.,0.));
#661=DIRECTION('',(0.,0.,1.));
#662=DIRECTION('',(1.,0.,0.));
#663=DIRECTION('',(2.47817639425258E-16,-1.,0.));
#664=DIRECTION('',(1.,2.47817639425258E-16,0.));
#665=DIRECTION('',(-2.47817639425258E-16,1.,0.));
#666=DIRECTION('',(2.47817639425258E-16,-1.,0.));
#667=DIRECTION('',(0.,0.,-1.));
#668=DIRECTION('',(-1.,0.,0.));
#669=DIRECTION('',(0.,0.,1.));
#670=DIRECTION('',(1.,0.,0.));
#671=DIRECTION('',(0.,0.,1.));
#672=DIRECTION('',(1.,0.,0.));
#673=DIRECTION('',(0.,0.,-1.));
#674=DIRECTION('',(-1.,0.,0.));
#675=DIRECTION('',(0.,0.,1.));
#676=DIRECTION('',(1.,0.,0.));
#677=DIRECTION('',(0.,0.,1.));
#678=DIRECTION('',(1.,0.,0.));
#679=DIRECTION('',(0.,0.,1.));
#680=DIRECTION('',(1.,0.,0.));
#681=DIRECTION('',(0.,0.,-1.));
#682=DIRECTION('',(-1.,0.,0.));
#683=DIRECTION('',(0.,0.,-1.));
#684=DIRECTION('',(-1.,0.,0.));
#685=CARTESIAN_POINT('',(0.,0.,0.));
#686=CARTESIAN_POINT('',(0.10625,0.036,0.005));
#687=CARTESIAN_POINT('',(0.10625,0.036,0.));
#688=CARTESIAN_POINT('',(0.102,0.036,0.));
#689=CARTESIAN_POINT('',(0.1105,0.036,0.));
#690=CARTESIAN_POINT('',(0.102,0.036,0.005));
#691=CARTESIAN_POINT('',(0.102,0.036,0.005));
#692=CARTESIAN_POINT('',(0.10625,0.036,0.005));
#693=CARTESIAN_POINT('',(0.1105,0.036,0.005));
#694=CARTESIAN_POINT('',(0.1105,0.036,0.005));
#695=CARTESIAN_POINT('',(0.102,0.046,0.005));
#696=CARTESIAN_POINT('',(0.102,0.046,0.));
#697=CARTESIAN_POINT('',(0.102,0.056,0.));
#698=CARTESIAN_POINT('',(0.102,0.056,0.005));
#699=CARTESIAN_POINT('',(0.102,0.056,0.005));
#700=CARTESIAN_POINT('',(0.102,0.046,0.005));
#701=CARTESIAN_POINT('',(0.101,0.056,0.005));
#702=CARTESIAN_POINT('',(0.101,0.056,0.));
#703=CARTESIAN_POINT('',(0.082,0.056,0.));
#704=CARTESIAN_POINT('',(0.082,0.056,0.003));
#705=CARTESIAN_POINT('',(0.082,0.056,0.003));
#706=CARTESIAN_POINT('',(0.091,0.056,0.003));
#707=CARTESIAN_POINT('',(0.1,0.056,0.003));
#708=CARTESIAN_POINT('',(0.1,0.056,0.005));
#709=CARTESIAN_POINT('',(0.1,0.056,0.005));
#710=CARTESIAN_POINT('',(0.101,0.056,0.005));
#711=CARTESIAN_POINT('',(0.1,0.03,0.005));
#712=CARTESIAN_POINT('',(0.1,-0.046,0.003));
#713=CARTESIAN_POINT('',(0.1,-0.056,0.003));
#714=CARTESIAN_POINT('',(0.1,-0.056,0.005));
#715=CARTESIAN_POINT('',(0.1,-0.056,0.005));
#716=CARTESIAN_POINT('',(0.1,0.03,0.005));
#717=CARTESIAN_POINT('',(0.101,-0.056,0.005));
#718=CARTESIAN_POINT('',(0.101,-0.056,0.));
#719=CARTESIAN_POINT('',(0.082,-0.056,0.));
#720=CARTESIAN_POINT('',(0.102,-0.056,0.));
#721=CARTESIAN_POINT('',(0.102,-0.056,0.005));
#722=CARTESIAN_POINT('',(0.102,-0.056,0.005));
#723=CARTESIAN_POINT('',(0.101,-0.056,0.005));
#724=CARTESIAN_POINT('',(0.091,-0.056,0.003));
#725=CARTESIAN_POINT('',(0.082,-0.056,0.003));
#726=CARTESIAN_POINT('',(0.082,-0.056,0.003));
#727=CARTESIAN_POINT('',(0.102,-0.046,0.005));
#728=CARTESIAN_POINT('',(0.102,-0.046,0.));
#729=CARTESIAN_POINT('',(0.102,-0.036,0.));
#730=CARTESIAN_POINT('',(0.102,-0.036,0.005));
#731=CARTESIAN_POINT('',(0.102,-0.036,0.005));
#732=CARTESIAN_POINT('',(0.102,-0.046,0.005));
#733=CARTESIAN_POINT('',(0.10625,-0.036,0.005));
#734=CARTESIAN_POINT('',(0.10625,-0.036,0.));
#735=CARTESIAN_POINT('',(0.1105,-0.036,0.));
#736=CARTESIAN_POINT('',(0.1105,-0.036,0.005));
#737=CARTESIAN_POINT('',(0.1105,-0.036,0.005));
#738=CARTESIAN_POINT('',(0.10625,-0.036,0.005));
#739=CARTESIAN_POINT('',(0.1105,-0.0345,0.005));
#740=CARTESIAN_POINT('',(0.1105,-0.0345,0.));
#741=CARTESIAN_POINT('',(0.112,-0.0345,0.));
#742=CARTESIAN_POINT('',(0.112,-0.0345,0.005));
#743=CARTESIAN_POINT('',(0.112,-0.0345,0.005));
#744=CARTESIAN_POINT('',(0.1105,-0.0345,0.005));
#745=CARTESIAN_POINT('',(0.112,-0.03,0.005));
#746=CARTESIAN_POINT('',(0.112,-0.03,0.));
#747=CARTESIAN_POINT('',(0.112,-0.0255,0.));
#748=CARTESIAN_POINT('',(0.112,-0.0255,0.005));
#749=CARTESIAN_POINT('',(0.112,-0.0255,0.005));
#750=CARTESIAN_POINT('',(0.112,-0.03,0.005));
#751=CARTESIAN_POINT('',(0.1105,-0.0255,0.005));
#752=CARTESIAN_POINT('',(0.1105,-0.0255,0.));
#753=CARTESIAN_POINT('',(0.1105,-0.024,0.));
#754=CARTESIAN_POINT('',(0.1105,-0.024,0.005));
#755=CARTESIAN_POINT('',(0.1105,-0.024,0.005));
#756=CARTESIAN_POINT('',(0.1105,-0.0255,0.005));
#757=CARTESIAN_POINT('',(0.10625,-0.024,0.005));
#758=CARTESIAN_POINT('',(0.10625,-0.024,0.));
#759=CARTESIAN_POINT('',(0.102,-0.024,0.));
#760=CARTESIAN_POINT('',(0.102,-0.024,0.005));
#761=CARTESIAN_POINT('',(0.102,-0.024,0.005));
#762=CARTESIAN_POINT('',(0.10625,-0.024,0.005));
#763=CARTESIAN_POINT('',(0.102,0.,0.005));
#764=CARTESIAN_POINT('',(0.102,0.,0.));
#765=CARTESIAN_POINT('',(0.102,0.024,0.));
#766=CARTESIAN_POINT('',(0.102,0.024,0.005));
#767=CARTESIAN_POINT('',(0.102,0.024,0.005));
#768=CARTESIAN_POINT('',(0.102,0.,0.005));
#769=CARTESIAN_POINT('',(0.10625,0.024,0.005));
#770=CARTESIAN_POINT('',(0.10625,0.024,0.));
#771=CARTESIAN_POINT('',(0.1105,0.024,0.));
#772=CARTESIAN_POINT('',(0.1105,0.024,0.005));
#773=CARTESIAN_POINT('',(0.1105,0.024,0.005));
#774=CARTESIAN_POINT('',(0.10625,0.024,0.005));
#775=CARTESIAN_POINT('',(0.1105,0.0255,0.005));
#776=CARTESIAN_POINT('',(0.1105,0.0255,0.));
#777=CARTESIAN_POINT('',(0.112,0.0255,0.));
#778=CARTESIAN_POINT('',(0.112,0.0255,0.005));
#779=CARTESIAN_POINT('',(0.112,0.0255,0.005));
#780=CARTESIAN_POINT('',(0.1105,0.0255,0.005));
#781=CARTESIAN_POINT('',(0.112,0.03,0.005));
#782=CARTESIAN_POINT('',(0.112,0.03,0.));
#783=CARTESIAN_POINT('',(0.112,0.0345,0.));
#784=CARTESIAN_POINT('',(0.112,0.0345,0.005));
#785=CARTESIAN_POINT('',(0.112,0.0345,0.005));
#786=CARTESIAN_POINT('',(0.112,0.03,0.005));
#787=CARTESIAN_POINT('',(0.1105,0.0345,0.005));
#788=CARTESIAN_POINT('',(0.1105,0.0345,0.));
#789=CARTESIAN_POINT('',(0.1105,0.0345,0.005));
#790=CARTESIAN_POINT('',(0.106,0.03,0.005));
#791=CARTESIAN_POINT('',(0.106,0.03,0.005));
#792=CARTESIAN_POINT('',(0.1086,0.03,0.005));
#793=CARTESIAN_POINT('',(0.106,0.03,0.));
#794=CARTESIAN_POINT('',(0.1086,0.03,0.));
#795=CARTESIAN_POINT('',(0.106,-0.03,0.005));
#796=CARTESIAN_POINT('',(0.106,-0.03,0.005));
#797=CARTESIAN_POINT('',(0.1086,-0.03,0.005));
#798=CARTESIAN_POINT('',(0.106,-0.03,0.));
#799=CARTESIAN_POINT('',(0.1086,-0.03,0.));
#800=CARTESIAN_POINT('',(1.38777878078145E-17,-2.08166817117217E-17,0.005));
#801=CARTESIAN_POINT('',(1.38777878078145E-17,-2.08166817117217E-17,0.));
#802=CARTESIAN_POINT('',(0.09,0.0225,0.));
#803=CARTESIAN_POINT('',(0.0936,0.0225,0.));
#804=CARTESIAN_POINT('',(0.09,-0.0385,0.));
#805=CARTESIAN_POINT('',(0.0936,-0.0385,0.));
#806=CARTESIAN_POINT('',(0.082,0.,0.));
#807=CARTESIAN_POINT('',(0.082,0.,0.003));
#808=CARTESIAN_POINT('',(0.082,0.,0.003));
#809=CARTESIAN_POINT('',(0.09,0.0225,0.003));
#810=CARTESIAN_POINT('',(0.09,0.0225,0.002));
#811=CARTESIAN_POINT('',(0.0916,0.0225,0.002));
#812=CARTESIAN_POINT('',(0.09,0.0225,0.003));
#813=CARTESIAN_POINT('',(0.0916,0.0225,0.003));
#814=CARTESIAN_POINT('',(0.09,-0.0385,0.003));
#815=CARTESIAN_POINT('',(0.09,-0.0385,0.002));
#816=CARTESIAN_POINT('',(0.0916,-0.0385,0.002));
#817=CARTESIAN_POINT('',(0.09,-0.0385,0.003));
#818=CARTESIAN_POINT('',(0.0916,-0.0385,0.003));
#819=CARTESIAN_POINT('',(1.38777878078145E-17,-2.08166817117217E-17,0.003));
#820=CARTESIAN_POINT('',(0.09,0.0225,0.));
#821=CARTESIAN_POINT('',(0.09,-0.0385,0.));
#822=MECHANICAL_DESIGN_GEOMETRIC_PRESENTATION_REPRESENTATION('',(#493),
#823);
#823=(
GEOMETRIC_REPRESENTATION_CONTEXT(3)
GLOBAL_UNCERTAINTY_ASSIGNED_CONTEXT((#824))
GLOBAL_UNIT_ASSIGNED_CONTEXT((#827,#826,#825))
REPRESENTATION_CONTEXT('right','TOP_LEVEL_ASSEMBLY_PART')
);
#824=UNCERTAINTY_MEASURE_WITH_UNIT(LENGTH_MEASURE(1.E-8),#827,
'DISTANCE_ACCURACY_VALUE','Maximum Tolerance applied to model');
#825=(
NAMED_UNIT(*)
SI_UNIT($,.STERADIAN.)
SOLID_ANGLE_UNIT()
);
#826=(
NAMED_UNIT(*)
PLANE_ANGLE_UNIT()
SI_UNIT($,.RADIAN.)
);
#827=(
LENGTH_UNIT()
NAMED_UNIT(*)
SI_UNIT($,.METRE.)
);
#828=PRODUCT_DEFINITION_SHAPE('','',#829);
#829=PRODUCT_DEFINITION('','',#831,#830);
#830=PRODUCT_DEFINITION_CONTEXT('',#837,'design');
#831=PRODUCT_DEFINITION_FORMATION_WITH_SPECIFIED_SOURCE('','',#833,
 .NOT_KNOWN.);
#832=PRODUCT_RELATED_PRODUCT_CATEGORY('','',(#833));
#833=PRODUCT('right','right','right',(#835));
#834=PRODUCT_CATEGORY('','');
#835=PRODUCT_CONTEXT('',#837,'mechanical');
#836=APPLICATION_PROTOCOL_DEFINITION('international standard',
'ap242_managed_model_based_3d_engineering',2020,#837);
#837=APPLICATION_CONTEXT('managed model based 3d engineering');
ENDSEC;
END-ISO-10303-21;
