ISO-10303-21;
HEADER;
/* Generated by software containing ST-Developer
 * from STEP Tools, Inc. (www.steptools.com) 
 */
/* OPTION: using custom renumber hook */

FILE_DESCRIPTION(
/* description */ ('STEP AP242 Edition 2',
'CAx-IF Rec.Pracs.---Representation and Presentation of Product Manufa
cturing Information (PMI)---4.0---2014-10-13',
'CAx-IF Rec.Pracs.---3D Tessellated Geometry---0.4---2014-09-14','2;1',
'CAx-IF Rec.Pracs.---User Defined Attributes---1.5---2016-08-15'),
/* implementation_level */ '2;1');

FILE_NAME(
/* name */ 'Neural DSP Quad Cortex - right',
/* time_stamp */ '2026-09-02T19:25:50Z',
/* author */ (''),
/* organization */ (''),
/* preprocessor_version */ 'ST-DEVELOPER v20',
/* originating_system */ 'ONSHAPE BY PTC INC, 1.220',
/* authorisation */ '  ');

FILE_SCHEMA (('AP242_MANAGED_MODEL_BASED_3D_ENGINEERING_MIM_LF { 1 0 10303 442 3 1 4 }'));
ENDSEC;

DATA;
#10=SHAPE_REPRESENTATION_RELATIONSHIP('','',#743,#11);
#11=ADVANCED_BREP_SHAPE_REPRESENTATION('',(#741),#1231);
#12=CONICAL_SURFACE('',#811,0.0036,0.785398163397449);
#13=CONICAL_SURFACE('',#812,0.0036,0.785398163397449);
#14=CIRCLE('',#748,0.0015);
#15=CIRCLE('',#749,0.0015);
#16=CIRCLE('',#752,0.0015);
#17=CIRCLE('',#753,0.0015);
#18=CIRCLE('',#758,0.00149999999999997);
#19=CIRCLE('',#759,0.00149999999999997);
#20=CIRCLE('',#762,0.00149999999999997);
#21=CIRCLE('',#763,0.00149999999999997);
#22=CIRCLE('',#767,0.012);
#23=CIRCLE('',#768,0.012);
#24=CIRCLE('',#773,0.01);
#25=CIRCLE('',#774,0.01);
#26=CIRCLE('',#777,0.01);
#27=CIRCLE('',#778,0.01);
#28=CIRCLE('',#782,0.0026);
#29=CIRCLE('',#783,0.0026);
#30=CIRCLE('',#785,0.012);
#31=CIRCLE('',#786,0.012);
#32=CIRCLE('',#788,0.0026);
#33=CIRCLE('',#789,0.0026);
#34=CIRCLE('',#792,0.0036);
#35=CIRCLE('',#793,0.0036);
#36=CIRCLE('',#795,0.0075);
#37=CIRCLE('',#796,0.0075);
#38=CIRCLE('',#800,0.0075);
#39=CIRCLE('',#803,0.0016);
#40=CIRCLE('',#804,0.0016);
#41=CIRCLE('',#806,0.0075);
#42=CIRCLE('',#808,0.0016);
#43=CIRCLE('',#809,0.0016);
#44=CYLINDRICAL_SURFACE('',#747,0.0015);
#45=CYLINDRICAL_SURFACE('',#751,0.0015);
#46=CYLINDRICAL_SURFACE('',#757,0.00149999999999997);
#47=CYLINDRICAL_SURFACE('',#761,0.00149999999999997);
#48=CYLINDRICAL_SURFACE('',#766,0.012);
#49=CYLINDRICAL_SURFACE('',#772,0.01);
#50=CYLINDRICAL_SURFACE('',#776,0.01);
#51=CYLINDRICAL_SURFACE('',#781,0.0026);
#52=CYLINDRICAL_SURFACE('',#784,0.012);
#53=CYLINDRICAL_SURFACE('',#787,0.0026);
#54=CYLINDRICAL_SURFACE('',#799,0.0075);
#55=CYLINDRICAL_SURFACE('',#802,0.0016);
#56=CYLINDRICAL_SURFACE('',#805,0.0075);
#57=CYLINDRICAL_SURFACE('',#807,0.0016);
#58=ORIENTED_EDGE('',*,*,#258,.F.);
#59=ORIENTED_EDGE('',*,*,#259,.F.);
#60=ORIENTED_EDGE('',*,*,#260,.T.);
#61=ORIENTED_EDGE('',*,*,#261,.T.);
#62=ORIENTED_EDGE('',*,*,#262,.F.);
#63=ORIENTED_EDGE('',*,*,#263,.F.);
#64=ORIENTED_EDGE('',*,*,#264,.T.);
#65=ORIENTED_EDGE('',*,*,#259,.T.);
#66=ORIENTED_EDGE('',*,*,#265,.T.);
#67=ORIENTED_EDGE('',*,*,#266,.F.);
#68=ORIENTED_EDGE('',*,*,#267,.F.);
#69=ORIENTED_EDGE('',*,*,#263,.T.);
#70=ORIENTED_EDGE('',*,*,#268,.T.);
#71=ORIENTED_EDGE('',*,*,#269,.F.);
#72=ORIENTED_EDGE('',*,*,#270,.F.);
#73=ORIENTED_EDGE('',*,*,#266,.T.);
#74=ORIENTED_EDGE('',*,*,#271,.T.);
#75=ORIENTED_EDGE('',*,*,#272,.F.);
#76=ORIENTED_EDGE('',*,*,#273,.F.);
#77=ORIENTED_EDGE('',*,*,#269,.T.);
#78=ORIENTED_EDGE('',*,*,#274,.T.);
#79=ORIENTED_EDGE('',*,*,#275,.F.);
#80=ORIENTED_EDGE('',*,*,#276,.F.);
#81=ORIENTED_EDGE('',*,*,#272,.T.);
#82=ORIENTED_EDGE('',*,*,#277,.F.);
#83=ORIENTED_EDGE('',*,*,#278,.F.);
#84=ORIENTED_EDGE('',*,*,#279,.T.);
#85=ORIENTED_EDGE('',*,*,#275,.T.);
#86=ORIENTED_EDGE('',*,*,#280,.F.);
#87=ORIENTED_EDGE('',*,*,#281,.F.);
#88=ORIENTED_EDGE('',*,*,#282,.T.);
#89=ORIENTED_EDGE('',*,*,#278,.T.);
#90=ORIENTED_EDGE('',*,*,#283,.T.);
#91=ORIENTED_EDGE('',*,*,#284,.F.);
#92=ORIENTED_EDGE('',*,*,#285,.F.);
#93=ORIENTED_EDGE('',*,*,#281,.T.);
#94=ORIENTED_EDGE('',*,*,#286,.F.);
#95=ORIENTED_EDGE('',*,*,#287,.F.);
#96=ORIENTED_EDGE('',*,*,#288,.T.);
#97=ORIENTED_EDGE('',*,*,#284,.T.);
#98=ORIENTED_EDGE('',*,*,#289,.T.);
#99=ORIENTED_EDGE('',*,*,#290,.F.);
#100=ORIENTED_EDGE('',*,*,#291,.F.);
#101=ORIENTED_EDGE('',*,*,#287,.T.);
#102=ORIENTED_EDGE('',*,*,#292,.T.);
#103=ORIENTED_EDGE('',*,*,#293,.F.);
#104=ORIENTED_EDGE('',*,*,#294,.F.);
#105=ORIENTED_EDGE('',*,*,#290,.T.);
#106=ORIENTED_EDGE('',*,*,#295,.F.);
#107=ORIENTED_EDGE('',*,*,#296,.F.);
#108=ORIENTED_EDGE('',*,*,#297,.T.);
#109=ORIENTED_EDGE('',*,*,#293,.T.);
#110=ORIENTED_EDGE('',*,*,#298,.T.);
#111=ORIENTED_EDGE('',*,*,#299,.F.);
#112=ORIENTED_EDGE('',*,*,#300,.F.);
#113=ORIENTED_EDGE('',*,*,#296,.T.);
#114=ORIENTED_EDGE('',*,*,#301,.F.);
#115=ORIENTED_EDGE('',*,*,#302,.F.);
#116=ORIENTED_EDGE('',*,*,#303,.T.);
#117=ORIENTED_EDGE('',*,*,#299,.T.);
#118=ORIENTED_EDGE('',*,*,#304,.T.);
#119=ORIENTED_EDGE('',*,*,#305,.F.);
#120=ORIENTED_EDGE('',*,*,#306,.F.);
#121=ORIENTED_EDGE('',*,*,#307,.T.);
#122=ORIENTED_EDGE('',*,*,#308,.F.);
#123=ORIENTED_EDGE('',*,*,#309,.F.);
#124=ORIENTED_EDGE('',*,*,#310,.F.);
#125=ORIENTED_EDGE('',*,*,#311,.T.);
#126=ORIENTED_EDGE('',*,*,#312,.F.);
#127=ORIENTED_EDGE('',*,*,#313,.F.);
#128=ORIENTED_EDGE('',*,*,#314,.F.);
#129=ORIENTED_EDGE('',*,*,#302,.T.);
#130=ORIENTED_EDGE('',*,*,#313,.T.);
#131=ORIENTED_EDGE('',*,*,#315,.T.);
#132=ORIENTED_EDGE('',*,*,#316,.F.);
#133=ORIENTED_EDGE('',*,*,#317,.F.);
#134=ORIENTED_EDGE('',*,*,#318,.F.);
#135=ORIENTED_EDGE('',*,*,#319,.F.);
#136=ORIENTED_EDGE('',*,*,#320,.T.);
#137=ORIENTED_EDGE('',*,*,#316,.T.);
#138=ORIENTED_EDGE('',*,*,#319,.T.);
#139=ORIENTED_EDGE('',*,*,#321,.T.);
#140=ORIENTED_EDGE('',*,*,#322,.F.);
#141=ORIENTED_EDGE('',*,*,#323,.F.);
#142=ORIENTED_EDGE('',*,*,#324,.F.);
#143=ORIENTED_EDGE('',*,*,#325,.F.);
#144=ORIENTED_EDGE('',*,*,#326,.T.);
#145=ORIENTED_EDGE('',*,*,#322,.T.);
#146=ORIENTED_EDGE('',*,*,#327,.F.);
#147=ORIENTED_EDGE('',*,*,#307,.F.);
#148=ORIENTED_EDGE('',*,*,#328,.T.);
#149=ORIENTED_EDGE('',*,*,#325,.T.);
#150=ORIENTED_EDGE('',*,*,#329,.T.);
#151=ORIENTED_EDGE('',*,*,#330,.F.);
#152=ORIENTED_EDGE('',*,*,#331,.F.);
#153=ORIENTED_EDGE('',*,*,#305,.T.);
#154=ORIENTED_EDGE('',*,*,#332,.T.);
#155=ORIENTED_EDGE('',*,*,#333,.F.);
#156=ORIENTED_EDGE('',*,*,#334,.T.);
#157=ORIENTED_EDGE('',*,*,#261,.F.);
#158=ORIENTED_EDGE('',*,*,#335,.F.);
#159=ORIENTED_EDGE('',*,*,#330,.T.);
#160=ORIENTED_EDGE('',*,*,#336,.T.);
#161=ORIENTED_EDGE('',*,*,#337,.F.);
#162=ORIENTED_EDGE('',*,*,#260,.F.);
#163=ORIENTED_EDGE('',*,*,#264,.F.);
#164=ORIENTED_EDGE('',*,*,#267,.T.);
#165=ORIENTED_EDGE('',*,*,#270,.T.);
#166=ORIENTED_EDGE('',*,*,#273,.T.);
#167=ORIENTED_EDGE('',*,*,#276,.T.);
#168=ORIENTED_EDGE('',*,*,#279,.F.);
#169=ORIENTED_EDGE('',*,*,#282,.F.);
#170=ORIENTED_EDGE('',*,*,#285,.T.);
#171=ORIENTED_EDGE('',*,*,#288,.F.);
#172=ORIENTED_EDGE('',*,*,#291,.T.);
#173=ORIENTED_EDGE('',*,*,#294,.T.);
#174=ORIENTED_EDGE('',*,*,#297,.F.);
#175=ORIENTED_EDGE('',*,*,#300,.T.);
#176=ORIENTED_EDGE('',*,*,#303,.F.);
#177=ORIENTED_EDGE('',*,*,#314,.T.);
#178=ORIENTED_EDGE('',*,*,#317,.T.);
#179=ORIENTED_EDGE('',*,*,#320,.F.);
#180=ORIENTED_EDGE('',*,*,#323,.T.);
#181=ORIENTED_EDGE('',*,*,#326,.F.);
#182=ORIENTED_EDGE('',*,*,#328,.F.);
#183=ORIENTED_EDGE('',*,*,#306,.T.);
#184=ORIENTED_EDGE('',*,*,#331,.T.);
#185=ORIENTED_EDGE('',*,*,#335,.T.);
#186=ORIENTED_EDGE('',*,*,#332,.F.);
#187=ORIENTED_EDGE('',*,*,#336,.F.);
#188=ORIENTED_EDGE('',*,*,#338,.T.);
#189=ORIENTED_EDGE('',*,*,#339,.T.);
#190=ORIENTED_EDGE('',*,*,#329,.F.);
#191=ORIENTED_EDGE('',*,*,#304,.F.);
#192=ORIENTED_EDGE('',*,*,#301,.T.);
#193=ORIENTED_EDGE('',*,*,#298,.F.);
#194=ORIENTED_EDGE('',*,*,#295,.T.);
#195=ORIENTED_EDGE('',*,*,#292,.F.);
#196=ORIENTED_EDGE('',*,*,#289,.F.);
#197=ORIENTED_EDGE('',*,*,#286,.T.);
#198=ORIENTED_EDGE('',*,*,#283,.F.);
#199=ORIENTED_EDGE('',*,*,#280,.T.);
#200=ORIENTED_EDGE('',*,*,#277,.T.);
#201=ORIENTED_EDGE('',*,*,#274,.F.);
#202=ORIENTED_EDGE('',*,*,#271,.F.);
#203=ORIENTED_EDGE('',*,*,#268,.F.);
#204=ORIENTED_EDGE('',*,*,#265,.F.);
#205=ORIENTED_EDGE('',*,*,#262,.T.);
#206=ORIENTED_EDGE('',*,*,#258,.T.);
#207=ORIENTED_EDGE('',*,*,#334,.F.);
#208=ORIENTED_EDGE('',*,*,#333,.T.);
#209=ORIENTED_EDGE('',*,*,#337,.T.);
#210=ORIENTED_EDGE('',*,*,#321,.F.);
#211=ORIENTED_EDGE('',*,*,#318,.T.);
#212=ORIENTED_EDGE('',*,*,#315,.F.);
#213=ORIENTED_EDGE('',*,*,#312,.T.);
#214=ORIENTED_EDGE('',*,*,#340,.T.);
#215=ORIENTED_EDGE('',*,*,#341,.F.);
#216=ORIENTED_EDGE('',*,*,#342,.T.);
#217=ORIENTED_EDGE('',*,*,#343,.F.);
#218=ORIENTED_EDGE('',*,*,#344,.F.);
#219=ORIENTED_EDGE('',*,*,#308,.T.);
#220=ORIENTED_EDGE('',*,*,#327,.T.);
#221=ORIENTED_EDGE('',*,*,#324,.T.);
#222=ORIENTED_EDGE('',*,*,#345,.T.);
#223=ORIENTED_EDGE('',*,*,#340,.F.);
#224=ORIENTED_EDGE('',*,*,#311,.F.);
#225=ORIENTED_EDGE('',*,*,#346,.T.);
#226=ORIENTED_EDGE('',*,*,#344,.T.);
#227=ORIENTED_EDGE('',*,*,#347,.F.);
#228=ORIENTED_EDGE('',*,*,#348,.F.);
#229=ORIENTED_EDGE('',*,*,#309,.T.);
#230=ORIENTED_EDGE('',*,*,#343,.T.);
#231=ORIENTED_EDGE('',*,*,#349,.F.);
#232=ORIENTED_EDGE('',*,*,#350,.F.);
#233=ORIENTED_EDGE('',*,*,#347,.T.);
#234=ORIENTED_EDGE('',*,*,#349,.T.);
#235=ORIENTED_EDGE('',*,*,#342,.F.);
#236=ORIENTED_EDGE('',*,*,#351,.F.);
#237=ORIENTED_EDGE('',*,*,#352,.T.);
#238=ORIENTED_EDGE('',*,*,#353,.T.);
#239=ORIENTED_EDGE('',*,*,#354,.T.);
#240=ORIENTED_EDGE('',*,*,#341,.T.);
#241=ORIENTED_EDGE('',*,*,#345,.F.);
#242=ORIENTED_EDGE('',*,*,#355,.F.);
#243=ORIENTED_EDGE('',*,*,#351,.T.);
#244=ORIENTED_EDGE('',*,*,#356,.T.);
#245=ORIENTED_EDGE('',*,*,#357,.T.);
#246=ORIENTED_EDGE('',*,*,#346,.F.);
#247=ORIENTED_EDGE('',*,*,#310,.T.);
#248=ORIENTED_EDGE('',*,*,#348,.T.);
#249=ORIENTED_EDGE('',*,*,#350,.T.);
#250=ORIENTED_EDGE('',*,*,#352,.F.);
#251=ORIENTED_EDGE('',*,*,#355,.T.);
#252=ORIENTED_EDGE('',*,*,#354,.F.);
#253=ORIENTED_EDGE('',*,*,#357,.F.);
#254=ORIENTED_EDGE('',*,*,#356,.F.);
#255=ORIENTED_EDGE('',*,*,#338,.F.);
#256=ORIENTED_EDGE('',*,*,#353,.F.);
#257=ORIENTED_EDGE('',*,*,#339,.F.);
#258=EDGE_CURVE('',#358,#359,#428,.T.);
#259=EDGE_CURVE('',#360,#358,#429,.T.);
#260=EDGE_CURVE('',#360,#361,#430,.T.);
#261=EDGE_CURVE('',#361,#359,#431,.T.);
#262=EDGE_CURVE('',#362,#358,#432,.T.);
#263=EDGE_CURVE('',#363,#362,#433,.T.);
#264=EDGE_CURVE('',#363,#360,#434,.T.);
#265=EDGE_CURVE('',#362,#364,#14,.T.);
#266=EDGE_CURVE('',#365,#364,#435,.T.);
#267=EDGE_CURVE('',#363,#365,#15,.T.);
#268=EDGE_CURVE('',#364,#366,#436,.T.);
#269=EDGE_CURVE('',#367,#366,#437,.T.);
#270=EDGE_CURVE('',#365,#367,#438,.T.);
#271=EDGE_CURVE('',#366,#368,#16,.T.);
#272=EDGE_CURVE('',#369,#368,#439,.T.);
#273=EDGE_CURVE('',#367,#369,#17,.T.);
#274=EDGE_CURVE('',#368,#370,#440,.T.);
#275=EDGE_CURVE('',#371,#370,#441,.T.);
#276=EDGE_CURVE('',#369,#371,#442,.T.);
#277=EDGE_CURVE('',#372,#370,#443,.T.);
#278=EDGE_CURVE('',#373,#372,#444,.T.);
#279=EDGE_CURVE('',#373,#371,#445,.T.);
#280=EDGE_CURVE('',#374,#372,#446,.T.);
#281=EDGE_CURVE('',#375,#374,#447,.T.);
#282=EDGE_CURVE('',#375,#373,#448,.T.);
#283=EDGE_CURVE('',#374,#376,#18,.T.);
#284=EDGE_CURVE('',#377,#376,#449,.T.);
#285=EDGE_CURVE('',#375,#377,#19,.T.);
#286=EDGE_CURVE('',#378,#376,#450,.T.);
#287=EDGE_CURVE('',#379,#378,#451,.T.);
#288=EDGE_CURVE('',#379,#377,#452,.T.);
#289=EDGE_CURVE('',#378,#380,#20,.T.);
#290=EDGE_CURVE('',#381,#380,#453,.T.);
#291=EDGE_CURVE('',#379,#381,#21,.T.);
#292=EDGE_CURVE('',#380,#382,#454,.T.);
#293=EDGE_CURVE('',#383,#382,#455,.T.);
#294=EDGE_CURVE('',#381,#383,#456,.T.);
#295=EDGE_CURVE('',#384,#382,#457,.T.);
#296=EDGE_CURVE('',#385,#384,#458,.T.);
#297=EDGE_CURVE('',#385,#383,#459,.T.);
#298=EDGE_CURVE('',#384,#386,#22,.T.);
#299=EDGE_CURVE('',#387,#386,#460,.T.);
#300=EDGE_CURVE('',#385,#387,#23,.T.);
#301=EDGE_CURVE('',#388,#386,#461,.T.);
#302=EDGE_CURVE('',#389,#388,#462,.T.);
#303=EDGE_CURVE('',#389,#387,#463,.T.);
#304=EDGE_CURVE('',#388,#390,#464,.T.);
#305=EDGE_CURVE('',#391,#390,#465,.T.);
#306=EDGE_CURVE('',#392,#391,#466,.T.);
#307=EDGE_CURVE('',#392,#393,#467,.T.);
#308=EDGE_CURVE('',#394,#393,#468,.T.);
#309=EDGE_CURVE('',#395,#394,#469,.T.);
#310=EDGE_CURVE('',#396,#395,#470,.T.);
#311=EDGE_CURVE('',#396,#397,#471,.T.);
#312=EDGE_CURVE('',#398,#397,#472,.T.);
#313=EDGE_CURVE('',#399,#398,#473,.T.);
#314=EDGE_CURVE('',#389,#399,#474,.T.);
#315=EDGE_CURVE('',#398,#400,#475,.T.);
#316=EDGE_CURVE('',#401,#400,#476,.T.);
#317=EDGE_CURVE('',#399,#401,#477,.T.);
#318=EDGE_CURVE('',#402,#400,#24,.T.);
#319=EDGE_CURVE('',#403,#402,#478,.T.);
#320=EDGE_CURVE('',#403,#401,#25,.T.);
#321=EDGE_CURVE('',#402,#404,#479,.T.);
#322=EDGE_CURVE('',#405,#404,#480,.T.);
#323=EDGE_CURVE('',#403,#405,#481,.T.);
#324=EDGE_CURVE('',#406,#404,#26,.T.);
#325=EDGE_CURVE('',#407,#406,#482,.T.);
#326=EDGE_CURVE('',#407,#405,#27,.T.);
#327=EDGE_CURVE('',#393,#406,#483,.T.);
#328=EDGE_CURVE('',#392,#407,#484,.T.);
#329=EDGE_CURVE('',#390,#408,#485,.T.);
#330=EDGE_CURVE('',#409,#408,#486,.T.);
#331=EDGE_CURVE('',#391,#409,#487,.T.);
#332=EDGE_CURVE('',#410,#410,#28,.T.);
#333=EDGE_CURVE('',#411,#411,#29,.T.);
#334=EDGE_CURVE('',#408,#359,#30,.T.);
#335=EDGE_CURVE('',#409,#361,#31,.T.);
#336=EDGE_CURVE('',#412,#412,#32,.T.);
#337=EDGE_CURVE('',#413,#413,#33,.T.);
#338=EDGE_CURVE('',#414,#414,#34,.T.);
#339=EDGE_CURVE('',#415,#415,#35,.T.);
#340=EDGE_CURVE('',#397,#416,#488,.T.);
#341=EDGE_CURVE('',#417,#416,#36,.T.);
#342=EDGE_CURVE('',#417,#418,#489,.T.);
#343=EDGE_CURVE('',#419,#418,#37,.T.);
#344=EDGE_CURVE('',#394,#419,#490,.T.);
#345=EDGE_CURVE('',#420,#416,#491,.T.);
#346=EDGE_CURVE('',#396,#420,#492,.T.);
#347=EDGE_CURVE('',#421,#419,#493,.T.);
#348=EDGE_CURVE('',#395,#421,#494,.T.);
#349=EDGE_CURVE('',#422,#418,#495,.T.);
#350=EDGE_CURVE('',#421,#422,#38,.T.);
#351=EDGE_CURVE('',#423,#417,#496,.T.);
#352=EDGE_CURVE('',#423,#422,#497,.T.);
#353=EDGE_CURVE('',#424,#424,#39,.F.);
#354=EDGE_CURVE('',#425,#425,#40,.T.);
#355=EDGE_CURVE('',#423,#420,#41,.T.);
#356=EDGE_CURVE('',#426,#426,#42,.F.);
#357=EDGE_CURVE('',#427,#427,#43,.T.);
#358=VERTEX_POINT('',#1024);
#359=VERTEX_POINT('',#1025);
#360=VERTEX_POINT('',#1027);
#361=VERTEX_POINT('',#1029);
#362=VERTEX_POINT('',#1033);
#363=VERTEX_POINT('',#1035);
#364=VERTEX_POINT('',#1039);
#365=VERTEX_POINT('',#1041);
#366=VERTEX_POINT('',#1045);
#367=VERTEX_POINT('',#1047);
#368=VERTEX_POINT('',#1051);
#369=VERTEX_POINT('',#1053);
#370=VERTEX_POINT('',#1057);
#371=VERTEX_POINT('',#1059);
#372=VERTEX_POINT('',#1063);
#373=VERTEX_POINT('',#1065);
#374=VERTEX_POINT('',#1069);
#375=VERTEX_POINT('',#1071);
#376=VERTEX_POINT('',#1075);
#377=VERTEX_POINT('',#1077);
#378=VERTEX_POINT('',#1081);
#379=VERTEX_POINT('',#1083);
#380=VERTEX_POINT('',#1087);
#381=VERTEX_POINT('',#1089);
#382=VERTEX_POINT('',#1093);
#383=VERTEX_POINT('',#1095);
#384=VERTEX_POINT('',#1099);
#385=VERTEX_POINT('',#1101);
#386=VERTEX_POINT('',#1105);
#387=VERTEX_POINT('',#1107);
#388=VERTEX_POINT('',#1111);
#389=VERTEX_POINT('',#1113);
#390=VERTEX_POINT('',#1117);
#391=VERTEX_POINT('',#1119);
#392=VERTEX_POINT('',#1121);
#393=VERTEX_POINT('',#1123);
#394=VERTEX_POINT('',#1125);
#395=VERTEX_POINT('',#1127);
#396=VERTEX_POINT('',#1129);
#397=VERTEX_POINT('',#1131);
#398=VERTEX_POINT('',#1133);
#399=VERTEX_POINT('',#1135);
#400=VERTEX_POINT('',#1139);
#401=VERTEX_POINT('',#1141);
#402=VERTEX_POINT('',#1145);
#403=VERTEX_POINT('',#1147);
#404=VERTEX_POINT('',#1151);
#405=VERTEX_POINT('',#1153);
#406=VERTEX_POINT('',#1157);
#407=VERTEX_POINT('',#1159);
#408=VERTEX_POINT('',#1166);
#409=VERTEX_POINT('',#1168);
#410=VERTEX_POINT('',#1172);
#411=VERTEX_POINT('',#1174);
#412=VERTEX_POINT('',#1180);
#413=VERTEX_POINT('',#1182);
#414=VERTEX_POINT('',#1186);
#415=VERTEX_POINT('',#1188);
#416=VERTEX_POINT('',#1191);
#417=VERTEX_POINT('',#1193);
#418=VERTEX_POINT('',#1195);
#419=VERTEX_POINT('',#1197);
#420=VERTEX_POINT('',#1201);
#421=VERTEX_POINT('',#1205);
#422=VERTEX_POINT('',#1209);
#423=VERTEX_POINT('',#1213);
#424=VERTEX_POINT('',#1217);
#425=VERTEX_POINT('',#1219);
#426=VERTEX_POINT('',#1224);
#427=VERTEX_POINT('',#1226);
#428=LINE('',#1023,#498);
#429=LINE('',#1026,#499);
#430=LINE('',#1028,#500);
#431=LINE('',#1030,#501);
#432=LINE('',#1032,#502);
#433=LINE('',#1034,#503);
#434=LINE('',#1036,#504);
#435=LINE('',#1040,#505);
#436=LINE('',#1044,#506);
#437=LINE('',#1046,#507);
#438=LINE('',#1048,#508);
#439=LINE('',#1052,#509);
#440=LINE('',#1056,#510);
#441=LINE('',#1058,#511);
#442=LINE('',#1060,#512);
#443=LINE('',#1062,#513);
#444=LINE('',#1064,#514);
#445=LINE('',#1066,#515);
#446=LINE('',#1068,#516);
#447=LINE('',#1070,#517);
#448=LINE('',#1072,#518);
#449=LINE('',#1076,#519);
#450=LINE('',#1080,#520);
#451=LINE('',#1082,#521);
#452=LINE('',#1084,#522);
#453=LINE('',#1088,#523);
#454=LINE('',#1092,#524);
#455=LINE('',#1094,#525);
#456=LINE('',#1096,#526);
#457=LINE('',#1098,#527);
#458=LINE('',#1100,#528);
#459=LINE('',#1102,#529);
#460=LINE('',#1106,#530);
#461=LINE('',#1110,#531);
#462=LINE('',#1112,#532);
#463=LINE('',#1114,#533);
#464=LINE('',#1116,#534);
#465=LINE('',#1118,#535);
#466=LINE('',#1120,#536);
#467=LINE('',#1122,#537);
#468=LINE('',#1124,#538);
#469=LINE('',#1126,#539);
#470=LINE('',#1128,#540);
#471=LINE('',#1130,#541);
#472=LINE('',#1132,#542);
#473=LINE('',#1134,#543);
#474=LINE('',#1136,#544);
#475=LINE('',#1138,#545);
#476=LINE('',#1140,#546);
#477=LINE('',#1142,#547);
#478=LINE('',#1146,#548);
#479=LINE('',#1150,#549);
#480=LINE('',#1152,#550);
#481=LINE('',#1154,#551);
#482=LINE('',#1158,#552);
#483=LINE('',#1162,#553);
#484=LINE('',#1163,#554);
#485=LINE('',#1165,#555);
#486=LINE('',#1167,#556);
#487=LINE('',#1169,#557);
#488=LINE('',#1190,#558);
#489=LINE('',#1194,#559);
#490=LINE('',#1198,#560);
#491=LINE('',#1200,#561);
#492=LINE('',#1202,#562);
#493=LINE('',#1204,#563);
#494=LINE('',#1206,#564);
#495=LINE('',#1208,#565);
#496=LINE('',#1212,#566);
#497=LINE('',#1214,#567);
#498=VECTOR('',#817,1.);
#499=VECTOR('',#818,1.);
#500=VECTOR('',#819,1.);
#501=VECTOR('',#820,1.);
#502=VECTOR('',#823,1.);
#503=VECTOR('',#824,1.);
#504=VECTOR('',#825,1.);
#505=VECTOR('',#830,1.);
#506=VECTOR('',#835,1.);
#507=VECTOR('',#836,1.);
#508=VECTOR('',#837,1.);
#509=VECTOR('',#842,1.);
#510=VECTOR('',#847,1.);
#511=VECTOR('',#848,1.);
#512=VECTOR('',#849,1.);
#513=VECTOR('',#852,1.);
#514=VECTOR('',#853,1.);
#515=VECTOR('',#854,1.);
#516=VECTOR('',#857,1.);
#517=VECTOR('',#858,1.);
#518=VECTOR('',#859,1.);
#519=VECTOR('',#864,1.);
#520=VECTOR('',#869,1.);
#521=VECTOR('',#870,1.);
#522=VECTOR('',#871,1.);
#523=VECTOR('',#876,1.);
#524=VECTOR('',#881,1.);
#525=VECTOR('',#882,1.);
#526=VECTOR('',#883,1.);
#527=VECTOR('',#886,1.);
#528=VECTOR('',#887,1.);
#529=VECTOR('',#888,1.);
#530=VECTOR('',#893,1.);
#531=VECTOR('',#898,1.);
#532=VECTOR('',#899,1.);
#533=VECTOR('',#900,1.);
#534=VECTOR('',#903,1.);
#535=VECTOR('',#904,1.);
#536=VECTOR('',#905,1.);
#537=VECTOR('',#906,1.);
#538=VECTOR('',#907,1.);
#539=VECTOR('',#908,1.);
#540=VECTOR('',#909,1.);
#541=VECTOR('',#910,1.);
#542=VECTOR('',#911,1.);
#543=VECTOR('',#912,1.);
#544=VECTOR('',#913,1.);
#545=VECTOR('',#916,1.);
#546=VECTOR('',#917,1.);
#547=VECTOR('',#918,1.);
#548=VECTOR('',#923,1.);
#549=VECTOR('',#928,1.);
#550=VECTOR('',#929,1.);
#551=VECTOR('',#930,1.);
#552=VECTOR('',#935,1.);
#553=VECTOR('',#940,1.);
#554=VECTOR('',#941,1.);
#555=VECTOR('',#944,1.);
#556=VECTOR('',#945,1.);
#557=VECTOR('',#946,1.);
#558=VECTOR('',#975,1.);
#559=VECTOR('',#978,1.);
#560=VECTOR('',#981,1.);
#561=VECTOR('',#984,1.);
#562=VECTOR('',#985,1.);
#563=VECTOR('',#988,1.);
#564=VECTOR('',#989,1.);
#565=VECTOR('',#992,1.);
#566=VECTOR('',#997,1.);
#567=VECTOR('',#998,1.);
#568=EDGE_LOOP('',(#58,#59,#60,#61));
#569=EDGE_LOOP('',(#62,#63,#64,#65));
#570=EDGE_LOOP('',(#66,#67,#68,#69));
#571=EDGE_LOOP('',(#70,#71,#72,#73));
#572=EDGE_LOOP('',(#74,#75,#76,#77));
#573=EDGE_LOOP('',(#78,#79,#80,#81));
#574=EDGE_LOOP('',(#82,#83,#84,#85));
#575=EDGE_LOOP('',(#86,#87,#88,#89));
#576=EDGE_LOOP('',(#90,#91,#92,#93));
#577=EDGE_LOOP('',(#94,#95,#96,#97));
#578=EDGE_LOOP('',(#98,#99,#100,#101));
#579=EDGE_LOOP('',(#102,#103,#104,#105));
#580=EDGE_LOOP('',(#106,#107,#108,#109));
#581=EDGE_LOOP('',(#110,#111,#112,#113));
#582=EDGE_LOOP('',(#114,#115,#116,#117));
#583=EDGE_LOOP('',(#118,#119,#120,#121,#122,#123,#124,#125,#126,#127,#128,
#129));
#584=EDGE_LOOP('',(#130,#131,#132,#133));
#585=EDGE_LOOP('',(#134,#135,#136,#137));
#586=EDGE_LOOP('',(#138,#139,#140,#141));
#587=EDGE_LOOP('',(#142,#143,#144,#145));
#588=EDGE_LOOP('',(#146,#147,#148,#149));
#589=EDGE_LOOP('',(#150,#151,#152,#153));
#590=EDGE_LOOP('',(#154));
#591=EDGE_LOOP('',(#155));
#592=EDGE_LOOP('',(#156,#157,#158,#159));
#593=EDGE_LOOP('',(#160));
#594=EDGE_LOOP('',(#161));
#595=EDGE_LOOP('',(#162,#163,#164,#165,#166,#167,#168,#169,#170,#171,#172,
#173,#174,#175,#176,#177,#178,#179,#180,#181,#182,#183,#184,#185));
#596=EDGE_LOOP('',(#186));
#597=EDGE_LOOP('',(#187));
#598=EDGE_LOOP('',(#188));
#599=EDGE_LOOP('',(#189));
#600=EDGE_LOOP('',(#190,#191,#192,#193,#194,#195,#196,#197,#198,#199,#200,
#201,#202,#203,#204,#205,#206,#207));
#601=EDGE_LOOP('',(#208));
#602=EDGE_LOOP('',(#209));
#603=EDGE_LOOP('',(#210,#211,#212,#213,#214,#215,#216,#217,#218,#219,#220,
#221));
#604=EDGE_LOOP('',(#222,#223,#224,#225));
#605=EDGE_LOOP('',(#226,#227,#228,#229));
#606=EDGE_LOOP('',(#230,#231,#232,#233));
#607=EDGE_LOOP('',(#234,#235,#236,#237));
#608=EDGE_LOOP('',(#238));
#609=EDGE_LOOP('',(#239));
#610=EDGE_LOOP('',(#240,#241,#242,#243));
#611=EDGE_LOOP('',(#244));
#612=EDGE_LOOP('',(#245));
#613=EDGE_LOOP('',(#246,#247,#248,#249,#250,#251));
#614=EDGE_LOOP('',(#252));
#615=EDGE_LOOP('',(#253));
#616=EDGE_LOOP('',(#254));
#617=EDGE_LOOP('',(#255));
#618=EDGE_LOOP('',(#256));
#619=EDGE_LOOP('',(#257));
#620=FACE_BOUND('',#568,.T.);
#621=FACE_BOUND('',#569,.T.);
#622=FACE_BOUND('',#570,.T.);
#623=FACE_BOUND('',#571,.T.);
#624=FACE_BOUND('',#572,.T.);
#625=FACE_BOUND('',#573,.T.);
#626=FACE_BOUND('',#574,.T.);
#627=FACE_BOUND('',#575,.T.);
#628=FACE_BOUND('',#576,.T.);
#629=FACE_BOUND('',#577,.T.);
#630=FACE_BOUND('',#578,.T.);
#631=FACE_BOUND('',#579,.T.);
#632=FACE_BOUND('',#580,.T.);
#633=FACE_BOUND('',#581,.T.);
#634=FACE_BOUND('',#582,.T.);
#635=FACE_BOUND('',#583,.T.);
#636=FACE_BOUND('',#584,.T.);
#637=FACE_BOUND('',#585,.T.);
#638=FACE_BOUND('',#586,.T.);
#639=FACE_BOUND('',#587,.T.);
#640=FACE_BOUND('',#588,.T.);
#641=FACE_BOUND('',#589,.T.);
#642=FACE_BOUND('',#590,.T.);
#643=FACE_BOUND('',#591,.T.);
#644=FACE_BOUND('',#592,.T.);
#645=FACE_BOUND('',#593,.T.);
#646=FACE_BOUND('',#594,.T.);
#647=FACE_BOUND('',#595,.T.);
#648=FACE_BOUND('',#596,.T.);
#649=FACE_BOUND('',#597,.T.);
#650=FACE_BOUND('',#598,.T.);
#651=FACE_BOUND('',#599,.T.);
#652=FACE_BOUND('',#600,.T.);
#653=FACE_BOUND('',#601,.T.);
#654=FACE_BOUND('',#602,.T.);
#655=FACE_BOUND('',#603,.T.);
#656=FACE_BOUND('',#604,.T.);
#657=FACE_BOUND('',#605,.T.);
#658=FACE_BOUND('',#606,.T.);
#659=FACE_BOUND('',#607,.T.);
#660=FACE_BOUND('',#608,.T.);
#661=FACE_BOUND('',#609,.T.);
#662=FACE_BOUND('',#610,.T.);
#663=FACE_BOUND('',#611,.T.);
#664=FACE_BOUND('',#612,.T.);
#665=FACE_BOUND('',#613,.T.);
#666=FACE_BOUND('',#614,.T.);
#667=FACE_BOUND('',#615,.T.);
#668=FACE_BOUND('',#616,.T.);
#669=FACE_BOUND('',#617,.T.);
#670=FACE_BOUND('',#618,.T.);
#671=FACE_BOUND('',#619,.T.);
#672=PLANE('',#745);
#673=PLANE('',#746);
#674=PLANE('',#750);
#675=PLANE('',#754);
#676=PLANE('',#755);
#677=PLANE('',#756);
#678=PLANE('',#760);
#679=PLANE('',#764);
#680=PLANE('',#765);
#681=PLANE('',#769);
#682=PLANE('',#770);
#683=PLANE('',#771);
#684=PLANE('',#775);
#685=PLANE('',#779);
#686=PLANE('',#780);
#687=PLANE('',#790);
#688=PLANE('',#791);
#689=PLANE('',#794);
#690=PLANE('',#797);
#691=PLANE('',#798);
#692=PLANE('',#801);
#693=PLANE('',#810);
#694=ADVANCED_FACE('',(#620),#672,.T.);
#695=ADVANCED_FACE('',(#621),#673,.T.);
#696=ADVANCED_FACE('',(#622),#44,.T.);
#697=ADVANCED_FACE('',(#623),#674,.F.);
#698=ADVANCED_FACE('',(#624),#45,.T.);
#699=ADVANCED_FACE('',(#625),#675,.F.);
#700=ADVANCED_FACE('',(#626),#676,.T.);
#701=ADVANCED_FACE('',(#627),#677,.T.);
#702=ADVANCED_FACE('',(#628),#46,.T.);
#703=ADVANCED_FACE('',(#629),#678,.T.);
#704=ADVANCED_FACE('',(#630),#47,.T.);
#705=ADVANCED_FACE('',(#631),#679,.F.);
#706=ADVANCED_FACE('',(#632),#680,.T.);
#707=ADVANCED_FACE('',(#633),#48,.T.);
#708=ADVANCED_FACE('',(#634),#681,.T.);
#709=ADVANCED_FACE('',(#635),#682,.F.);
#710=ADVANCED_FACE('',(#636),#683,.F.);
#711=ADVANCED_FACE('',(#637),#49,.F.);
#712=ADVANCED_FACE('',(#638),#684,.F.);
#713=ADVANCED_FACE('',(#639),#50,.F.);
#714=ADVANCED_FACE('',(#640),#685,.T.);
#715=ADVANCED_FACE('',(#641),#686,.F.);
#716=ADVANCED_FACE('',(#642,#643),#51,.F.);
#717=ADVANCED_FACE('',(#644),#52,.T.);
#718=ADVANCED_FACE('',(#645,#646),#53,.F.);
#719=ADVANCED_FACE('',(#647,#648,#649),#687,.T.);
#720=ADVANCED_FACE('',(#650,#651,#652,#653,#654),#688,.F.);
#721=ADVANCED_FACE('',(#655),#689,.T.);
#722=ADVANCED_FACE('',(#656),#690,.T.);
#723=ADVANCED_FACE('',(#657),#691,.F.);
#724=ADVANCED_FACE('',(#658),#54,.T.);
#725=ADVANCED_FACE('',(#659),#692,.T.);
#726=ADVANCED_FACE('',(#660,#661),#55,.F.);
#727=ADVANCED_FACE('',(#662),#56,.T.);
#728=ADVANCED_FACE('',(#663,#664),#57,.F.);
#729=ADVANCED_FACE('',(#665,#666,#667),#693,.T.);
#730=ADVANCED_FACE('',(#668,#669),#12,.F.);
#731=ADVANCED_FACE('',(#670,#671),#13,.F.);
#732=CLOSED_SHELL('',(#694,#695,#696,#697,#698,#699,#700,#701,#702,#703,
#704,#705,#706,#707,#708,#709,#710,#711,#712,#713,#714,#715,#716,#717,#718,
#719,#720,#721,#722,#723,#724,#725,#726,#727,#728,#729,#730,#731));
#733=STYLED_ITEM('',(#734),#741);
#734=PRESENTATION_STYLE_ASSIGNMENT((#735));
#735=SURFACE_STYLE_USAGE(.BOTH.,#736);
#736=SURFACE_SIDE_STYLE('',(#737));
#737=SURFACE_STYLE_FILL_AREA(#738);
#738=FILL_AREA_STYLE('',(#739));
#739=FILL_AREA_STYLE_COLOUR('',#740);
#740=COLOUR_RGB('',0.615686274509804,0.811764705882353,0.929411764705882);
#741=MANIFOLD_SOLID_BREP('right',#732);
#742=SHAPE_DEFINITION_REPRESENTATION(#1236,#743);
#743=SHAPE_REPRESENTATION('right',(#744),#1231);
#744=AXIS2_PLACEMENT_3D('',#1021,#813,#814);
#745=AXIS2_PLACEMENT_3D('',#1022,#815,#816);
#746=AXIS2_PLACEMENT_3D('',#1031,#821,#822);
#747=AXIS2_PLACEMENT_3D('',#1037,#826,#827);
#748=AXIS2_PLACEMENT_3D('',#1038,#828,#829);
#749=AXIS2_PLACEMENT_3D('',#1042,#831,#832);
#750=AXIS2_PLACEMENT_3D('',#1043,#833,#834);
#751=AXIS2_PLACEMENT_3D('',#1049,#838,#839);
#752=AXIS2_PLACEMENT_3D('',#1050,#840,#841);
#753=AXIS2_PLACEMENT_3D('',#1054,#843,#844);
#754=AXIS2_PLACEMENT_3D('',#1055,#845,#846);
#755=AXIS2_PLACEMENT_3D('',#1061,#850,#851);
#756=AXIS2_PLACEMENT_3D('',#1067,#855,#856);
#757=AXIS2_PLACEMENT_3D('',#1073,#860,#861);
#758=AXIS2_PLACEMENT_3D('',#1074,#862,#863);
#759=AXIS2_PLACEMENT_3D('',#1078,#865,#866);
#760=AXIS2_PLACEMENT_3D('',#1079,#867,#868);
#761=AXIS2_PLACEMENT_3D('',#1085,#872,#873);
#762=AXIS2_PLACEMENT_3D('',#1086,#874,#875);
#763=AXIS2_PLACEMENT_3D('',#1090,#877,#878);
#764=AXIS2_PLACEMENT_3D('',#1091,#879,#880);
#765=AXIS2_PLACEMENT_3D('',#1097,#884,#885);
#766=AXIS2_PLACEMENT_3D('',#1103,#889,#890);
#767=AXIS2_PLACEMENT_3D('',#1104,#891,#892);
#768=AXIS2_PLACEMENT_3D('',#1108,#894,#895);
#769=AXIS2_PLACEMENT_3D('',#1109,#896,#897);
#770=AXIS2_PLACEMENT_3D('',#1115,#901,#902);
#771=AXIS2_PLACEMENT_3D('',#1137,#914,#915);
#772=AXIS2_PLACEMENT_3D('',#1143,#919,#920);
#773=AXIS2_PLACEMENT_3D('',#1144,#921,#922);
#774=AXIS2_PLACEMENT_3D('',#1148,#924,#925);
#775=AXIS2_PLACEMENT_3D('',#1149,#926,#927);
#776=AXIS2_PLACEMENT_3D('',#1155,#931,#932);
#777=AXIS2_PLACEMENT_3D('',#1156,#933,#934);
#778=AXIS2_PLACEMENT_3D('',#1160,#936,#937);
#779=AXIS2_PLACEMENT_3D('',#1161,#938,#939);
#780=AXIS2_PLACEMENT_3D('',#1164,#942,#943);
#781=AXIS2_PLACEMENT_3D('',#1170,#947,#948);
#782=AXIS2_PLACEMENT_3D('',#1171,#949,#950);
#783=AXIS2_PLACEMENT_3D('',#1173,#951,#952);
#784=AXIS2_PLACEMENT_3D('',#1175,#953,#954);
#785=AXIS2_PLACEMENT_3D('',#1176,#955,#956);
#786=AXIS2_PLACEMENT_3D('',#1177,#957,#958);
#787=AXIS2_PLACEMENT_3D('',#1178,#959,#960);
#788=AXIS2_PLACEMENT_3D('',#1179,#961,#962);
#789=AXIS2_PLACEMENT_3D('',#1181,#963,#964);
#790=AXIS2_PLACEMENT_3D('',#1183,#965,#966);
#791=AXIS2_PLACEMENT_3D('',#1184,#967,#968);
#792=AXIS2_PLACEMENT_3D('',#1185,#969,#970);
#793=AXIS2_PLACEMENT_3D('',#1187,#971,#972);
#794=AXIS2_PLACEMENT_3D('',#1189,#973,#974);
#795=AXIS2_PLACEMENT_3D('',#1192,#976,#977);
#796=AXIS2_PLACEMENT_3D('',#1196,#979,#980);
#797=AXIS2_PLACEMENT_3D('',#1199,#982,#983);
#798=AXIS2_PLACEMENT_3D('',#1203,#986,#987);
#799=AXIS2_PLACEMENT_3D('',#1207,#990,#991);
#800=AXIS2_PLACEMENT_3D('',#1210,#993,#994);
#801=AXIS2_PLACEMENT_3D('',#1211,#995,#996);
#802=AXIS2_PLACEMENT_3D('',#1215,#999,#1000);
#803=AXIS2_PLACEMENT_3D('',#1216,#1001,#1002);
#804=AXIS2_PLACEMENT_3D('',#1218,#1003,#1004);
#805=AXIS2_PLACEMENT_3D('',#1220,#1005,#1006);
#806=AXIS2_PLACEMENT_3D('',#1221,#1007,#1008);
#807=AXIS2_PLACEMENT_3D('',#1222,#1009,#1010);
#808=AXIS2_PLACEMENT_3D('',#1223,#1011,#1012);
#809=AXIS2_PLACEMENT_3D('',#1225,#1013,#1014);
#810=AXIS2_PLACEMENT_3D('',#1227,#1015,#1016);
#811=AXIS2_PLACEMENT_3D('',#1228,#1017,#1018);
#812=AXIS2_PLACEMENT_3D('',#1229,#1019,#1020);
#813=DIRECTION('',(0.,0.,1.));
#814=DIRECTION('',(1.,0.,0.));
#815=DIRECTION('',(1.,0.,0.));
#816=DIRECTION('',(0.,0.,-1.));
#817=DIRECTION('',(0.,-1.,0.));
#818=DIRECTION('',(0.,0.,-1.));
#819=DIRECTION('',(0.,-1.,0.));
#820=DIRECTION('',(0.,0.,-1.));
#821=DIRECTION('',(0.,-1.,0.));
#822=DIRECTION('',(0.,0.,-1.));
#823=DIRECTION('',(-1.,0.,0.));
#824=DIRECTION('',(0.,0.,-1.));
#825=DIRECTION('',(-1.,0.,0.));
#826=DIRECTION('',(0.,0.,-1.));
#827=DIRECTION('',(-1.,0.,0.));
#828=DIRECTION('',(0.,0.,1.));
#829=DIRECTION('',(1.,0.,0.));
#830=DIRECTION('',(0.,0.,-1.));
#831=DIRECTION('',(0.,0.,1.));
#832=DIRECTION('',(1.,0.,0.));
#833=DIRECTION('',(-1.,0.,0.));
#834=DIRECTION('',(0.,0.,1.));
#835=DIRECTION('',(0.,1.,0.));
#836=DIRECTION('',(0.,0.,-1.));
#837=DIRECTION('',(0.,1.,0.));
#838=DIRECTION('',(0.,0.,-1.));
#839=DIRECTION('',(-1.,0.,0.));
#840=DIRECTION('',(0.,0.,1.));
#841=DIRECTION('',(1.,0.,0.));
#842=DIRECTION('',(0.,0.,-1.));
#843=DIRECTION('',(0.,0.,1.));
#844=DIRECTION('',(1.,0.,0.));
#845=DIRECTION('',(0.,-1.,0.));
#846=DIRECTION('',(0.,0.,-1.));
#847=DIRECTION('',(-1.,0.,0.));
#848=DIRECTION('',(0.,0.,-1.));
#849=DIRECTION('',(-1.,0.,0.));
#850=DIRECTION('',(1.,0.,0.));
#851=DIRECTION('',(0.,0.,-1.));
#852=DIRECTION('',(0.,-1.,0.));
#853=DIRECTION('',(0.,0.,-1.));
#854=DIRECTION('',(0.,-1.,0.));
#855=DIRECTION('',(0.,-1.,0.));
#856=DIRECTION('',(0.,0.,-1.));
#857=DIRECTION('',(-1.,0.,0.));
#858=DIRECTION('',(0.,0.,-1.));
#859=DIRECTION('',(-1.,0.,0.));
#860=DIRECTION('',(0.,0.,-1.));
#861=DIRECTION('',(-1.,0.,0.));
#862=DIRECTION('',(0.,0.,1.));
#863=DIRECTION('',(1.,0.,0.));
#864=DIRECTION('',(0.,0.,-1.));
#865=DIRECTION('',(0.,0.,1.));
#866=DIRECTION('',(1.,0.,0.));
#867=DIRECTION('',(1.,0.,0.));
#868=DIRECTION('',(0.,0.,-1.));
#869=DIRECTION('',(0.,-1.,0.));
#870=DIRECTION('',(0.,0.,-1.));
#871=DIRECTION('',(0.,-1.,0.));
#872=DIRECTION('',(0.,0.,-1.));
#873=DIRECTION('',(-1.,0.,0.));
#874=DIRECTION('',(0.,0.,1.));
#875=DIRECTION('',(1.,0.,0.));
#876=DIRECTION('',(0.,0.,-1.));
#877=DIRECTION('',(0.,0.,1.));
#878=DIRECTION('',(1.,0.,0.));
#879=DIRECTION('',(0.,-1.,0.));
#880=DIRECTION('',(0.,0.,-1.));
#881=DIRECTION('',(-1.,0.,0.));
#882=DIRECTION('',(0.,0.,-1.));
#883=DIRECTION('',(-1.,0.,0.));
#884=DIRECTION('',(1.,0.,0.));
#885=DIRECTION('',(0.,0.,-1.));
#886=DIRECTION('',(0.,-1.,0.));
#887=DIRECTION('',(0.,0.,-1.));
#888=DIRECTION('',(0.,-1.,0.));
#889=DIRECTION('',(0.,0.,-1.));
#890=DIRECTION('',(-1.,0.,0.));
#891=DIRECTION('',(0.,0.,1.));
#892=DIRECTION('',(1.,0.,0.));
#893=DIRECTION('',(0.,0.,-1.));
#894=DIRECTION('',(0.,0.,1.));
#895=DIRECTION('',(1.,0.,0.));
#896=DIRECTION('',(0.,1.,0.));
#897=DIRECTION('',(0.,0.,1.));
#898=DIRECTION('',(1.,0.,0.));
#899=DIRECTION('',(0.,0.,-1.));
#900=DIRECTION('',(1.,0.,0.));
#901=DIRECTION('',(1.,0.,0.));
#902=DIRECTION('',(0.,0.,-1.));
#903=DIRECTION('',(0.,-1.,0.));
#904=DIRECTION('',(0.,0.,-1.));
#905=DIRECTION('',(0.,-1.,0.));
#906=DIRECTION('',(0.,0.,-1.));
#907=DIRECTION('',(0.,-1.,0.));
#908=DIRECTION('',(0.,0.,-1.));
#909=DIRECTION('',(-1.49625744558646E-16,-1.,0.));
#910=DIRECTION('',(0.,0.,-1.));
#911=DIRECTION('',(0.,-1.,0.));
#912=DIRECTION('',(0.,0.,-1.));
#913=DIRECTION('',(0.,-1.,0.));
#914=DIRECTION('',(0.,1.,0.));
#915=DIRECTION('',(0.,0.,1.));
#916=DIRECTION('',(1.,0.,0.));
#917=DIRECTION('',(0.,0.,-1.));
#918=DIRECTION('',(1.,0.,0.));
#919=DIRECTION('',(0.,0.,-1.));
#920=DIRECTION('',(-1.,0.,0.));
#921=DIRECTION('',(0.,0.,1.));
#922=DIRECTION('',(1.,0.,0.));
#923=DIRECTION('',(0.,0.,-1.));
#924=DIRECTION('',(0.,0.,1.));
#925=DIRECTION('',(1.,0.,0.));
#926=DIRECTION('',(1.,0.,0.));
#927=DIRECTION('',(0.,0.,-1.));
#928=DIRECTION('',(0.,-1.,0.));
#929=DIRECTION('',(0.,0.,-1.));
#930=DIRECTION('',(0.,-1.,0.));
#931=DIRECTION('',(0.,0.,-1.));
#932=DIRECTION('',(-1.,0.,0.));
#933=DIRECTION('',(0.,0.,1.));
#934=DIRECTION('',(1.,0.,0.));
#935=DIRECTION('',(0.,0.,-1.));
#936=DIRECTION('',(0.,0.,1.));
#937=DIRECTION('',(1.,0.,0.));
#938=DIRECTION('',(0.,1.,0.));
#939=DIRECTION('',(0.,0.,1.));
#940=DIRECTION('',(1.,0.,0.));
#941=DIRECTION('',(1.,0.,0.));
#942=DIRECTION('',(0.,1.,0.));
#943=DIRECTION('',(0.,0.,1.));
#944=DIRECTION('',(1.,0.,0.));
#945=DIRECTION('',(0.,0.,-1.));
#946=DIRECTION('',(1.,0.,0.));
#947=DIRECTION('',(0.,0.,-1.));
#948=DIRECTION('',(-1.,0.,0.));
#949=DIRECTION('',(0.,0.,1.));
#950=DIRECTION('',(1.,0.,0.));
#951=DIRECTION('',(0.,0.,1.));
#952=DIRECTION('',(1.,0.,0.));
#953=DIRECTION('',(0.,0.,-1.));
#954=DIRECTION('',(-1.,0.,0.));
#955=DIRECTION('',(0.,0.,1.));
#956=DIRECTION('',(1.,0.,0.));
#957=DIRECTION('',(0.,0.,1.));
#958=DIRECTION('',(1.,0.,0.));
#959=DIRECTION('',(0.,0.,-1.));
#960=DIRECTION('',(-1.,0.,0.));
#961=DIRECTION('',(0.,0.,1.));
#962=DIRECTION('',(1.,0.,0.));
#963=DIRECTION('',(0.,0.,1.));
#964=DIRECTION('',(1.,0.,0.));
#965=DIRECTION('',(0.,0.,1.));
#966=DIRECTION('',(1.,0.,0.));
#967=DIRECTION('',(0.,0.,1.));
#968=DIRECTION('',(1.,0.,0.));
#969=DIRECTION('',(0.,0.,1.));
#970=DIRECTION('',(1.,0.,0.));
#971=DIRECTION('',(0.,0.,1.));
#972=DIRECTION('',(1.,0.,0.));
#973=DIRECTION('',(0.,0.,1.));
#974=DIRECTION('',(1.,0.,0.));
#975=DIRECTION('',(1.,0.,0.));
#976=DIRECTION('',(0.,0.,1.));
#977=DIRECTION('',(1.,0.,0.));
#978=DIRECTION('',(3.2557859959682E-16,-1.,0.));
#979=DIRECTION('',(0.,0.,1.));
#980=DIRECTION('',(1.,0.,0.));
#981=DIRECTION('',(1.,0.,0.));
#982=DIRECTION('',(0.,1.,0.));
#983=DIRECTION('',(0.,0.,1.));
#984=DIRECTION('',(0.,0.,-1.));
#985=DIRECTION('',(1.,0.,0.));
#986=DIRECTION('',(0.,1.,0.));
#987=DIRECTION('',(0.,0.,1.));
#988=DIRECTION('',(0.,0.,-1.));
#989=DIRECTION('',(1.,0.,0.));
#990=DIRECTION('',(0.,0.,-1.));
#991=DIRECTION('',(-1.,0.,0.));
#992=DIRECTION('',(0.,0.,-1.));
#993=DIRECTION('',(0.,0.,1.));
#994=DIRECTION('',(1.,0.,0.));
#995=DIRECTION('',(1.,3.2557859959682E-16,0.));
#996=DIRECTION('',(-3.2557859959682E-16,1.,0.));
#997=DIRECTION('',(0.,0.,-1.));
#998=DIRECTION('',(3.2557859959682E-16,-1.,0.));
#999=DIRECTION('',(0.,0.,-1.));
#1000=DIRECTION('',(-1.,0.,0.));
#1001=DIRECTION('',(0.,0.,1.));
#1002=DIRECTION('',(1.,0.,0.));
#1003=DIRECTION('',(0.,0.,1.));
#1004=DIRECTION('',(1.,0.,0.));
#1005=DIRECTION('',(0.,0.,-1.));
#1006=DIRECTION('',(-1.,0.,0.));
#1007=DIRECTION('',(0.,0.,1.));
#1008=DIRECTION('',(1.,0.,0.));
#1009=DIRECTION('',(0.,0.,-1.));
#1010=DIRECTION('',(-1.,0.,0.));
#1011=DIRECTION('',(0.,0.,1.));
#1012=DIRECTION('',(1.,0.,0.));
#1013=DIRECTION('',(0.,0.,1.));
#1014=DIRECTION('',(1.,0.,0.));
#1015=DIRECTION('',(0.,0.,1.));
#1016=DIRECTION('',(1.,0.,0.));
#1017=DIRECTION('',(0.,0.,-1.));
#1018=DIRECTION('',(-1.,0.,0.));
#1019=DIRECTION('',(0.,0.,-1.));
#1020=DIRECTION('',(-1.,0.,0.));
#1021=CARTESIAN_POINT('',(0.,0.,0.));
#1022=CARTESIAN_POINT('',(0.1475,-0.080625,0.005));
#1023=CARTESIAN_POINT('',(0.1475,-0.080625,0.));
#1024=CARTESIAN_POINT('',(0.1475,-0.076,0.));
#1025=CARTESIAN_POINT('',(0.1475,-0.08525,0.));
#1026=CARTESIAN_POINT('',(0.1475,-0.076,0.005));
#1027=CARTESIAN_POINT('',(0.1475,-0.076,0.005));
#1028=CARTESIAN_POINT('',(0.1475,-0.080625,0.005));
#1029=CARTESIAN_POINT('',(0.1475,-0.08525,0.005));
#1030=CARTESIAN_POINT('',(0.1475,-0.08525,0.005));
#1031=CARTESIAN_POINT('',(0.15175,-0.076,0.005));
#1032=CARTESIAN_POINT('',(0.15175,-0.076,0.));
#1033=CARTESIAN_POINT('',(0.156,-0.076,0.));
#1034=CARTESIAN_POINT('',(0.156,-0.076,0.005));
#1035=CARTESIAN_POINT('',(0.156,-0.076,0.005));
#1036=CARTESIAN_POINT('',(0.15175,-0.076,0.005));
#1037=CARTESIAN_POINT('',(0.156,-0.0745,0.005));
#1038=CARTESIAN_POINT('',(0.156,-0.0745,0.));
#1039=CARTESIAN_POINT('',(0.1575,-0.0745,0.));
#1040=CARTESIAN_POINT('',(0.1575,-0.0745,0.005));
#1041=CARTESIAN_POINT('',(0.1575,-0.0745,0.005));
#1042=CARTESIAN_POINT('',(0.156,-0.0745,0.005));
#1043=CARTESIAN_POINT('',(0.1575,-0.07,0.005));
#1044=CARTESIAN_POINT('',(0.1575,-0.07,0.));
#1045=CARTESIAN_POINT('',(0.1575,-0.0655,0.));
#1046=CARTESIAN_POINT('',(0.1575,-0.0655,0.005));
#1047=CARTESIAN_POINT('',(0.1575,-0.0655,0.005));
#1048=CARTESIAN_POINT('',(0.1575,-0.07,0.005));
#1049=CARTESIAN_POINT('',(0.156,-0.0655,0.005));
#1050=CARTESIAN_POINT('',(0.156,-0.0655,0.));
#1051=CARTESIAN_POINT('',(0.156,-0.064,0.));
#1052=CARTESIAN_POINT('',(0.156,-0.064,0.005));
#1053=CARTESIAN_POINT('',(0.156,-0.064,0.005));
#1054=CARTESIAN_POINT('',(0.156,-0.0655,0.005));
#1055=CARTESIAN_POINT('',(0.15175,-0.064,0.005));
#1056=CARTESIAN_POINT('',(0.15175,-0.064,0.));
#1057=CARTESIAN_POINT('',(0.1475,-0.064,0.));
#1058=CARTESIAN_POINT('',(0.1475,-0.064,0.005));
#1059=CARTESIAN_POINT('',(0.1475,-0.064,0.005));
#1060=CARTESIAN_POINT('',(0.15175,-0.064,0.005));
#1061=CARTESIAN_POINT('',(0.1475,-1.38777878078145E-17,0.005));
#1062=CARTESIAN_POINT('',(0.1475,-1.38777878078145E-17,0.));
#1063=CARTESIAN_POINT('',(0.1475,0.064,0.));
#1064=CARTESIAN_POINT('',(0.1475,0.064,0.005));
#1065=CARTESIAN_POINT('',(0.1475,0.064,0.005));
#1066=CARTESIAN_POINT('',(0.1475,-1.38777878078145E-17,0.005));
#1067=CARTESIAN_POINT('',(0.15175,0.064,0.005));
#1068=CARTESIAN_POINT('',(0.15175,0.064,0.));
#1069=CARTESIAN_POINT('',(0.156,0.064,0.));
#1070=CARTESIAN_POINT('',(0.156,0.064,0.005));
#1071=CARTESIAN_POINT('',(0.156,0.064,0.005));
#1072=CARTESIAN_POINT('',(0.15175,0.064,0.005));
#1073=CARTESIAN_POINT('',(0.156,0.0655,0.005));
#1074=CARTESIAN_POINT('',(0.156,0.0655,0.));
#1075=CARTESIAN_POINT('',(0.1575,0.0655,0.));
#1076=CARTESIAN_POINT('',(0.1575,0.0655,0.005));
#1077=CARTESIAN_POINT('',(0.1575,0.0655,0.005));
#1078=CARTESIAN_POINT('',(0.156,0.0655,0.005));
#1079=CARTESIAN_POINT('',(0.1575,0.07,0.005));
#1080=CARTESIAN_POINT('',(0.1575,0.07,0.));
#1081=CARTESIAN_POINT('',(0.1575,0.0745,0.));
#1082=CARTESIAN_POINT('',(0.1575,0.0745,0.005));
#1083=CARTESIAN_POINT('',(0.1575,0.0745,0.005));
#1084=CARTESIAN_POINT('',(0.1575,0.07,0.005));
#1085=CARTESIAN_POINT('',(0.156,0.0745,0.005));
#1086=CARTESIAN_POINT('',(0.156,0.0745,0.));
#1087=CARTESIAN_POINT('',(0.156,0.076,0.));
#1088=CARTESIAN_POINT('',(0.156,0.076,0.005));
#1089=CARTESIAN_POINT('',(0.156,0.076,0.005));
#1090=CARTESIAN_POINT('',(0.156,0.0745,0.005));
#1091=CARTESIAN_POINT('',(0.15175,0.076,0.005));
#1092=CARTESIAN_POINT('',(0.15175,0.076,0.));
#1093=CARTESIAN_POINT('',(0.1475,0.076,0.));
#1094=CARTESIAN_POINT('',(0.1475,0.076,0.005));
#1095=CARTESIAN_POINT('',(0.1475,0.076,0.005));
#1096=CARTESIAN_POINT('',(0.15175,0.076,0.005));
#1097=CARTESIAN_POINT('',(0.1475,0.080625,0.005));
#1098=CARTESIAN_POINT('',(0.1475,0.080625,0.));
#1099=CARTESIAN_POINT('',(0.1475,0.08525,0.));
#1100=CARTESIAN_POINT('',(0.1475,0.08525,0.005));
#1101=CARTESIAN_POINT('',(0.1475,0.08525,0.005));
#1102=CARTESIAN_POINT('',(0.1475,0.080625,0.005));
#1103=CARTESIAN_POINT('',(0.1355,0.08525,0.005));
#1104=CARTESIAN_POINT('',(0.1355,0.08525,0.));
#1105=CARTESIAN_POINT('',(0.1355,0.09725,0.));
#1106=CARTESIAN_POINT('',(0.1355,0.09725,0.005));
#1107=CARTESIAN_POINT('',(0.1355,0.09725,0.005));
#1108=CARTESIAN_POINT('',(0.1355,0.08525,0.005));
#1109=CARTESIAN_POINT('',(0.12675,0.09725,0.005));
#1110=CARTESIAN_POINT('',(0.12675,0.09725,0.));
#1111=CARTESIAN_POINT('',(0.118,0.09725,0.));
#1112=CARTESIAN_POINT('',(0.118,0.09725,0.005));
#1113=CARTESIAN_POINT('',(0.118,0.09725,0.005));
#1114=CARTESIAN_POINT('',(0.12675,0.09725,0.005));
#1115=CARTESIAN_POINT('',(0.118,0.09625,0.005));
#1116=CARTESIAN_POINT('',(0.118,0.09625,0.));
#1117=CARTESIAN_POINT('',(0.118,-0.09725,0.));
#1118=CARTESIAN_POINT('',(0.118,-0.09725,0.005));
#1119=CARTESIAN_POINT('',(0.118,-0.09725,0.005));
#1120=CARTESIAN_POINT('',(0.118,-0.09625,0.005));
#1121=CARTESIAN_POINT('',(0.118,-0.09525,0.005));
#1122=CARTESIAN_POINT('',(0.118,-0.09525,0.005));
#1123=CARTESIAN_POINT('',(0.118,-0.09525,0.0025));
#1124=CARTESIAN_POINT('',(0.118,-0.094,0.0025));
#1125=CARTESIAN_POINT('',(0.118,-0.09275,0.0025));
#1126=CARTESIAN_POINT('',(0.118,-0.09275,0.003));
#1127=CARTESIAN_POINT('',(0.118,-0.09275,0.003));
#1128=CARTESIAN_POINT('',(0.118,0.,0.003));
#1129=CARTESIAN_POINT('',(0.118,0.09275,0.003));
#1130=CARTESIAN_POINT('',(0.118,0.09275,0.003));
#1131=CARTESIAN_POINT('',(0.118,0.09275,0.0025));
#1132=CARTESIAN_POINT('',(0.118,0.094,0.0025));
#1133=CARTESIAN_POINT('',(0.118,0.09525,0.0025));
#1134=CARTESIAN_POINT('',(0.118,0.09525,0.005));
#1135=CARTESIAN_POINT('',(0.118,0.09525,0.005));
#1136=CARTESIAN_POINT('',(0.118,0.09625,0.005));
#1137=CARTESIAN_POINT('',(0.12675,0.09525,0.005));
#1138=CARTESIAN_POINT('',(0.12675,0.09525,0.0025));
#1139=CARTESIAN_POINT('',(0.1355,0.09525,0.0025));
#1140=CARTESIAN_POINT('',(0.1355,0.09525,0.005));
#1141=CARTESIAN_POINT('',(0.1355,0.09525,0.005));
#1142=CARTESIAN_POINT('',(0.12675,0.09525,0.005));
#1143=CARTESIAN_POINT('',(0.1355,0.08525,0.005));
#1144=CARTESIAN_POINT('',(0.1355,0.08525,0.0025));
#1145=CARTESIAN_POINT('',(0.1455,0.08525,0.0025));
#1146=CARTESIAN_POINT('',(0.1455,0.08525,0.005));
#1147=CARTESIAN_POINT('',(0.1455,0.08525,0.005));
#1148=CARTESIAN_POINT('',(0.1355,0.08525,0.005));
#1149=CARTESIAN_POINT('',(0.1455,-0.080625,0.005));
#1150=CARTESIAN_POINT('',(0.1455,0.07,0.0025));
#1151=CARTESIAN_POINT('',(0.1455,-0.08525,0.0025));
#1152=CARTESIAN_POINT('',(0.1455,-0.08525,0.005));
#1153=CARTESIAN_POINT('',(0.1455,-0.08525,0.005));
#1154=CARTESIAN_POINT('',(0.1455,-0.080625,0.005));
#1155=CARTESIAN_POINT('',(0.1355,-0.08525,0.005));
#1156=CARTESIAN_POINT('',(0.1355,-0.08525,0.0025));
#1157=CARTESIAN_POINT('',(0.1355,-0.09525,0.0025));
#1158=CARTESIAN_POINT('',(0.1355,-0.09525,0.005));
#1159=CARTESIAN_POINT('',(0.1355,-0.09525,0.005));
#1160=CARTESIAN_POINT('',(0.1355,-0.08525,0.005));
#1161=CARTESIAN_POINT('',(0.12675,-0.09525,0.005));
#1162=CARTESIAN_POINT('',(0.12675,-0.09525,0.0025));
#1163=CARTESIAN_POINT('',(0.12675,-0.09525,0.005));
#1164=CARTESIAN_POINT('',(0.12675,-0.09725,0.005));
#1165=CARTESIAN_POINT('',(0.12675,-0.09725,0.));
#1166=CARTESIAN_POINT('',(0.1355,-0.09725,0.));
#1167=CARTESIAN_POINT('',(0.1355,-0.09725,0.005));
#1168=CARTESIAN_POINT('',(0.1355,-0.09725,0.005));
#1169=CARTESIAN_POINT('',(0.12675,-0.09725,0.005));
#1170=CARTESIAN_POINT('',(0.1515,0.07,0.005));
#1171=CARTESIAN_POINT('',(0.1515,0.07,0.005));
#1172=CARTESIAN_POINT('',(0.1541,0.07,0.005));
#1173=CARTESIAN_POINT('',(0.1515,0.07,0.));
#1174=CARTESIAN_POINT('',(0.1541,0.07,0.));
#1175=CARTESIAN_POINT('',(0.1355,-0.08525,0.005));
#1176=CARTESIAN_POINT('',(0.1355,-0.08525,0.));
#1177=CARTESIAN_POINT('',(0.1355,-0.08525,0.005));
#1178=CARTESIAN_POINT('',(0.1515,-0.07,0.005));
#1179=CARTESIAN_POINT('',(0.1515,-0.07,0.005));
#1180=CARTESIAN_POINT('',(0.1541,-0.07,0.005));
#1181=CARTESIAN_POINT('',(0.1515,-0.07,0.));
#1182=CARTESIAN_POINT('',(0.1541,-0.07,0.));
#1183=CARTESIAN_POINT('',(0.,2.77555756156289E-17,0.005));
#1184=CARTESIAN_POINT('',(0.,2.77555756156289E-17,0.));
#1185=CARTESIAN_POINT('',(0.138,-0.088,0.));
#1186=CARTESIAN_POINT('',(0.1416,-0.088,0.));
#1187=CARTESIAN_POINT('',(0.138,0.088,0.));
#1188=CARTESIAN_POINT('',(0.1416,0.088,0.));
#1189=CARTESIAN_POINT('',(0.,2.77555756156289E-17,0.0025));
#1190=CARTESIAN_POINT('',(0.12675,0.09275,0.0025));
#1191=CARTESIAN_POINT('',(0.1355,0.09275,0.0025));
#1192=CARTESIAN_POINT('',(0.1355,0.08525,0.0025));
#1193=CARTESIAN_POINT('',(0.143,0.08525,0.0025));
#1194=CARTESIAN_POINT('',(0.143,0.,0.0025));
#1195=CARTESIAN_POINT('',(0.143,-0.08525,0.0025));
#1196=CARTESIAN_POINT('',(0.1355,-0.08525,0.0025));
#1197=CARTESIAN_POINT('',(0.1355,-0.09275,0.0025));
#1198=CARTESIAN_POINT('',(0.12675,-0.09275,0.0025));
#1199=CARTESIAN_POINT('',(0.12675,0.09275,0.003));
#1200=CARTESIAN_POINT('',(0.1355,0.09275,0.003));
#1201=CARTESIAN_POINT('',(0.1355,0.09275,0.003));
#1202=CARTESIAN_POINT('',(0.12675,0.09275,0.003));
#1203=CARTESIAN_POINT('',(0.12675,-0.09275,0.003));
#1204=CARTESIAN_POINT('',(0.1355,-0.09275,0.003));
#1205=CARTESIAN_POINT('',(0.1355,-0.09275,0.003));
#1206=CARTESIAN_POINT('',(0.12675,-0.09275,0.003));
#1207=CARTESIAN_POINT('',(0.1355,-0.08525,0.003));
#1208=CARTESIAN_POINT('',(0.143,-0.08525,0.003));
#1209=CARTESIAN_POINT('',(0.143,-0.08525,0.003));
#1210=CARTESIAN_POINT('',(0.1355,-0.08525,0.003));
#1211=CARTESIAN_POINT('',(0.143,0.,0.003));
#1212=CARTESIAN_POINT('',(0.143,0.08525,0.003));
#1213=CARTESIAN_POINT('',(0.143,0.08525,0.003));
#1214=CARTESIAN_POINT('',(0.143,0.,0.003));
#1215=CARTESIAN_POINT('',(0.138,0.088,0.003));
#1216=CARTESIAN_POINT('',(0.138,0.088,0.002));
#1217=CARTESIAN_POINT('',(0.1396,0.088,0.002));
#1218=CARTESIAN_POINT('',(0.138,0.088,0.003));
#1219=CARTESIAN_POINT('',(0.1396,0.088,0.003));
#1220=CARTESIAN_POINT('',(0.1355,0.08525,0.003));
#1221=CARTESIAN_POINT('',(0.1355,0.08525,0.003));
#1222=CARTESIAN_POINT('',(0.138,-0.088,0.003));
#1223=CARTESIAN_POINT('',(0.138,-0.088,0.002));
#1224=CARTESIAN_POINT('',(0.1396,-0.088,0.002));
#1225=CARTESIAN_POINT('',(0.138,-0.088,0.003));
#1226=CARTESIAN_POINT('',(0.1396,-0.088,0.003));
#1227=CARTESIAN_POINT('',(0.,2.77555756156289E-17,0.003));
#1228=CARTESIAN_POINT('',(0.138,-0.088,0.));
#1229=CARTESIAN_POINT('',(0.138,0.088,0.));
#1230=MECHANICAL_DESIGN_GEOMETRIC_PRESENTATION_REPRESENTATION('',(#733),
#1231);
#1231=(
GEOMETRIC_REPRESENTATION_CONTEXT(3)
GLOBAL_UNCERTAINTY_ASSIGNED_CONTEXT((#1232))
GLOBAL_UNIT_ASSIGNED_CONTEXT((#1235,#1234,#1233))
REPRESENTATION_CONTEXT('right','TOP_LEVEL_ASSEMBLY_PART')
);
#1232=UNCERTAINTY_MEASURE_WITH_UNIT(LENGTH_MEASURE(1.E-8),#1235,
'DISTANCE_ACCURACY_VALUE','Maximum Tolerance applied to model');
#1233=(
NAMED_UNIT(*)
SI_UNIT($,.STERADIAN.)
SOLID_ANGLE_UNIT()
);
#1234=(
NAMED_UNIT(*)
PLANE_ANGLE_UNIT()
SI_UNIT($,.RADIAN.)
);
#1235=(
LENGTH_UNIT()
NAMED_UNIT(*)
SI_UNIT($,.METRE.)
);
#1236=PRODUCT_DEFINITION_SHAPE('','',#1237);
#1237=PRODUCT_DEFINITION('','',#1239,#1238);
#1238=PRODUCT_DEFINITION_CONTEXT('',#1245,'design');
#1239=PRODUCT_DEFINITION_FORMATION_WITH_SPECIFIED_SOURCE('','',#1241,
 .NOT_KNOWN.);
#1240=PRODUCT_RELATED_PRODUCT_CATEGORY('','',(#1241));
#1241=PRODUCT('right','right','right',(#1243));
#1242=PRODUCT_CATEGORY('','');
#1243=PRODUCT_CONTEXT('',#1245,'mechanical');
#1244=APPLICATION_PROTOCOL_DEFINITION('international standard',
'ap242_managed_model_based_3d_engineering',2020,#1245);
#1245=APPLICATION_CONTEXT('managed model based 3d engineering');
ENDSEC;
END-ISO-10303-21;
