ISO-10303-21;
HEADER;
/* Generated by software containing ST-Developer
 * from STEP Tools, Inc. (www.steptools.com) 
 */
/* OPTION: using custom renumber hook */

FILE_DESCRIPTION(
/* description */ ('STEP AP242 Edition 2',
'CAx-IF Rec.Pracs.---Representation and Presentation of Product Manufa
cturing Information (PMI)---4.0---2014-10-13',
'CAx-IF Rec.Pracs.---3D Tessellated Geometry---0.4---2014-09-14','2;1',
'CAx-IF Rec.Pracs.---User Defined Attributes---1.5---2016-08-15'),
/* implementation_level */ '2;1');

FILE_NAME(
/* name */ 'Boss TU-3S - top',
/* time_stamp */ '2026-09-06T09:54:00Z',
/* author */ (''),
/* organization */ (''),
/* preprocessor_version */ 'ST-DEVELOPER v20',
/* originating_system */ 'ONSHAPE BY PTC INC, 1.220',
/* authorisation */ '  ');

FILE_SCHEMA (('AP242_MANAGED_MODEL_BASED_3D_ENGINEERING_MIM_LF { 1 0 10303 442 3 1 4 }'));
ENDSEC;

DATA;
#10=SHAPE_REPRESENTATION_RELATIONSHIP('','',#650,#11);
#11=ADVANCED_BREP_SHAPE_REPRESENTATION('',(#648),#1082);
#12=B_SPLINE_SURFACE_WITH_KNOTS('',3,1,((#1044,#1045),(#1046,#1047),(#1048,
#1049),(#1050,#1051),(#1052,#1053)),.SURF_OF_LINEAR_EXTRUSION.,.F.,.F.,
 .F.,(4,1,4),(2,2),(1.5707963267949,2.35619449019234,3.14159265358979),
(0.,1.),.UNSPECIFIED.);
#13=B_SPLINE_SURFACE_WITH_KNOTS('',3,1,((#1069,#1070),(#1071,#1072),(#1073,
#1074),(#1075,#1076),(#1077,#1078)),.SURF_OF_LINEAR_EXTRUSION.,.F.,.F.,
 .F.,(4,1,4),(2,2),(0.,0.785398163397448,1.5707963267949),(0.,1.),
 .UNSPECIFIED.);
#14=CIRCLE('',#660,0.0015);
#15=CIRCLE('',#661,0.0015);
#16=CIRCLE('',#664,0.0026);
#17=CIRCLE('',#665,0.0026);
#18=CIRCLE('',#667,0.0015);
#19=CIRCLE('',#668,0.0015);
#20=CIRCLE('',#673,0.0015);
#21=CIRCLE('',#674,0.0015);
#22=CIRCLE('',#677,0.0015);
#23=CIRCLE('',#678,0.0015);
#24=CIRCLE('',#680,0.0026);
#25=CIRCLE('',#681,0.0026);
#26=CIRCLE('',#686,0.004);
#27=CIRCLE('',#687,0.004);
#28=CIRCLE('',#692,0.004);
#29=CIRCLE('',#693,0.004);
#30=CIRCLE('',#696,0.004);
#31=CIRCLE('',#703,0.004);
#32=CYLINDRICAL_SURFACE('',#659,0.0015);
#33=CYLINDRICAL_SURFACE('',#663,0.0026);
#34=CYLINDRICAL_SURFACE('',#666,0.0015);
#35=CYLINDRICAL_SURFACE('',#672,0.0015);
#36=CYLINDRICAL_SURFACE('',#676,0.0015);
#37=CYLINDRICAL_SURFACE('',#679,0.0026);
#38=CYLINDRICAL_SURFACE('',#685,0.004);
#39=CYLINDRICAL_SURFACE('',#691,0.004);
#40=CYLINDRICAL_SURFACE('',#698,0.0025);
#41=CYLINDRICAL_SURFACE('',#701,0.0025);
#42=ELLIPSE('',#655,0.00258819045102521,0.0025);
#43=ELLIPSE('',#656,0.00258819045102521,0.0025);
#44=ELLIPSE('',#699,0.00258819045102521,0.0025);
#45=ELLIPSE('',#702,0.00258819045102521,0.0025);
#46=ORIENTED_EDGE('',*,*,#224,.T.);
#47=ORIENTED_EDGE('',*,*,#225,.T.);
#48=ORIENTED_EDGE('',*,*,#226,.T.);
#49=ORIENTED_EDGE('',*,*,#227,.F.);
#50=ORIENTED_EDGE('',*,*,#228,.F.);
#51=ORIENTED_EDGE('',*,*,#229,.F.);
#52=ORIENTED_EDGE('',*,*,#230,.F.);
#53=ORIENTED_EDGE('',*,*,#231,.T.);
#54=ORIENTED_EDGE('',*,*,#232,.T.);
#55=ORIENTED_EDGE('',*,*,#232,.F.);
#56=ORIENTED_EDGE('',*,*,#233,.T.);
#57=ORIENTED_EDGE('',*,*,#234,.F.);
#58=ORIENTED_EDGE('',*,*,#235,.T.);
#59=ORIENTED_EDGE('',*,*,#236,.F.);
#60=ORIENTED_EDGE('',*,*,#237,.T.);
#61=ORIENTED_EDGE('',*,*,#238,.T.);
#62=ORIENTED_EDGE('',*,*,#239,.T.);
#63=ORIENTED_EDGE('',*,*,#240,.F.);
#64=ORIENTED_EDGE('',*,*,#241,.T.);
#65=ORIENTED_EDGE('',*,*,#242,.T.);
#66=ORIENTED_EDGE('',*,*,#243,.F.);
#67=ORIENTED_EDGE('',*,*,#244,.F.);
#68=ORIENTED_EDGE('',*,*,#245,.F.);
#69=ORIENTED_EDGE('',*,*,#246,.F.);
#70=ORIENTED_EDGE('',*,*,#247,.T.);
#71=ORIENTED_EDGE('',*,*,#246,.T.);
#72=ORIENTED_EDGE('',*,*,#248,.T.);
#73=ORIENTED_EDGE('',*,*,#249,.F.);
#74=ORIENTED_EDGE('',*,*,#250,.F.);
#75=ORIENTED_EDGE('',*,*,#249,.T.);
#76=ORIENTED_EDGE('',*,*,#251,.F.);
#77=ORIENTED_EDGE('',*,*,#252,.F.);
#78=ORIENTED_EDGE('',*,*,#253,.T.);
#79=ORIENTED_EDGE('',*,*,#254,.T.);
#80=ORIENTED_EDGE('',*,*,#255,.F.);
#81=ORIENTED_EDGE('',*,*,#252,.T.);
#82=ORIENTED_EDGE('',*,*,#256,.T.);
#83=ORIENTED_EDGE('',*,*,#241,.F.);
#84=ORIENTED_EDGE('',*,*,#257,.F.);
#85=ORIENTED_EDGE('',*,*,#258,.F.);
#86=ORIENTED_EDGE('',*,*,#247,.F.);
#87=ORIENTED_EDGE('',*,*,#250,.T.);
#88=ORIENTED_EDGE('',*,*,#253,.F.);
#89=ORIENTED_EDGE('',*,*,#257,.T.);
#90=ORIENTED_EDGE('',*,*,#240,.T.);
#91=ORIENTED_EDGE('',*,*,#254,.F.);
#92=ORIENTED_EDGE('',*,*,#259,.T.);
#93=ORIENTED_EDGE('',*,*,#260,.T.);
#94=ORIENTED_EDGE('',*,*,#261,.F.);
#95=ORIENTED_EDGE('',*,*,#262,.T.);
#96=ORIENTED_EDGE('',*,*,#263,.T.);
#97=ORIENTED_EDGE('',*,*,#264,.F.);
#98=ORIENTED_EDGE('',*,*,#265,.F.);
#99=ORIENTED_EDGE('',*,*,#266,.F.);
#100=ORIENTED_EDGE('',*,*,#267,.F.);
#101=ORIENTED_EDGE('',*,*,#268,.T.);
#102=ORIENTED_EDGE('',*,*,#267,.T.);
#103=ORIENTED_EDGE('',*,*,#269,.T.);
#104=ORIENTED_EDGE('',*,*,#270,.F.);
#105=ORIENTED_EDGE('',*,*,#271,.F.);
#106=ORIENTED_EDGE('',*,*,#270,.T.);
#107=ORIENTED_EDGE('',*,*,#272,.T.);
#108=ORIENTED_EDGE('',*,*,#273,.F.);
#109=ORIENTED_EDGE('',*,*,#274,.F.);
#110=ORIENTED_EDGE('',*,*,#273,.T.);
#111=ORIENTED_EDGE('',*,*,#275,.T.);
#112=ORIENTED_EDGE('',*,*,#262,.F.);
#113=ORIENTED_EDGE('',*,*,#276,.F.);
#114=ORIENTED_EDGE('',*,*,#277,.T.);
#115=ORIENTED_EDGE('',*,*,#278,.F.);
#116=ORIENTED_EDGE('',*,*,#279,.F.);
#117=ORIENTED_EDGE('',*,*,#268,.F.);
#118=ORIENTED_EDGE('',*,*,#271,.T.);
#119=ORIENTED_EDGE('',*,*,#274,.T.);
#120=ORIENTED_EDGE('',*,*,#276,.T.);
#121=ORIENTED_EDGE('',*,*,#261,.T.);
#122=ORIENTED_EDGE('',*,*,#277,.F.);
#123=ORIENTED_EDGE('',*,*,#237,.F.);
#124=ORIENTED_EDGE('',*,*,#280,.F.);
#125=ORIENTED_EDGE('',*,*,#281,.T.);
#126=ORIENTED_EDGE('',*,*,#224,.F.);
#127=ORIENTED_EDGE('',*,*,#282,.T.);
#128=ORIENTED_EDGE('',*,*,#283,.T.);
#129=ORIENTED_EDGE('',*,*,#284,.T.);
#130=ORIENTED_EDGE('',*,*,#229,.T.);
#131=ORIENTED_EDGE('',*,*,#285,.T.);
#132=ORIENTED_EDGE('',*,*,#283,.F.);
#133=ORIENTED_EDGE('',*,*,#286,.F.);
#134=ORIENTED_EDGE('',*,*,#287,.T.);
#135=ORIENTED_EDGE('',*,*,#288,.F.);
#136=ORIENTED_EDGE('',*,*,#289,.F.);
#137=ORIENTED_EDGE('',*,*,#287,.F.);
#138=ORIENTED_EDGE('',*,*,#290,.T.);
#139=ORIENTED_EDGE('',*,*,#291,.T.);
#140=ORIENTED_EDGE('',*,*,#292,.T.);
#141=ORIENTED_EDGE('',*,*,#291,.F.);
#142=ORIENTED_EDGE('',*,*,#293,.F.);
#143=ORIENTED_EDGE('',*,*,#265,.T.);
#144=ORIENTED_EDGE('',*,*,#294,.T.);
#145=ORIENTED_EDGE('',*,*,#259,.F.);
#146=ORIENTED_EDGE('',*,*,#295,.F.);
#147=ORIENTED_EDGE('',*,*,#244,.T.);
#148=ORIENTED_EDGE('',*,*,#296,.T.);
#149=ORIENTED_EDGE('',*,*,#238,.F.);
#150=ORIENTED_EDGE('',*,*,#297,.F.);
#151=ORIENTED_EDGE('',*,*,#298,.T.);
#152=ORIENTED_EDGE('',*,*,#299,.F.);
#153=ORIENTED_EDGE('',*,*,#298,.F.);
#154=ORIENTED_EDGE('',*,*,#300,.T.);
#155=ORIENTED_EDGE('',*,*,#227,.T.);
#156=ORIENTED_EDGE('',*,*,#282,.F.);
#157=ORIENTED_EDGE('',*,*,#228,.T.);
#158=ORIENTED_EDGE('',*,*,#300,.F.);
#159=ORIENTED_EDGE('',*,*,#297,.T.);
#160=ORIENTED_EDGE('',*,*,#242,.F.);
#161=ORIENTED_EDGE('',*,*,#256,.F.);
#162=ORIENTED_EDGE('',*,*,#251,.T.);
#163=ORIENTED_EDGE('',*,*,#248,.F.);
#164=ORIENTED_EDGE('',*,*,#245,.T.);
#165=ORIENTED_EDGE('',*,*,#295,.T.);
#166=ORIENTED_EDGE('',*,*,#263,.F.);
#167=ORIENTED_EDGE('',*,*,#275,.F.);
#168=ORIENTED_EDGE('',*,*,#272,.F.);
#169=ORIENTED_EDGE('',*,*,#269,.F.);
#170=ORIENTED_EDGE('',*,*,#266,.T.);
#171=ORIENTED_EDGE('',*,*,#293,.T.);
#172=ORIENTED_EDGE('',*,*,#290,.F.);
#173=ORIENTED_EDGE('',*,*,#286,.T.);
#174=ORIENTED_EDGE('',*,*,#278,.T.);
#175=ORIENTED_EDGE('',*,*,#255,.T.);
#176=ORIENTED_EDGE('',*,*,#239,.F.);
#177=ORIENTED_EDGE('',*,*,#296,.F.);
#178=ORIENTED_EDGE('',*,*,#301,.F.);
#179=ORIENTED_EDGE('',*,*,#302,.T.);
#180=ORIENTED_EDGE('',*,*,#303,.T.);
#181=ORIENTED_EDGE('',*,*,#292,.F.);
#182=ORIENTED_EDGE('',*,*,#264,.T.);
#183=ORIENTED_EDGE('',*,*,#279,.T.);
#184=ORIENTED_EDGE('',*,*,#260,.F.);
#185=ORIENTED_EDGE('',*,*,#294,.F.);
#186=ORIENTED_EDGE('',*,*,#243,.T.);
#187=ORIENTED_EDGE('',*,*,#258,.T.);
#188=ORIENTED_EDGE('',*,*,#299,.T.);
#189=ORIENTED_EDGE('',*,*,#226,.F.);
#190=ORIENTED_EDGE('',*,*,#304,.F.);
#191=ORIENTED_EDGE('',*,*,#301,.T.);
#192=ORIENTED_EDGE('',*,*,#305,.F.);
#193=ORIENTED_EDGE('',*,*,#280,.T.);
#194=ORIENTED_EDGE('',*,*,#236,.T.);
#195=ORIENTED_EDGE('',*,*,#306,.F.);
#196=ORIENTED_EDGE('',*,*,#235,.F.);
#197=ORIENTED_EDGE('',*,*,#307,.F.);
#198=ORIENTED_EDGE('',*,*,#308,.T.);
#199=ORIENTED_EDGE('',*,*,#306,.T.);
#200=ORIENTED_EDGE('',*,*,#307,.T.);
#201=ORIENTED_EDGE('',*,*,#234,.T.);
#202=ORIENTED_EDGE('',*,*,#309,.F.);
#203=ORIENTED_EDGE('',*,*,#310,.F.);
#204=ORIENTED_EDGE('',*,*,#233,.F.);
#205=ORIENTED_EDGE('',*,*,#231,.F.);
#206=ORIENTED_EDGE('',*,*,#311,.T.);
#207=ORIENTED_EDGE('',*,*,#309,.T.);
#208=ORIENTED_EDGE('',*,*,#289,.T.);
#209=ORIENTED_EDGE('',*,*,#303,.F.);
#210=ORIENTED_EDGE('',*,*,#312,.F.);
#211=ORIENTED_EDGE('',*,*,#288,.T.);
#212=ORIENTED_EDGE('',*,*,#284,.F.);
#213=ORIENTED_EDGE('',*,*,#285,.F.);
#214=ORIENTED_EDGE('',*,*,#312,.T.);
#215=ORIENTED_EDGE('',*,*,#302,.F.);
#216=ORIENTED_EDGE('',*,*,#304,.T.);
#217=ORIENTED_EDGE('',*,*,#225,.F.);
#218=ORIENTED_EDGE('',*,*,#281,.F.);
#219=ORIENTED_EDGE('',*,*,#305,.T.);
#220=ORIENTED_EDGE('',*,*,#308,.F.);
#221=ORIENTED_EDGE('',*,*,#310,.T.);
#222=ORIENTED_EDGE('',*,*,#311,.F.);
#223=ORIENTED_EDGE('',*,*,#230,.T.);
#224=EDGE_CURVE('',#313,#314,#373,.T.);
#225=EDGE_CURVE('',#314,#315,#374,.T.);
#226=EDGE_CURVE('',#315,#316,#375,.T.);
#227=EDGE_CURVE('',#317,#316,#376,.T.);
#228=EDGE_CURVE('',#313,#317,#377,.T.);
#229=EDGE_CURVE('',#318,#319,#378,.T.);
#230=EDGE_CURVE('',#320,#318,#379,.T.);
#231=EDGE_CURVE('',#320,#321,#380,.T.);
#232=EDGE_CURVE('',#321,#319,#381,.T.);
#233=EDGE_CURVE('',#321,#322,#42,.T.);
#234=EDGE_CURVE('',#323,#322,#382,.T.);
#235=EDGE_CURVE('',#323,#324,#43,.T.);
#236=EDGE_CURVE('',#325,#324,#383,.T.);
#237=EDGE_CURVE('',#325,#319,#384,.T.);
#238=EDGE_CURVE('',#326,#327,#385,.T.);
#239=EDGE_CURVE('',#327,#328,#386,.T.);
#240=EDGE_CURVE('',#329,#328,#387,.T.);
#241=EDGE_CURVE('',#329,#330,#388,.T.);
#242=EDGE_CURVE('',#330,#326,#389,.T.);
#243=EDGE_CURVE('',#331,#332,#390,.T.);
#244=EDGE_CURVE('',#333,#331,#391,.T.);
#245=EDGE_CURVE('',#334,#333,#392,.T.);
#246=EDGE_CURVE('',#335,#334,#393,.T.);
#247=EDGE_CURVE('',#335,#332,#394,.T.);
#248=EDGE_CURVE('',#334,#336,#14,.T.);
#249=EDGE_CURVE('',#337,#336,#395,.T.);
#250=EDGE_CURVE('',#335,#337,#15,.T.);
#251=EDGE_CURVE('',#338,#336,#396,.T.);
#252=EDGE_CURVE('',#339,#338,#397,.T.);
#253=EDGE_CURVE('',#339,#337,#398,.T.);
#254=EDGE_CURVE('',#340,#340,#16,.T.);
#255=EDGE_CURVE('',#341,#341,#17,.T.);
#256=EDGE_CURVE('',#338,#330,#18,.T.);
#257=EDGE_CURVE('',#339,#329,#19,.T.);
#258=EDGE_CURVE('',#332,#328,#399,.T.);
#259=EDGE_CURVE('',#342,#343,#400,.T.);
#260=EDGE_CURVE('',#343,#344,#401,.T.);
#261=EDGE_CURVE('',#345,#344,#402,.T.);
#262=EDGE_CURVE('',#345,#346,#403,.T.);
#263=EDGE_CURVE('',#346,#342,#404,.T.);
#264=EDGE_CURVE('',#347,#348,#405,.T.);
#265=EDGE_CURVE('',#349,#347,#406,.T.);
#266=EDGE_CURVE('',#350,#349,#407,.T.);
#267=EDGE_CURVE('',#351,#350,#408,.T.);
#268=EDGE_CURVE('',#351,#348,#409,.T.);
#269=EDGE_CURVE('',#350,#352,#20,.T.);
#270=EDGE_CURVE('',#353,#352,#410,.T.);
#271=EDGE_CURVE('',#351,#353,#21,.T.);
#272=EDGE_CURVE('',#352,#354,#411,.T.);
#273=EDGE_CURVE('',#355,#354,#412,.T.);
#274=EDGE_CURVE('',#353,#355,#413,.T.);
#275=EDGE_CURVE('',#354,#346,#22,.T.);
#276=EDGE_CURVE('',#355,#345,#23,.T.);
#277=EDGE_CURVE('',#356,#356,#24,.T.);
#278=EDGE_CURVE('',#357,#357,#25,.T.);
#279=EDGE_CURVE('',#348,#344,#414,.T.);
#280=EDGE_CURVE('',#358,#325,#415,.T.);
#281=EDGE_CURVE('',#358,#314,#416,.T.);
#282=EDGE_CURVE('',#313,#359,#417,.T.);
#283=EDGE_CURVE('',#359,#360,#418,.T.);
#284=EDGE_CURVE('',#360,#318,#419,.T.);
#285=EDGE_CURVE('',#361,#360,#420,.T.);
#286=EDGE_CURVE('',#362,#359,#421,.T.);
#287=EDGE_CURVE('',#362,#363,#422,.T.);
#288=EDGE_CURVE('',#361,#363,#423,.T.);
#289=EDGE_CURVE('',#363,#364,#26,.T.);
#290=EDGE_CURVE('',#362,#365,#27,.T.);
#291=EDGE_CURVE('',#365,#364,#424,.T.);
#292=EDGE_CURVE('',#347,#364,#425,.T.);
#293=EDGE_CURVE('',#349,#365,#426,.T.);
#294=EDGE_CURVE('',#331,#343,#427,.T.);
#295=EDGE_CURVE('',#333,#342,#428,.T.);
#296=EDGE_CURVE('',#366,#327,#429,.T.);
#297=EDGE_CURVE('',#367,#326,#430,.T.);
#298=EDGE_CURVE('',#367,#366,#431,.T.);
#299=EDGE_CURVE('',#366,#316,#28,.T.);
#300=EDGE_CURVE('',#367,#317,#29,.T.);
#301=EDGE_CURVE('',#368,#366,#432,.T.);
#302=EDGE_CURVE('',#368,#369,#433,.T.);
#303=EDGE_CURVE('',#369,#364,#434,.T.);
#304=EDGE_CURVE('',#368,#315,#30,.T.);
#305=EDGE_CURVE('',#358,#370,#435,.T.);
#306=EDGE_CURVE('',#370,#324,#436,.T.);
#307=EDGE_CURVE('',#371,#323,#437,.T.);
#308=EDGE_CURVE('',#371,#370,#44,.T.);
#309=EDGE_CURVE('',#372,#322,#438,.T.);
#310=EDGE_CURVE('',#371,#372,#439,.T.);
#311=EDGE_CURVE('',#320,#372,#45,.T.);
#312=EDGE_CURVE('',#361,#369,#31,.T.);
#313=VERTEX_POINT('',#883);
#314=VERTEX_POINT('',#884);
#315=VERTEX_POINT('',#886);
#316=VERTEX_POINT('',#888);
#317=VERTEX_POINT('',#890);
#318=VERTEX_POINT('',#894);
#319=VERTEX_POINT('',#895);
#320=VERTEX_POINT('',#897);
#321=VERTEX_POINT('',#899);
#322=VERTEX_POINT('',#903);
#323=VERTEX_POINT('',#905);
#324=VERTEX_POINT('',#907);
#325=VERTEX_POINT('',#909);
#326=VERTEX_POINT('',#913);
#327=VERTEX_POINT('',#914);
#328=VERTEX_POINT('',#916);
#329=VERTEX_POINT('',#918);
#330=VERTEX_POINT('',#920);
#331=VERTEX_POINT('',#924);
#332=VERTEX_POINT('',#925);
#333=VERTEX_POINT('',#927);
#334=VERTEX_POINT('',#929);
#335=VERTEX_POINT('',#931);
#336=VERTEX_POINT('',#935);
#337=VERTEX_POINT('',#937);
#338=VERTEX_POINT('',#941);
#339=VERTEX_POINT('',#943);
#340=VERTEX_POINT('',#947);
#341=VERTEX_POINT('',#949);
#342=VERTEX_POINT('',#957);
#343=VERTEX_POINT('',#958);
#344=VERTEX_POINT('',#960);
#345=VERTEX_POINT('',#962);
#346=VERTEX_POINT('',#964);
#347=VERTEX_POINT('',#968);
#348=VERTEX_POINT('',#969);
#349=VERTEX_POINT('',#971);
#350=VERTEX_POINT('',#973);
#351=VERTEX_POINT('',#975);
#352=VERTEX_POINT('',#979);
#353=VERTEX_POINT('',#981);
#354=VERTEX_POINT('',#985);
#355=VERTEX_POINT('',#987);
#356=VERTEX_POINT('',#994);
#357=VERTEX_POINT('',#996);
#358=VERTEX_POINT('',#1001);
#359=VERTEX_POINT('',#1004);
#360=VERTEX_POINT('',#1006);
#361=VERTEX_POINT('',#1010);
#362=VERTEX_POINT('',#1012);
#363=VERTEX_POINT('',#1014);
#364=VERTEX_POINT('',#1018);
#365=VERTEX_POINT('',#1020);
#366=VERTEX_POINT('',#1030);
#367=VERTEX_POINT('',#1032);
#368=VERTEX_POINT('',#1040);
#369=VERTEX_POINT('',#1042);
#370=VERTEX_POINT('',#1057);
#371=VERTEX_POINT('',#1061);
#372=VERTEX_POINT('',#1065);
#373=LINE('',#882,#440);
#374=LINE('',#885,#441);
#375=LINE('',#887,#442);
#376=LINE('',#889,#443);
#377=LINE('',#891,#444);
#378=LINE('',#893,#445);
#379=LINE('',#896,#446);
#380=LINE('',#898,#447);
#381=LINE('',#900,#448);
#382=LINE('',#904,#449);
#383=LINE('',#908,#450);
#384=LINE('',#910,#451);
#385=LINE('',#912,#452);
#386=LINE('',#915,#453);
#387=LINE('',#917,#454);
#388=LINE('',#919,#455);
#389=LINE('',#921,#456);
#390=LINE('',#923,#457);
#391=LINE('',#926,#458);
#392=LINE('',#928,#459);
#393=LINE('',#930,#460);
#394=LINE('',#932,#461);
#395=LINE('',#936,#462);
#396=LINE('',#940,#463);
#397=LINE('',#942,#464);
#398=LINE('',#944,#465);
#399=LINE('',#954,#466);
#400=LINE('',#956,#467);
#401=LINE('',#959,#468);
#402=LINE('',#961,#469);
#403=LINE('',#963,#470);
#404=LINE('',#965,#471);
#405=LINE('',#967,#472);
#406=LINE('',#970,#473);
#407=LINE('',#972,#474);
#408=LINE('',#974,#475);
#409=LINE('',#976,#476);
#410=LINE('',#980,#477);
#411=LINE('',#984,#478);
#412=LINE('',#986,#479);
#413=LINE('',#988,#480);
#414=LINE('',#998,#481);
#415=LINE('',#1000,#482);
#416=LINE('',#1002,#483);
#417=LINE('',#1003,#484);
#418=LINE('',#1005,#485);
#419=LINE('',#1007,#486);
#420=LINE('',#1009,#487);
#421=LINE('',#1011,#488);
#422=LINE('',#1013,#489);
#423=LINE('',#1015,#490);
#424=LINE('',#1021,#491);
#425=LINE('',#1023,#492);
#426=LINE('',#1024,#493);
#427=LINE('',#1026,#494);
#428=LINE('',#1027,#495);
#429=LINE('',#1029,#496);
#430=LINE('',#1031,#497);
#431=LINE('',#1033,#498);
#432=LINE('',#1039,#499);
#433=LINE('',#1041,#500);
#434=LINE('',#1043,#501);
#435=LINE('',#1056,#502);
#436=LINE('',#1058,#503);
#437=LINE('',#1060,#504);
#438=LINE('',#1064,#505);
#439=LINE('',#1066,#506);
#440=VECTOR('',#709,1.);
#441=VECTOR('',#710,1.);
#442=VECTOR('',#711,1.);
#443=VECTOR('',#712,1.);
#444=VECTOR('',#713,1.);
#445=VECTOR('',#716,1.);
#446=VECTOR('',#717,1.);
#447=VECTOR('',#718,1.);
#448=VECTOR('',#719,1.);
#449=VECTOR('',#724,1.);
#450=VECTOR('',#727,1.);
#451=VECTOR('',#728,1.);
#452=VECTOR('',#731,1.);
#453=VECTOR('',#732,1.);
#454=VECTOR('',#733,1.);
#455=VECTOR('',#734,1.);
#456=VECTOR('',#735,1.);
#457=VECTOR('',#738,1.);
#458=VECTOR('',#739,1.);
#459=VECTOR('',#740,1.);
#460=VECTOR('',#741,1.);
#461=VECTOR('',#742,1.);
#462=VECTOR('',#747,1.);
#463=VECTOR('',#752,1.);
#464=VECTOR('',#753,1.);
#465=VECTOR('',#754,1.);
#466=VECTOR('',#769,1.);
#467=VECTOR('',#772,1.);
#468=VECTOR('',#773,1.);
#469=VECTOR('',#774,1.);
#470=VECTOR('',#775,1.);
#471=VECTOR('',#776,1.);
#472=VECTOR('',#779,1.);
#473=VECTOR('',#780,1.);
#474=VECTOR('',#781,1.);
#475=VECTOR('',#782,1.);
#476=VECTOR('',#783,1.);
#477=VECTOR('',#788,1.);
#478=VECTOR('',#793,1.);
#479=VECTOR('',#794,1.);
#480=VECTOR('',#795,1.);
#481=VECTOR('',#810,1.);
#482=VECTOR('',#813,1.);
#483=VECTOR('',#814,1.);
#484=VECTOR('',#815,1.);
#485=VECTOR('',#816,1.);
#486=VECTOR('',#817,1.);
#487=VECTOR('',#820,1.);
#488=VECTOR('',#821,1.);
#489=VECTOR('',#822,1.);
#490=VECTOR('',#823,1.);
#491=VECTOR('',#830,1.);
#492=VECTOR('',#833,1.);
#493=VECTOR('',#834,1.);
#494=VECTOR('',#837,1.);
#495=VECTOR('',#838,1.);
#496=VECTOR('',#841,1.);
#497=VECTOR('',#842,1.);
#498=VECTOR('',#843,1.);
#499=VECTOR('',#854,1.);
#500=VECTOR('',#855,1.);
#501=VECTOR('',#856,1.);
#502=VECTOR('',#861,1.);
#503=VECTOR('',#862,1.);
#504=VECTOR('',#865,1.);
#505=VECTOR('',#870,1.);
#506=VECTOR('',#871,1.);
#507=EDGE_LOOP('',(#46,#47,#48,#49,#50));
#508=EDGE_LOOP('',(#51,#52,#53,#54));
#509=EDGE_LOOP('',(#55,#56,#57,#58,#59,#60));
#510=EDGE_LOOP('',(#61,#62,#63,#64,#65));
#511=EDGE_LOOP('',(#66,#67,#68,#69,#70));
#512=EDGE_LOOP('',(#71,#72,#73,#74));
#513=EDGE_LOOP('',(#75,#76,#77,#78));
#514=EDGE_LOOP('',(#79));
#515=EDGE_LOOP('',(#80));
#516=EDGE_LOOP('',(#81,#82,#83,#84));
#517=EDGE_LOOP('',(#85,#86,#87,#88,#89,#90));
#518=EDGE_LOOP('',(#91));
#519=EDGE_LOOP('',(#92,#93,#94,#95,#96));
#520=EDGE_LOOP('',(#97,#98,#99,#100,#101));
#521=EDGE_LOOP('',(#102,#103,#104,#105));
#522=EDGE_LOOP('',(#106,#107,#108,#109));
#523=EDGE_LOOP('',(#110,#111,#112,#113));
#524=EDGE_LOOP('',(#114));
#525=EDGE_LOOP('',(#115));
#526=EDGE_LOOP('',(#116,#117,#118,#119,#120,#121));
#527=EDGE_LOOP('',(#122));
#528=EDGE_LOOP('',(#123,#124,#125,#126,#127,#128,#129,#130));
#529=EDGE_LOOP('',(#131,#132,#133,#134,#135));
#530=EDGE_LOOP('',(#136,#137,#138,#139));
#531=EDGE_LOOP('',(#140,#141,#142,#143));
#532=EDGE_LOOP('',(#144,#145,#146,#147));
#533=EDGE_LOOP('',(#148,#149,#150,#151));
#534=EDGE_LOOP('',(#152,#153,#154,#155));
#535=EDGE_LOOP('',(#156,#157,#158,#159,#160,#161,#162,#163,#164,#165,#166,
#167,#168,#169,#170,#171,#172,#173));
#536=EDGE_LOOP('',(#174));
#537=EDGE_LOOP('',(#175));
#538=EDGE_LOOP('',(#176,#177,#178,#179,#180,#181,#182,#183,#184,#185,#186,
#187));
#539=EDGE_LOOP('',(#188,#189,#190,#191));
#540=EDGE_LOOP('',(#192,#193,#194,#195));
#541=EDGE_LOOP('',(#196,#197,#198,#199));
#542=EDGE_LOOP('',(#200,#201,#202,#203));
#543=EDGE_LOOP('',(#204,#205,#206,#207));
#544=EDGE_LOOP('',(#208,#209,#210,#211));
#545=EDGE_LOOP('',(#212,#213,#214,#215,#216,#217,#218,#219,#220,#221,#222,
#223));
#546=FACE_BOUND('',#507,.T.);
#547=FACE_BOUND('',#508,.T.);
#548=FACE_BOUND('',#509,.T.);
#549=FACE_BOUND('',#510,.T.);
#550=FACE_BOUND('',#511,.T.);
#551=FACE_BOUND('',#512,.T.);
#552=FACE_BOUND('',#513,.T.);
#553=FACE_BOUND('',#514,.T.);
#554=FACE_BOUND('',#515,.T.);
#555=FACE_BOUND('',#516,.T.);
#556=FACE_BOUND('',#517,.T.);
#557=FACE_BOUND('',#518,.T.);
#558=FACE_BOUND('',#519,.T.);
#559=FACE_BOUND('',#520,.T.);
#560=FACE_BOUND('',#521,.T.);
#561=FACE_BOUND('',#522,.T.);
#562=FACE_BOUND('',#523,.T.);
#563=FACE_BOUND('',#524,.T.);
#564=FACE_BOUND('',#525,.T.);
#565=FACE_BOUND('',#526,.T.);
#566=FACE_BOUND('',#527,.T.);
#567=FACE_BOUND('',#528,.T.);
#568=FACE_BOUND('',#529,.T.);
#569=FACE_BOUND('',#530,.T.);
#570=FACE_BOUND('',#531,.T.);
#571=FACE_BOUND('',#532,.T.);
#572=FACE_BOUND('',#533,.T.);
#573=FACE_BOUND('',#534,.T.);
#574=FACE_BOUND('',#535,.T.);
#575=FACE_BOUND('',#536,.T.);
#576=FACE_BOUND('',#537,.T.);
#577=FACE_BOUND('',#538,.T.);
#578=FACE_BOUND('',#539,.T.);
#579=FACE_BOUND('',#540,.T.);
#580=FACE_BOUND('',#541,.T.);
#581=FACE_BOUND('',#542,.T.);
#582=FACE_BOUND('',#543,.T.);
#583=FACE_BOUND('',#544,.T.);
#584=FACE_BOUND('',#545,.T.);
#585=PLANE('',#652);
#586=PLANE('',#653);
#587=PLANE('',#654);
#588=PLANE('',#657);
#589=PLANE('',#658);
#590=PLANE('',#662);
#591=PLANE('',#669);
#592=PLANE('',#670);
#593=PLANE('',#671);
#594=PLANE('',#675);
#595=PLANE('',#682);
#596=PLANE('',#683);
#597=PLANE('',#684);
#598=PLANE('',#688);
#599=PLANE('',#689);
#600=PLANE('',#690);
#601=PLANE('',#694);
#602=PLANE('',#695);
#603=PLANE('',#697);
#604=PLANE('',#700);
#605=PLANE('',#704);
#606=ADVANCED_FACE('',(#546),#585,.F.);
#607=ADVANCED_FACE('',(#547),#586,.F.);
#608=ADVANCED_FACE('',(#548),#587,.T.);
#609=ADVANCED_FACE('',(#549),#588,.F.);
#610=ADVANCED_FACE('',(#550),#589,.T.);
#611=ADVANCED_FACE('',(#551),#32,.T.);
#612=ADVANCED_FACE('',(#552),#590,.T.);
#613=ADVANCED_FACE('',(#553,#554),#33,.F.);
#614=ADVANCED_FACE('',(#555),#34,.T.);
#615=ADVANCED_FACE('',(#556,#557),#591,.T.);
#616=ADVANCED_FACE('',(#558),#592,.F.);
#617=ADVANCED_FACE('',(#559),#593,.T.);
#618=ADVANCED_FACE('',(#560),#35,.T.);
#619=ADVANCED_FACE('',(#561),#594,.F.);
#620=ADVANCED_FACE('',(#562),#36,.T.);
#621=ADVANCED_FACE('',(#563,#564),#37,.F.);
#622=ADVANCED_FACE('',(#565,#566),#595,.T.);
#623=ADVANCED_FACE('',(#567),#596,.T.);
#624=ADVANCED_FACE('',(#568),#597,.F.);
#625=ADVANCED_FACE('',(#569),#38,.T.);
#626=ADVANCED_FACE('',(#570),#598,.F.);
#627=ADVANCED_FACE('',(#571),#599,.F.);
#628=ADVANCED_FACE('',(#572),#600,.F.);
#629=ADVANCED_FACE('',(#573),#39,.T.);
#630=ADVANCED_FACE('',(#574,#575,#576),#601,.F.);
#631=ADVANCED_FACE('',(#577),#602,.T.);
#632=ADVANCED_FACE('',(#578),#12,.F.);
#633=ADVANCED_FACE('',(#579),#603,.F.);
#634=ADVANCED_FACE('',(#580),#40,.F.);
#635=ADVANCED_FACE('',(#581),#604,.F.);
#636=ADVANCED_FACE('',(#582),#41,.F.);
#637=ADVANCED_FACE('',(#583),#13,.F.);
#638=ADVANCED_FACE('',(#584),#605,.T.);
#639=CLOSED_SHELL('',(#606,#607,#608,#609,#610,#611,#612,#613,#614,#615,
#616,#617,#618,#619,#620,#621,#622,#623,#624,#625,#626,#627,#628,#629,#630,
#631,#632,#633,#634,#635,#636,#637,#638));
#640=STYLED_ITEM('',(#641),#648);
#641=PRESENTATION_STYLE_ASSIGNMENT((#642));
#642=SURFACE_STYLE_USAGE(.BOTH.,#643);
#643=SURFACE_SIDE_STYLE('',(#644));
#644=SURFACE_STYLE_FILL_AREA(#645);
#645=FILL_AREA_STYLE('',(#646));
#646=FILL_AREA_STYLE_COLOUR('',#647);
#647=COLOUR_RGB('',0.764705882352941,0.545098039215686,0.803921568627451);
#648=MANIFOLD_SOLID_BREP('top',#639);
#649=SHAPE_DEFINITION_REPRESENTATION(#1087,#650);
#650=SHAPE_REPRESENTATION('top',(#651),#1082);
#651=AXIS2_PLACEMENT_3D('',#880,#705,#706);
#652=AXIS2_PLACEMENT_3D('',#881,#707,#708);
#653=AXIS2_PLACEMENT_3D('',#892,#714,#715);
#654=AXIS2_PLACEMENT_3D('',#901,#720,#721);
#655=AXIS2_PLACEMENT_3D('',#902,#722,#723);
#656=AXIS2_PLACEMENT_3D('',#906,#725,#726);
#657=AXIS2_PLACEMENT_3D('',#911,#729,#730);
#658=AXIS2_PLACEMENT_3D('',#922,#736,#737);
#659=AXIS2_PLACEMENT_3D('',#933,#743,#744);
#660=AXIS2_PLACEMENT_3D('',#934,#745,#746);
#661=AXIS2_PLACEMENT_3D('',#938,#748,#749);
#662=AXIS2_PLACEMENT_3D('',#939,#750,#751);
#663=AXIS2_PLACEMENT_3D('',#945,#755,#756);
#664=AXIS2_PLACEMENT_3D('',#946,#757,#758);
#665=AXIS2_PLACEMENT_3D('',#948,#759,#760);
#666=AXIS2_PLACEMENT_3D('',#950,#761,#762);
#667=AXIS2_PLACEMENT_3D('',#951,#763,#764);
#668=AXIS2_PLACEMENT_3D('',#952,#765,#766);
#669=AXIS2_PLACEMENT_3D('',#953,#767,#768);
#670=AXIS2_PLACEMENT_3D('',#955,#770,#771);
#671=AXIS2_PLACEMENT_3D('',#966,#777,#778);
#672=AXIS2_PLACEMENT_3D('',#977,#784,#785);
#673=AXIS2_PLACEMENT_3D('',#978,#786,#787);
#674=AXIS2_PLACEMENT_3D('',#982,#789,#790);
#675=AXIS2_PLACEMENT_3D('',#983,#791,#792);
#676=AXIS2_PLACEMENT_3D('',#989,#796,#797);
#677=AXIS2_PLACEMENT_3D('',#990,#798,#799);
#678=AXIS2_PLACEMENT_3D('',#991,#800,#801);
#679=AXIS2_PLACEMENT_3D('',#992,#802,#803);
#680=AXIS2_PLACEMENT_3D('',#993,#804,#805);
#681=AXIS2_PLACEMENT_3D('',#995,#806,#807);
#682=AXIS2_PLACEMENT_3D('',#997,#808,#809);
#683=AXIS2_PLACEMENT_3D('',#999,#811,#812);
#684=AXIS2_PLACEMENT_3D('',#1008,#818,#819);
#685=AXIS2_PLACEMENT_3D('',#1016,#824,#825);
#686=AXIS2_PLACEMENT_3D('',#1017,#826,#827);
#687=AXIS2_PLACEMENT_3D('',#1019,#828,#829);
#688=AXIS2_PLACEMENT_3D('',#1022,#831,#832);
#689=AXIS2_PLACEMENT_3D('',#1025,#835,#836);
#690=AXIS2_PLACEMENT_3D('',#1028,#839,#840);
#691=AXIS2_PLACEMENT_3D('',#1034,#844,#845);
#692=AXIS2_PLACEMENT_3D('',#1035,#846,#847);
#693=AXIS2_PLACEMENT_3D('',#1036,#848,#849);
#694=AXIS2_PLACEMENT_3D('',#1037,#850,#851);
#695=AXIS2_PLACEMENT_3D('',#1038,#852,#853);
#696=AXIS2_PLACEMENT_3D('',#1054,#857,#858);
#697=AXIS2_PLACEMENT_3D('',#1055,#859,#860);
#698=AXIS2_PLACEMENT_3D('',#1059,#863,#864);
#699=AXIS2_PLACEMENT_3D('',#1062,#866,#867);
#700=AXIS2_PLACEMENT_3D('',#1063,#868,#869);
#701=AXIS2_PLACEMENT_3D('',#1067,#872,#873);
#702=AXIS2_PLACEMENT_3D('',#1068,#874,#875);
#703=AXIS2_PLACEMENT_3D('',#1079,#876,#877);
#704=AXIS2_PLACEMENT_3D('',#1080,#878,#879);
#705=DIRECTION('',(0.,0.,1.));
#706=DIRECTION('',(1.,0.,0.));
#707=DIRECTION('',(1.,0.,0.));
#708=DIRECTION('',(0.,0.,-1.));
#709=DIRECTION('',(0.,0.,1.));
#710=DIRECTION('',(0.,1.,0.));
#711=DIRECTION('',(0.,0.258819045102521,-0.965925826289068));
#712=DIRECTION('',(0.,0.,1.));
#713=DIRECTION('',(0.,1.,0.));
#714=DIRECTION('',(1.,0.,0.));
#715=DIRECTION('',(0.,0.,-1.));
#716=DIRECTION('',(0.,0.,-1.));
#717=DIRECTION('',(0.,-1.,0.));
#718=DIRECTION('',(0.,0.258819045102521,-0.965925826289068));
#719=DIRECTION('',(0.,-1.,0.));
#720=DIRECTION('',(0.,0.,1.));
#721=DIRECTION('',(1.,0.,0.));
#722=DIRECTION('',(0.,0.,1.));
#723=DIRECTION('',(0.,1.,0.));
#724=DIRECTION('',(1.,0.,0.));
#725=DIRECTION('',(0.,0.,1.));
#726=DIRECTION('',(0.,-1.,0.));
#727=DIRECTION('',(0.,1.,0.));
#728=DIRECTION('',(1.,0.,0.));
#729=DIRECTION('',(1.,0.,0.));
#730=DIRECTION('',(0.,0.,-1.));
#731=DIRECTION('',(0.,0.,1.));
#732=DIRECTION('',(0.,-0.258819045102521,0.965925826289068));
#733=DIRECTION('',(0.,-1.,0.));
#734=DIRECTION('',(0.,0.,-1.));
#735=DIRECTION('',(0.,-1.,0.));
#736=DIRECTION('',(1.,-1.65211759616839E-16,0.));
#737=DIRECTION('',(1.65211759616839E-16,1.,0.));
#738=DIRECTION('',(-4.27599498637374E-17,-0.258819045102521,0.965925826289068));
#739=DIRECTION('',(0.,0.,1.));
#740=DIRECTION('',(-1.65211759616839E-16,-1.,0.));
#741=DIRECTION('',(0.,0.,-1.));
#742=DIRECTION('',(-1.65211759616839E-16,-1.,0.));
#743=DIRECTION('',(0.,0.,-1.));
#744=DIRECTION('',(-1.,0.,0.));
#745=DIRECTION('',(0.,0.,1.));
#746=DIRECTION('',(1.,0.,0.));
#747=DIRECTION('',(0.,0.,-1.));
#748=DIRECTION('',(0.,0.,1.));
#749=DIRECTION('',(1.,0.,0.));
#750=DIRECTION('',(0.,1.,0.));
#751=DIRECTION('',(0.,0.,1.));
#752=DIRECTION('',(1.,0.,0.));
#753=DIRECTION('',(0.,0.,-1.));
#754=DIRECTION('',(1.,0.,0.));
#755=DIRECTION('',(0.,0.,-1.));
#756=DIRECTION('',(-1.,0.,0.));
#757=DIRECTION('',(0.,0.,1.));
#758=DIRECTION('',(1.,0.,0.));
#759=DIRECTION('',(0.,0.,1.));
#760=DIRECTION('',(1.,0.,0.));
#761=DIRECTION('',(0.,0.,-1.));
#762=DIRECTION('',(-1.,0.,0.));
#763=DIRECTION('',(0.,0.,1.));
#764=DIRECTION('',(1.,0.,0.));
#765=DIRECTION('',(0.,0.,1.));
#766=DIRECTION('',(1.,0.,0.));
#767=DIRECTION('',(0.,0.,1.));
#768=DIRECTION('',(1.,0.,0.));
#769=DIRECTION('',(-1.,0.,0.));
#770=DIRECTION('',(1.,0.,0.));
#771=DIRECTION('',(0.,0.,-1.));
#772=DIRECTION('',(0.,0.,1.));
#773=DIRECTION('',(0.,-0.258819045102521,0.965925826289068));
#774=DIRECTION('',(0.,-1.,0.));
#775=DIRECTION('',(0.,0.,-1.));
#776=DIRECTION('',(0.,-1.,0.));
#777=DIRECTION('',(1.,0.,0.));
#778=DIRECTION('',(0.,0.,-1.));
#779=DIRECTION('',(0.,-0.258819045102521,0.965925826289068));
#780=DIRECTION('',(0.,0.,1.));
#781=DIRECTION('',(0.,-1.,0.));
#782=DIRECTION('',(0.,0.,-1.));
#783=DIRECTION('',(0.,-1.,0.));
#784=DIRECTION('',(0.,0.,-1.));
#785=DIRECTION('',(-1.,0.,0.));
#786=DIRECTION('',(0.,0.,1.));
#787=DIRECTION('',(1.,0.,0.));
#788=DIRECTION('',(0.,0.,-1.));
#789=DIRECTION('',(0.,0.,1.));
#790=DIRECTION('',(1.,0.,0.));
#791=DIRECTION('',(0.,-1.,0.));
#792=DIRECTION('',(0.,0.,-1.));
#793=DIRECTION('',(-1.,0.,0.));
#794=DIRECTION('',(0.,0.,-1.));
#795=DIRECTION('',(-1.,0.,0.));
#796=DIRECTION('',(0.,0.,-1.));
#797=DIRECTION('',(-1.,0.,0.));
#798=DIRECTION('',(0.,0.,1.));
#799=DIRECTION('',(1.,0.,0.));
#800=DIRECTION('',(0.,0.,1.));
#801=DIRECTION('',(1.,0.,0.));
#802=DIRECTION('',(0.,0.,-1.));
#803=DIRECTION('',(-1.,0.,0.));
#804=DIRECTION('',(0.,0.,1.));
#805=DIRECTION('',(1.,0.,0.));
#806=DIRECTION('',(0.,0.,1.));
#807=DIRECTION('',(1.,0.,0.));
#808=DIRECTION('',(0.,0.,1.));
#809=DIRECTION('',(1.,0.,0.));
#810=DIRECTION('',(-1.,0.,0.));
#811=DIRECTION('',(0.,-1.,0.));
#812=DIRECTION('',(0.,0.,-1.));
#813=DIRECTION('',(0.,0.,-1.));
#814=DIRECTION('',(-1.,0.,0.));
#815=DIRECTION('',(1.,0.,0.));
#816=DIRECTION('',(0.,0.,1.));
#817=DIRECTION('',(-1.,0.,0.));
#818=DIRECTION('',(-1.,0.,0.));
#819=DIRECTION('',(0.,0.,1.));
#820=DIRECTION('',(0.,-1.,0.));
#821=DIRECTION('',(0.,-1.,0.));
#822=DIRECTION('',(0.,0.,1.));
#823=DIRECTION('',(0.,0.258819045102521,-0.965925826289068));
#824=DIRECTION('',(0.,0.,1.));
#825=DIRECTION('',(1.,0.,0.));
#826=DIRECTION('',(0.,0.,1.));
#827=DIRECTION('',(1.,0.,0.));
#828=DIRECTION('',(0.,0.,1.));
#829=DIRECTION('',(1.,0.,0.));
#830=DIRECTION('',(0.,0.,1.));
#831=DIRECTION('',(0.,-1.,0.));
#832=DIRECTION('',(0.,0.,-1.));
#833=DIRECTION('',(1.,0.,0.));
#834=DIRECTION('',(1.,0.,0.));
#835=DIRECTION('',(0.,-1.,0.));
#836=DIRECTION('',(0.,0.,-1.));
#837=DIRECTION('',(1.,0.,0.));
#838=DIRECTION('',(1.,0.,0.));
#839=DIRECTION('',(0.,-1.,0.));
#840=DIRECTION('',(0.,0.,-1.));
#841=DIRECTION('',(1.,0.,0.));
#842=DIRECTION('',(1.,0.,0.));
#843=DIRECTION('',(0.,0.,1.));
#844=DIRECTION('',(0.,0.,1.));
#845=DIRECTION('',(1.,0.,0.));
#846=DIRECTION('',(0.,0.,1.));
#847=DIRECTION('',(1.,0.,0.));
#848=DIRECTION('',(0.,0.,1.));
#849=DIRECTION('',(1.,0.,0.));
#850=DIRECTION('',(0.,0.,1.));
#851=DIRECTION('',(1.,0.,0.));
#852=DIRECTION('',(0.,0.965925826289068,0.258819045102521));
#853=DIRECTION('',(0.,-0.258819045102521,0.965925826289068));
#854=DIRECTION('',(0.,0.258819045102521,-0.965925826289068));
#855=DIRECTION('',(1.,0.,0.));
#856=DIRECTION('',(0.,0.258819045102521,-0.965925826289068));
#857=DIRECTION('',(0.,0.,1.));
#858=DIRECTION('',(1.,0.,0.));
#859=DIRECTION('',(-1.,0.,0.));
#860=DIRECTION('',(0.,0.,1.));
#861=DIRECTION('',(0.,1.,0.));
#862=DIRECTION('',(0.,0.258819045102521,-0.965925826289068));
#863=DIRECTION('',(0.,0.258819045102521,-0.965925826289068));
#864=DIRECTION('',(0.,0.965925826289068,0.258819045102521));
#865=DIRECTION('',(0.,0.258819045102521,-0.965925826289068));
#866=DIRECTION('',(0.,0.,1.));
#867=DIRECTION('',(0.,-1.,0.));
#868=DIRECTION('',(0.,0.965925826289068,0.258819045102521));
#869=DIRECTION('',(0.,-0.258819045102521,0.965925826289068));
#870=DIRECTION('',(0.,0.258819045102521,-0.965925826289068));
#871=DIRECTION('',(1.,0.,0.));
#872=DIRECTION('',(0.,0.258819045102521,-0.965925826289068));
#873=DIRECTION('',(0.,0.965925826289068,0.258819045102521));
#874=DIRECTION('',(0.,0.,1.));
#875=DIRECTION('',(0.,1.,0.));
#876=DIRECTION('',(0.,0.,1.));
#877=DIRECTION('',(1.,0.,0.));
#878=DIRECTION('',(0.,0.,1.));
#879=DIRECTION('',(1.,0.,0.));
#880=CARTESIAN_POINT('',(0.,0.,0.));
#881=CARTESIAN_POINT('',(-0.03435,0.0366320344416233,-0.002));
#882=CARTESIAN_POINT('',(-0.03435,0.0336320344416233,-0.002));
#883=CARTESIAN_POINT('',(-0.03435,0.0336320344416233,-0.002));
#884=CARTESIAN_POINT('',(-0.03435,0.0336320344416233,0.00965925826289068));
#885=CARTESIAN_POINT('',(-0.03435,0.0340438439905981,0.00965925826289068));
#886=CARTESIAN_POINT('',(-0.03435,0.037043843990598,0.00965925826289068));
#887=CARTESIAN_POINT('',(-0.03435,0.037043843990598,0.00965925826289068));
#888=CARTESIAN_POINT('',(-0.03435,0.0396320344416233,0.));
#889=CARTESIAN_POINT('',(-0.03435,0.0396320344416233,-0.002));
#890=CARTESIAN_POINT('',(-0.03435,0.0396320344416233,-0.002));
#891=CARTESIAN_POINT('',(-0.03435,0.0366320344416233,-0.002));
#892=CARTESIAN_POINT('',(0.03235,0.0337497487650854,0.00965925826289068));
#893=CARTESIAN_POINT('',(0.03235,0.0336320344416233,0.025));
#894=CARTESIAN_POINT('',(0.03235,0.0336320344416233,0.00965925826289068));
#895=CARTESIAN_POINT('',(0.03235,0.0336320344416233,0.));
#896=CARTESIAN_POINT('',(0.03235,0.0337497487650854,0.00965925826289068));
#897=CARTESIAN_POINT('',(0.03235,0.0364556535395728,0.00965925826289068));
#898=CARTESIAN_POINT('',(0.03235,0.0364556535395728,0.00965925826289068));
#899=CARTESIAN_POINT('',(0.03235,0.039043843990598,0.));
#900=CARTESIAN_POINT('',(0.03235,0.0363379392161106,0.));
#901=CARTESIAN_POINT('',(0.,6.93889390390723E-18,0.));
#902=CARTESIAN_POINT('',(0.02985,0.039043843990598,0.));
#903=CARTESIAN_POINT('',(0.02985,0.0416320344416233,0.));
#904=CARTESIAN_POINT('',(-0.02,0.0416320344416233,0.));
#905=CARTESIAN_POINT('',(-0.02985,0.0416320344416233,0.));
#906=CARTESIAN_POINT('',(-0.02985,0.039043843990598,0.));
#907=CARTESIAN_POINT('',(-0.03235,0.039043843990598,0.));
#908=CARTESIAN_POINT('',(-0.03235,0.0363379392161106,0.));
#909=CARTESIAN_POINT('',(-0.03235,0.0336320344416233,0.));
#910=CARTESIAN_POINT('',(-0.03335,0.0336320344416233,0.));
#911=CARTESIAN_POINT('',(-0.026,0.04925,0.003));
#912=CARTESIAN_POINT('',(-0.026,0.0436320344416233,-0.002));
#913=CARTESIAN_POINT('',(-0.026,0.0436320344416233,-0.002));
#914=CARTESIAN_POINT('',(-0.026,0.0436320344416233,0.));
#915=CARTESIAN_POINT('',(-0.026,0.0432583667752415,0.00139454671608247));
#916=CARTESIAN_POINT('',(-0.026,0.0428281868643299,0.003));
#917=CARTESIAN_POINT('',(-0.026,0.04925,0.003));
#918=CARTESIAN_POINT('',(-0.026,0.0545,0.003));
#919=CARTESIAN_POINT('',(-0.026,0.0545,0.003));
#920=CARTESIAN_POINT('',(-0.026,0.0545,-0.002));
#921=CARTESIAN_POINT('',(-0.026,0.04925,-0.002));
#922=CARTESIAN_POINT('',(-0.014,0.04925,0.003));
#923=CARTESIAN_POINT('',(-0.014,0.0432583667752415,0.00139454671608247));
#924=CARTESIAN_POINT('',(-0.014,0.0436320344416233,0.));
#925=CARTESIAN_POINT('',(-0.014,0.0428281868643299,0.003));
#926=CARTESIAN_POINT('',(-0.014,0.0436320344416233,-0.002));
#927=CARTESIAN_POINT('',(-0.014,0.0436320344416233,-0.002));
#928=CARTESIAN_POINT('',(-0.014,0.04925,-0.002));
#929=CARTESIAN_POINT('',(-0.014,0.0545,-0.002));
#930=CARTESIAN_POINT('',(-0.014,0.0545,0.003));
#931=CARTESIAN_POINT('',(-0.014,0.0545,0.003));
#932=CARTESIAN_POINT('',(-0.014,0.04925,0.003));
#933=CARTESIAN_POINT('',(-0.0155,0.0545,0.003));
#934=CARTESIAN_POINT('',(-0.0155,0.0545,-0.002));
#935=CARTESIAN_POINT('',(-0.0155,0.056,-0.002));
#936=CARTESIAN_POINT('',(-0.0155,0.056,0.003));
#937=CARTESIAN_POINT('',(-0.0155,0.056,0.003));
#938=CARTESIAN_POINT('',(-0.0155,0.0545,0.003));
#939=CARTESIAN_POINT('',(-0.02,0.056,0.003));
#940=CARTESIAN_POINT('',(-0.02,0.056,-0.002));
#941=CARTESIAN_POINT('',(-0.0245,0.056,-0.002));
#942=CARTESIAN_POINT('',(-0.0245,0.056,0.003));
#943=CARTESIAN_POINT('',(-0.0245,0.056,0.003));
#944=CARTESIAN_POINT('',(-0.02,0.056,0.003));
#945=CARTESIAN_POINT('',(-0.02,0.05,0.003));
#946=CARTESIAN_POINT('',(-0.02,0.05,0.003));
#947=CARTESIAN_POINT('',(-0.0174,0.05,0.003));
#948=CARTESIAN_POINT('',(-0.02,0.05,-0.002));
#949=CARTESIAN_POINT('',(-0.0174,0.05,-0.002));
#950=CARTESIAN_POINT('',(-0.0245,0.0545,0.003));
#951=CARTESIAN_POINT('',(-0.0245,0.0545,-0.002));
#952=CARTESIAN_POINT('',(-0.0245,0.0545,0.003));
#953=CARTESIAN_POINT('',(0.,6.93889390390723E-18,0.003));
#954=CARTESIAN_POINT('',(0.,0.0428281868643299,0.003));
#955=CARTESIAN_POINT('',(0.014,0.04925,0.003));
#956=CARTESIAN_POINT('',(0.014,0.0436320344416233,-0.002));
#957=CARTESIAN_POINT('',(0.014,0.0436320344416233,-0.002));
#958=CARTESIAN_POINT('',(0.014,0.0436320344416233,0.));
#959=CARTESIAN_POINT('',(0.014,0.0432583667752415,0.00139454671608247));
#960=CARTESIAN_POINT('',(0.014,0.0428281868643299,0.003));
#961=CARTESIAN_POINT('',(0.014,0.04925,0.003));
#962=CARTESIAN_POINT('',(0.014,0.0545,0.003));
#963=CARTESIAN_POINT('',(0.014,0.0545,0.003));
#964=CARTESIAN_POINT('',(0.014,0.0545,-0.002));
#965=CARTESIAN_POINT('',(0.014,0.04925,-0.002));
#966=CARTESIAN_POINT('',(0.026,0.04925,0.003));
#967=CARTESIAN_POINT('',(0.026,0.0432583667752415,0.00139454671608247));
#968=CARTESIAN_POINT('',(0.026,0.0436320344416233,0.));
#969=CARTESIAN_POINT('',(0.026,0.0428281868643299,0.003));
#970=CARTESIAN_POINT('',(0.026,0.0436320344416233,-0.002));
#971=CARTESIAN_POINT('',(0.026,0.0436320344416233,-0.002));
#972=CARTESIAN_POINT('',(0.026,0.04925,-0.002));
#973=CARTESIAN_POINT('',(0.026,0.0545,-0.002));
#974=CARTESIAN_POINT('',(0.026,0.0545,0.003));
#975=CARTESIAN_POINT('',(0.026,0.0545,0.003));
#976=CARTESIAN_POINT('',(0.026,0.04925,0.003));
#977=CARTESIAN_POINT('',(0.0245,0.0545,0.003));
#978=CARTESIAN_POINT('',(0.0245,0.0545,-0.002));
#979=CARTESIAN_POINT('',(0.0245,0.056,-0.002));
#980=CARTESIAN_POINT('',(0.0245,0.056,0.003));
#981=CARTESIAN_POINT('',(0.0245,0.056,0.003));
#982=CARTESIAN_POINT('',(0.0245,0.0545,0.003));
#983=CARTESIAN_POINT('',(0.02,0.056,0.003));
#984=CARTESIAN_POINT('',(0.02,0.056,-0.002));
#985=CARTESIAN_POINT('',(0.0155,0.056,-0.002));
#986=CARTESIAN_POINT('',(0.0155,0.056,0.003));
#987=CARTESIAN_POINT('',(0.0155,0.056,0.003));
#988=CARTESIAN_POINT('',(0.02,0.056,0.003));
#989=CARTESIAN_POINT('',(0.0155,0.0545,0.003));
#990=CARTESIAN_POINT('',(0.0155,0.0545,-0.002));
#991=CARTESIAN_POINT('',(0.0155,0.0545,0.003));
#992=CARTESIAN_POINT('',(0.02,0.05,0.003));
#993=CARTESIAN_POINT('',(0.02,0.05,0.003));
#994=CARTESIAN_POINT('',(0.0226,0.05,0.003));
#995=CARTESIAN_POINT('',(0.02,0.05,-0.002));
#996=CARTESIAN_POINT('',(0.0226,0.05,-0.002));
#997=CARTESIAN_POINT('',(0.,6.93889390390723E-18,0.003));
#998=CARTESIAN_POINT('',(0.,0.0428281868643299,0.003));
#999=CARTESIAN_POINT('',(-0.03335,0.0336320344416233,-0.002));
#1000=CARTESIAN_POINT('',(-0.03235,0.0336320344416233,0.025));
#1001=CARTESIAN_POINT('',(-0.03235,0.0336320344416233,0.00965925826289068));
#1002=CARTESIAN_POINT('',(0.,0.0336320344416233,0.00965925826289068));
#1003=CARTESIAN_POINT('',(-0.03335,0.0336320344416233,-0.002));
#1004=CARTESIAN_POINT('',(0.03435,0.0336320344416233,-0.002));
#1005=CARTESIAN_POINT('',(0.03435,0.0336320344416233,-0.002));
#1006=CARTESIAN_POINT('',(0.03435,0.0336320344416233,0.00965925826289068));
#1007=CARTESIAN_POINT('',(0.,0.0336320344416233,0.00965925826289068));
#1008=CARTESIAN_POINT('',(0.03435,0.0366320344416233,-0.002));
#1009=CARTESIAN_POINT('',(0.03435,0.0340438439905981,0.00965925826289068));
#1010=CARTESIAN_POINT('',(0.03435,0.037043843990598,0.00965925826289068));
#1011=CARTESIAN_POINT('',(0.03435,0.0366320344416233,-0.002));
#1012=CARTESIAN_POINT('',(0.03435,0.0396320344416233,-0.002));
#1013=CARTESIAN_POINT('',(0.03435,0.0396320344416233,-0.002));
#1014=CARTESIAN_POINT('',(0.03435,0.0396320344416233,0.));
#1015=CARTESIAN_POINT('',(0.03435,0.037043843990598,0.00965925826289068));
#1016=CARTESIAN_POINT('',(0.03035,0.0396320344416233,-0.002));
#1017=CARTESIAN_POINT('',(0.03035,0.0396320344416233,0.));
#1018=CARTESIAN_POINT('',(0.03035,0.0436320344416233,0.));
#1019=CARTESIAN_POINT('',(0.03035,0.0396320344416233,-0.002));
#1020=CARTESIAN_POINT('',(0.03035,0.0436320344416233,-0.002));
#1021=CARTESIAN_POINT('',(0.03035,0.0436320344416233,-0.002));
#1022=CARTESIAN_POINT('',(0.028175,0.0436320344416233,-0.002));
#1023=CARTESIAN_POINT('',(0.028175,0.0436320344416233,0.));
#1024=CARTESIAN_POINT('',(0.028175,0.0436320344416233,-0.002));
#1025=CARTESIAN_POINT('',(-6.93889390390723E-18,0.0436320344416233,-0.002));
#1026=CARTESIAN_POINT('',(-6.93889390390723E-18,0.0436320344416233,0.));
#1027=CARTESIAN_POINT('',(-6.93889390390723E-18,0.0436320344416233,-0.002));
#1028=CARTESIAN_POINT('',(-0.028175,0.0436320344416233,-0.002));
#1029=CARTESIAN_POINT('',(-0.028175,0.0436320344416233,0.));
#1030=CARTESIAN_POINT('',(-0.03035,0.0436320344416233,0.));
#1031=CARTESIAN_POINT('',(-0.028175,0.0436320344416233,-0.002));
#1032=CARTESIAN_POINT('',(-0.03035,0.0436320344416233,-0.002));
#1033=CARTESIAN_POINT('',(-0.03035,0.0436320344416233,-0.002));
#1034=CARTESIAN_POINT('',(-0.03035,0.0396320344416233,-0.002));
#1035=CARTESIAN_POINT('',(-0.03035,0.0396320344416233,0.));
#1036=CARTESIAN_POINT('',(-0.03035,0.0396320344416233,-0.002));
#1037=CARTESIAN_POINT('',(0.,6.93889390390723E-18,-0.002));
#1038=CARTESIAN_POINT('',(0.028175,0.0410438439905981,0.00965925826289068));
#1039=CARTESIAN_POINT('',(-0.03035,0.0410438439905981,0.00965925826289068));
#1040=CARTESIAN_POINT('',(-0.03035,0.0410438439905981,0.00965925826289068));
#1041=CARTESIAN_POINT('',(0.028175,0.0410438439905981,0.00965925826289068));
#1042=CARTESIAN_POINT('',(0.03035,0.0410438439905981,0.00965925826289068));
#1043=CARTESIAN_POINT('',(0.03035,0.0410438439905981,0.00965925826289068));
#1044=CARTESIAN_POINT('',(-0.03035,0.041043843990598,0.00965925826289068));
#1045=CARTESIAN_POINT('',(-0.03035,0.0436320344416233,1.04083408558608E-17));
#1046=CARTESIAN_POINT('',(-0.0313971975511966,0.041043843990598,0.00965925826289068));
#1047=CARTESIAN_POINT('',(-0.0313971975511966,0.0436320344416233,1.04083408558608E-17));
#1048=CARTESIAN_POINT('',(-0.0334832554738941,0.0401770994644921,0.00965925826289068));
#1049=CARTESIAN_POINT('',(-0.0334832554738941,0.0427652899155173,1.21430643318376E-17));
#1050=CARTESIAN_POINT('',(-0.03435,0.0380910415417946,0.00965925826289068));
#1051=CARTESIAN_POINT('',(-0.03435,0.0406792319928199,1.04083408558608E-17));
#1052=CARTESIAN_POINT('',(-0.03435,0.037043843990598,0.00965925826289068));
#1053=CARTESIAN_POINT('',(-0.03435,0.0396320344416233,1.04083408558608E-17));
#1054=CARTESIAN_POINT('',(-0.03035,0.037043843990598,0.00965925826289068));
#1055=CARTESIAN_POINT('',(-0.03235,0.0337497487650854,0.00965925826289068));
#1056=CARTESIAN_POINT('',(-0.03235,0.0337497487650854,0.00965925826289068));
#1057=CARTESIAN_POINT('',(-0.03235,0.0364556535395728,0.00965925826289068));
#1058=CARTESIAN_POINT('',(-0.03235,0.0364556535395728,0.00965925826289068));
#1059=CARTESIAN_POINT('',(-0.02985,0.0364556535395728,0.00965925826289068));
#1060=CARTESIAN_POINT('',(-0.02985,0.039043843990598,0.00965925826289068));
#1061=CARTESIAN_POINT('',(-0.02985,0.039043843990598,0.00965925826289068));
#1062=CARTESIAN_POINT('',(-0.02985,0.0364556535395728,0.00965925826289068));
#1063=CARTESIAN_POINT('',(0.027925,0.039043843990598,0.00965925826289068));
#1064=CARTESIAN_POINT('',(0.02985,0.039043843990598,0.00965925826289068));
#1065=CARTESIAN_POINT('',(0.02985,0.039043843990598,0.00965925826289068));
#1066=CARTESIAN_POINT('',(0.027925,0.039043843990598,0.00965925826289068));
#1067=CARTESIAN_POINT('',(0.02985,0.0364556535395728,0.00965925826289068));
#1068=CARTESIAN_POINT('',(0.02985,0.0364556535395728,0.00965925826289068));
#1069=CARTESIAN_POINT('',(0.03435,0.037043843990598,0.00965925826289068));
#1070=CARTESIAN_POINT('',(0.03435,0.0396320344416233,1.04083408558608E-17));
#1071=CARTESIAN_POINT('',(0.03435,0.0380910415417946,0.00965925826289068));
#1072=CARTESIAN_POINT('',(0.03435,0.0406792319928199,1.04083408558608E-17));
#1073=CARTESIAN_POINT('',(0.0334832554738941,0.0401770994644921,0.00965925826289068));
#1074=CARTESIAN_POINT('',(0.0334832554738941,0.0427652899155173,1.21430643318376E-17));
#1075=CARTESIAN_POINT('',(0.0313971975511966,0.041043843990598,0.00965925826289068));
#1076=CARTESIAN_POINT('',(0.0313971975511966,0.0436320344416233,1.04083408558608E-17));
#1077=CARTESIAN_POINT('',(0.03035,0.041043843990598,0.00965925826289068));
#1078=CARTESIAN_POINT('',(0.03035,0.0436320344416233,1.04083408558608E-17));
#1079=CARTESIAN_POINT('',(0.03035,0.037043843990598,0.00965925826289068));
#1080=CARTESIAN_POINT('',(0.,-0.00258819045102521,0.00965925826289068));
#1081=MECHANICAL_DESIGN_GEOMETRIC_PRESENTATION_REPRESENTATION('',(#640),
#1082);
#1082=(
GEOMETRIC_REPRESENTATION_CONTEXT(3)
GLOBAL_UNCERTAINTY_ASSIGNED_CONTEXT((#1083))
GLOBAL_UNIT_ASSIGNED_CONTEXT((#1086,#1085,#1084))
REPRESENTATION_CONTEXT('top','TOP_LEVEL_ASSEMBLY_PART')
);
#1083=UNCERTAINTY_MEASURE_WITH_UNIT(LENGTH_MEASURE(2.E-5),#1086,
'DISTANCE_ACCURACY_VALUE','Maximum Tolerance applied to model');
#1084=(
NAMED_UNIT(*)
SI_UNIT($,.STERADIAN.)
SOLID_ANGLE_UNIT()
);
#1085=(
NAMED_UNIT(*)
PLANE_ANGLE_UNIT()
SI_UNIT($,.RADIAN.)
);
#1086=(
LENGTH_UNIT()
NAMED_UNIT(*)
SI_UNIT($,.METRE.)
);
#1087=PRODUCT_DEFINITION_SHAPE('','',#1088);
#1088=PRODUCT_DEFINITION('','',#1090,#1089);
#1089=PRODUCT_DEFINITION_CONTEXT('',#1096,'design');
#1090=PRODUCT_DEFINITION_FORMATION_WITH_SPECIFIED_SOURCE('','',#1092,
 .NOT_KNOWN.);
#1091=PRODUCT_RELATED_PRODUCT_CATEGORY('','',(#1092));
#1092=PRODUCT('top','top','top',(#1094));
#1093=PRODUCT_CATEGORY('','');
#1094=PRODUCT_CONTEXT('',#1096,'mechanical');
#1095=APPLICATION_PROTOCOL_DEFINITION('international standard',
'ap242_managed_model_based_3d_engineering',2020,#1096);
#1096=APPLICATION_CONTEXT('managed model based 3d engineering');
ENDSEC;
END-ISO-10303-21;
