ISO-10303-21;
HEADER;
/* Generated by software containing ST-Developer
 * from STEP Tools, Inc. (www.steptools.com) 
 */
/* OPTION: using custom renumber hook */

FILE_DESCRIPTION(
/* description */ ('STEP AP242 Edition 2',
'CAx-IF Rec.Pracs.---Representation and Presentation of Product Manufa
cturing Information (PMI)---4.0---2014-10-13',
'CAx-IF Rec.Pracs.---3D Tessellated Geometry---0.4---2014-09-14','2;1',
'CAx-IF Rec.Pracs.---User Defined Attributes---1.5---2016-08-15'),
/* implementation_level */ '2;1');

FILE_NAME(
/* name */ 'Boss TU-3S - bottom',
/* time_stamp */ '2026-09-06T09:54:19Z',
/* author */ (''),
/* organization */ (''),
/* preprocessor_version */ 'ST-DEVELOPER v20',
/* originating_system */ 'ONSHAPE BY PTC INC, 1.220',
/* authorisation */ '  ');

FILE_SCHEMA (('AP242_MANAGED_MODEL_BASED_3D_ENGINEERING_MIM_LF { 1 0 10303 442 3 1 4 }'));
ENDSEC;

DATA;
#10=SHAPE_REPRESENTATION_RELATIONSHIP('','',#559,#11);
#11=ADVANCED_BREP_SHAPE_REPRESENTATION('',(#557),#921);
#12=CIRCLE('',#563,0.0015);
#13=CIRCLE('',#564,0.0015);
#14=CIRCLE('',#567,0.0015);
#15=CIRCLE('',#568,0.0015);
#16=CIRCLE('',#571,0.0026);
#17=CIRCLE('',#572,0.0026);
#18=CIRCLE('',#575,0.0025);
#19=CIRCLE('',#576,0.0025);
#20=CIRCLE('',#579,0.0015);
#21=CIRCLE('',#580,0.0015);
#22=CIRCLE('',#583,0.0015);
#23=CIRCLE('',#584,0.0015);
#24=CIRCLE('',#587,0.0026);
#25=CIRCLE('',#588,0.0026);
#26=CIRCLE('',#592,0.004);
#27=CIRCLE('',#593,0.004);
#28=CIRCLE('',#598,0.004);
#29=CIRCLE('',#599,0.004);
#30=CIRCLE('',#602,0.0025);
#31=CIRCLE('',#606,0.0025);
#32=CYLINDRICAL_SURFACE('',#562,0.0015);
#33=CYLINDRICAL_SURFACE('',#566,0.0015);
#34=CYLINDRICAL_SURFACE('',#570,0.0026);
#35=CYLINDRICAL_SURFACE('',#578,0.0015);
#36=CYLINDRICAL_SURFACE('',#582,0.0015);
#37=CYLINDRICAL_SURFACE('',#586,0.0026);
#38=CYLINDRICAL_SURFACE('',#591,0.004);
#39=CYLINDRICAL_SURFACE('',#597,0.004);
#40=CYLINDRICAL_SURFACE('',#601,0.0025);
#41=CYLINDRICAL_SURFACE('',#605,0.0025);
#42=ORIENTED_EDGE('',*,*,#194,.T.);
#43=ORIENTED_EDGE('',*,*,#195,.F.);
#44=ORIENTED_EDGE('',*,*,#196,.F.);
#45=ORIENTED_EDGE('',*,*,#197,.T.);
#46=ORIENTED_EDGE('',*,*,#196,.T.);
#47=ORIENTED_EDGE('',*,*,#198,.T.);
#48=ORIENTED_EDGE('',*,*,#199,.F.);
#49=ORIENTED_EDGE('',*,*,#200,.F.);
#50=ORIENTED_EDGE('',*,*,#199,.T.);
#51=ORIENTED_EDGE('',*,*,#201,.T.);
#52=ORIENTED_EDGE('',*,*,#202,.F.);
#53=ORIENTED_EDGE('',*,*,#203,.F.);
#54=ORIENTED_EDGE('',*,*,#202,.T.);
#55=ORIENTED_EDGE('',*,*,#204,.T.);
#56=ORIENTED_EDGE('',*,*,#205,.F.);
#57=ORIENTED_EDGE('',*,*,#206,.F.);
#58=ORIENTED_EDGE('',*,*,#205,.T.);
#59=ORIENTED_EDGE('',*,*,#207,.T.);
#60=ORIENTED_EDGE('',*,*,#208,.F.);
#61=ORIENTED_EDGE('',*,*,#209,.F.);
#62=ORIENTED_EDGE('',*,*,#210,.T.);
#63=ORIENTED_EDGE('',*,*,#211,.F.);
#64=ORIENTED_EDGE('',*,*,#197,.F.);
#65=ORIENTED_EDGE('',*,*,#200,.T.);
#66=ORIENTED_EDGE('',*,*,#203,.T.);
#67=ORIENTED_EDGE('',*,*,#206,.T.);
#68=ORIENTED_EDGE('',*,*,#209,.T.);
#69=ORIENTED_EDGE('',*,*,#212,.T.);
#70=ORIENTED_EDGE('',*,*,#210,.F.);
#71=ORIENTED_EDGE('',*,*,#213,.F.);
#72=ORIENTED_EDGE('',*,*,#214,.F.);
#73=ORIENTED_EDGE('',*,*,#215,.F.);
#74=ORIENTED_EDGE('',*,*,#216,.T.);
#75=ORIENTED_EDGE('',*,*,#217,.F.);
#76=ORIENTED_EDGE('',*,*,#218,.T.);
#77=ORIENTED_EDGE('',*,*,#219,.T.);
#78=ORIENTED_EDGE('',*,*,#220,.F.);
#79=ORIENTED_EDGE('',*,*,#221,.F.);
#80=ORIENTED_EDGE('',*,*,#222,.T.);
#81=ORIENTED_EDGE('',*,*,#221,.T.);
#82=ORIENTED_EDGE('',*,*,#223,.T.);
#83=ORIENTED_EDGE('',*,*,#224,.F.);
#84=ORIENTED_EDGE('',*,*,#225,.F.);
#85=ORIENTED_EDGE('',*,*,#224,.T.);
#86=ORIENTED_EDGE('',*,*,#226,.F.);
#87=ORIENTED_EDGE('',*,*,#227,.F.);
#88=ORIENTED_EDGE('',*,*,#228,.T.);
#89=ORIENTED_EDGE('',*,*,#227,.T.);
#90=ORIENTED_EDGE('',*,*,#229,.T.);
#91=ORIENTED_EDGE('',*,*,#230,.F.);
#92=ORIENTED_EDGE('',*,*,#231,.F.);
#93=ORIENTED_EDGE('',*,*,#230,.T.);
#94=ORIENTED_EDGE('',*,*,#232,.T.);
#95=ORIENTED_EDGE('',*,*,#233,.F.);
#96=ORIENTED_EDGE('',*,*,#234,.F.);
#97=ORIENTED_EDGE('',*,*,#235,.T.);
#98=ORIENTED_EDGE('',*,*,#236,.F.);
#99=ORIENTED_EDGE('',*,*,#237,.T.);
#100=ORIENTED_EDGE('',*,*,#222,.F.);
#101=ORIENTED_EDGE('',*,*,#225,.T.);
#102=ORIENTED_EDGE('',*,*,#228,.F.);
#103=ORIENTED_EDGE('',*,*,#231,.T.);
#104=ORIENTED_EDGE('',*,*,#234,.T.);
#105=ORIENTED_EDGE('',*,*,#235,.F.);
#106=ORIENTED_EDGE('',*,*,#238,.T.);
#107=ORIENTED_EDGE('',*,*,#239,.T.);
#108=ORIENTED_EDGE('',*,*,#240,.F.);
#109=ORIENTED_EDGE('',*,*,#241,.F.);
#110=ORIENTED_EDGE('',*,*,#194,.F.);
#111=ORIENTED_EDGE('',*,*,#212,.F.);
#112=ORIENTED_EDGE('',*,*,#208,.T.);
#113=ORIENTED_EDGE('',*,*,#242,.F.);
#114=ORIENTED_EDGE('',*,*,#219,.F.);
#115=ORIENTED_EDGE('',*,*,#237,.F.);
#116=ORIENTED_EDGE('',*,*,#233,.T.);
#117=ORIENTED_EDGE('',*,*,#243,.F.);
#118=ORIENTED_EDGE('',*,*,#244,.T.);
#119=ORIENTED_EDGE('',*,*,#245,.F.);
#120=ORIENTED_EDGE('',*,*,#238,.F.);
#121=ORIENTED_EDGE('',*,*,#246,.T.);
#122=ORIENTED_EDGE('',*,*,#247,.T.);
#123=ORIENTED_EDGE('',*,*,#248,.T.);
#124=ORIENTED_EDGE('',*,*,#244,.F.);
#125=ORIENTED_EDGE('',*,*,#249,.F.);
#126=ORIENTED_EDGE('',*,*,#250,.T.);
#127=ORIENTED_EDGE('',*,*,#251,.T.);
#128=ORIENTED_EDGE('',*,*,#252,.T.);
#129=ORIENTED_EDGE('',*,*,#214,.T.);
#130=ORIENTED_EDGE('',*,*,#253,.F.);
#131=ORIENTED_EDGE('',*,*,#254,.T.);
#132=ORIENTED_EDGE('',*,*,#247,.F.);
#133=ORIENTED_EDGE('',*,*,#255,.F.);
#134=ORIENTED_EDGE('',*,*,#256,.T.);
#135=ORIENTED_EDGE('',*,*,#257,.T.);
#136=ORIENTED_EDGE('',*,*,#250,.F.);
#137=ORIENTED_EDGE('',*,*,#258,.F.);
#138=ORIENTED_EDGE('',*,*,#240,.T.);
#139=ORIENTED_EDGE('',*,*,#259,.F.);
#140=ORIENTED_EDGE('',*,*,#256,.F.);
#141=ORIENTED_EDGE('',*,*,#260,.T.);
#142=ORIENTED_EDGE('',*,*,#220,.T.);
#143=ORIENTED_EDGE('',*,*,#242,.T.);
#144=ORIENTED_EDGE('',*,*,#207,.F.);
#145=ORIENTED_EDGE('',*,*,#204,.F.);
#146=ORIENTED_EDGE('',*,*,#201,.F.);
#147=ORIENTED_EDGE('',*,*,#198,.F.);
#148=ORIENTED_EDGE('',*,*,#195,.T.);
#149=ORIENTED_EDGE('',*,*,#241,.T.);
#150=ORIENTED_EDGE('',*,*,#260,.F.);
#151=ORIENTED_EDGE('',*,*,#258,.T.);
#152=ORIENTED_EDGE('',*,*,#255,.T.);
#153=ORIENTED_EDGE('',*,*,#249,.T.);
#154=ORIENTED_EDGE('',*,*,#246,.F.);
#155=ORIENTED_EDGE('',*,*,#243,.T.);
#156=ORIENTED_EDGE('',*,*,#232,.F.);
#157=ORIENTED_EDGE('',*,*,#229,.F.);
#158=ORIENTED_EDGE('',*,*,#226,.T.);
#159=ORIENTED_EDGE('',*,*,#223,.F.);
#160=ORIENTED_EDGE('',*,*,#236,.T.);
#161=ORIENTED_EDGE('',*,*,#211,.T.);
#162=ORIENTED_EDGE('',*,*,#216,.F.);
#163=ORIENTED_EDGE('',*,*,#261,.F.);
#164=ORIENTED_EDGE('',*,*,#262,.T.);
#165=ORIENTED_EDGE('',*,*,#263,.T.);
#166=ORIENTED_EDGE('',*,*,#215,.T.);
#167=ORIENTED_EDGE('',*,*,#252,.F.);
#168=ORIENTED_EDGE('',*,*,#264,.F.);
#169=ORIENTED_EDGE('',*,*,#261,.T.);
#170=ORIENTED_EDGE('',*,*,#213,.T.);
#171=ORIENTED_EDGE('',*,*,#265,.F.);
#172=ORIENTED_EDGE('',*,*,#266,.F.);
#173=ORIENTED_EDGE('',*,*,#253,.T.);
#174=ORIENTED_EDGE('',*,*,#218,.F.);
#175=ORIENTED_EDGE('',*,*,#267,.F.);
#176=ORIENTED_EDGE('',*,*,#268,.T.);
#177=ORIENTED_EDGE('',*,*,#265,.T.);
#178=ORIENTED_EDGE('',*,*,#217,.T.);
#179=ORIENTED_EDGE('',*,*,#263,.F.);
#180=ORIENTED_EDGE('',*,*,#269,.F.);
#181=ORIENTED_EDGE('',*,*,#267,.T.);
#182=ORIENTED_EDGE('',*,*,#262,.F.);
#183=ORIENTED_EDGE('',*,*,#264,.T.);
#184=ORIENTED_EDGE('',*,*,#251,.F.);
#185=ORIENTED_EDGE('',*,*,#257,.F.);
#186=ORIENTED_EDGE('',*,*,#259,.T.);
#187=ORIENTED_EDGE('',*,*,#239,.F.);
#188=ORIENTED_EDGE('',*,*,#245,.T.);
#189=ORIENTED_EDGE('',*,*,#248,.F.);
#190=ORIENTED_EDGE('',*,*,#254,.F.);
#191=ORIENTED_EDGE('',*,*,#266,.T.);
#192=ORIENTED_EDGE('',*,*,#268,.F.);
#193=ORIENTED_EDGE('',*,*,#269,.T.);
#194=EDGE_CURVE('',#270,#271,#322,.T.);
#195=EDGE_CURVE('',#272,#271,#323,.T.);
#196=EDGE_CURVE('',#273,#272,#324,.T.);
#197=EDGE_CURVE('',#273,#270,#325,.T.);
#198=EDGE_CURVE('',#272,#274,#12,.T.);
#199=EDGE_CURVE('',#275,#274,#326,.T.);
#200=EDGE_CURVE('',#273,#275,#13,.T.);
#201=EDGE_CURVE('',#274,#276,#327,.T.);
#202=EDGE_CURVE('',#277,#276,#328,.T.);
#203=EDGE_CURVE('',#275,#277,#329,.T.);
#204=EDGE_CURVE('',#276,#278,#14,.T.);
#205=EDGE_CURVE('',#279,#278,#330,.T.);
#206=EDGE_CURVE('',#277,#279,#15,.T.);
#207=EDGE_CURVE('',#278,#280,#331,.T.);
#208=EDGE_CURVE('',#281,#280,#332,.T.);
#209=EDGE_CURVE('',#279,#281,#333,.T.);
#210=EDGE_CURVE('',#282,#282,#16,.T.);
#211=EDGE_CURVE('',#283,#283,#17,.T.);
#212=EDGE_CURVE('',#281,#270,#334,.T.);
#213=EDGE_CURVE('',#284,#285,#335,.T.);
#214=EDGE_CURVE('',#286,#284,#336,.T.);
#215=EDGE_CURVE('',#287,#286,#337,.T.);
#216=EDGE_CURVE('',#287,#288,#18,.T.);
#217=EDGE_CURVE('',#289,#288,#338,.T.);
#218=EDGE_CURVE('',#289,#285,#19,.T.);
#219=EDGE_CURVE('',#290,#291,#339,.T.);
#220=EDGE_CURVE('',#292,#291,#340,.T.);
#221=EDGE_CURVE('',#293,#292,#341,.T.);
#222=EDGE_CURVE('',#293,#290,#342,.T.);
#223=EDGE_CURVE('',#292,#294,#20,.T.);
#224=EDGE_CURVE('',#295,#294,#343,.T.);
#225=EDGE_CURVE('',#293,#295,#21,.T.);
#226=EDGE_CURVE('',#296,#294,#344,.T.);
#227=EDGE_CURVE('',#297,#296,#345,.T.);
#228=EDGE_CURVE('',#297,#295,#346,.T.);
#229=EDGE_CURVE('',#296,#298,#22,.T.);
#230=EDGE_CURVE('',#299,#298,#347,.T.);
#231=EDGE_CURVE('',#297,#299,#23,.T.);
#232=EDGE_CURVE('',#298,#300,#348,.T.);
#233=EDGE_CURVE('',#301,#300,#349,.T.);
#234=EDGE_CURVE('',#299,#301,#350,.T.);
#235=EDGE_CURVE('',#302,#302,#24,.T.);
#236=EDGE_CURVE('',#303,#303,#25,.T.);
#237=EDGE_CURVE('',#301,#290,#351,.T.);
#238=EDGE_CURVE('',#304,#305,#352,.T.);
#239=EDGE_CURVE('',#305,#306,#353,.T.);
#240=EDGE_CURVE('',#307,#306,#354,.T.);
#241=EDGE_CURVE('',#271,#307,#355,.T.);
#242=EDGE_CURVE('',#291,#280,#356,.T.);
#243=EDGE_CURVE('',#304,#300,#357,.T.);
#244=EDGE_CURVE('',#308,#309,#358,.T.);
#245=EDGE_CURVE('',#305,#309,#26,.T.);
#246=EDGE_CURVE('',#304,#308,#27,.T.);
#247=EDGE_CURVE('',#310,#311,#359,.T.);
#248=EDGE_CURVE('',#311,#309,#360,.T.);
#249=EDGE_CURVE('',#310,#308,#361,.T.);
#250=EDGE_CURVE('',#312,#313,#362,.T.);
#251=EDGE_CURVE('',#313,#314,#363,.T.);
#252=EDGE_CURVE('',#314,#286,#364,.T.);
#253=EDGE_CURVE('',#315,#284,#365,.T.);
#254=EDGE_CURVE('',#315,#311,#366,.T.);
#255=EDGE_CURVE('',#312,#310,#367,.T.);
#256=EDGE_CURVE('',#316,#317,#368,.T.);
#257=EDGE_CURVE('',#317,#313,#369,.T.);
#258=EDGE_CURVE('',#316,#312,#370,.T.);
#259=EDGE_CURVE('',#317,#306,#28,.T.);
#260=EDGE_CURVE('',#316,#307,#29,.T.);
#261=EDGE_CURVE('',#318,#287,#371,.T.);
#262=EDGE_CURVE('',#318,#319,#30,.T.);
#263=EDGE_CURVE('',#319,#288,#372,.T.);
#264=EDGE_CURVE('',#318,#314,#373,.T.);
#265=EDGE_CURVE('',#320,#285,#374,.T.);
#266=EDGE_CURVE('',#315,#320,#375,.T.);
#267=EDGE_CURVE('',#321,#289,#376,.T.);
#268=EDGE_CURVE('',#321,#320,#31,.T.);
#269=EDGE_CURVE('',#321,#319,#377,.T.);
#270=VERTEX_POINT('',#766);
#271=VERTEX_POINT('',#767);
#272=VERTEX_POINT('',#769);
#273=VERTEX_POINT('',#771);
#274=VERTEX_POINT('',#775);
#275=VERTEX_POINT('',#777);
#276=VERTEX_POINT('',#781);
#277=VERTEX_POINT('',#783);
#278=VERTEX_POINT('',#787);
#279=VERTEX_POINT('',#789);
#280=VERTEX_POINT('',#793);
#281=VERTEX_POINT('',#795);
#282=VERTEX_POINT('',#799);
#283=VERTEX_POINT('',#801);
#284=VERTEX_POINT('',#806);
#285=VERTEX_POINT('',#807);
#286=VERTEX_POINT('',#809);
#287=VERTEX_POINT('',#811);
#288=VERTEX_POINT('',#813);
#289=VERTEX_POINT('',#815);
#290=VERTEX_POINT('',#819);
#291=VERTEX_POINT('',#820);
#292=VERTEX_POINT('',#822);
#293=VERTEX_POINT('',#824);
#294=VERTEX_POINT('',#828);
#295=VERTEX_POINT('',#830);
#296=VERTEX_POINT('',#834);
#297=VERTEX_POINT('',#836);
#298=VERTEX_POINT('',#840);
#299=VERTEX_POINT('',#842);
#300=VERTEX_POINT('',#846);
#301=VERTEX_POINT('',#848);
#302=VERTEX_POINT('',#852);
#303=VERTEX_POINT('',#854);
#304=VERTEX_POINT('',#859);
#305=VERTEX_POINT('',#860);
#306=VERTEX_POINT('',#862);
#307=VERTEX_POINT('',#864);
#308=VERTEX_POINT('',#870);
#309=VERTEX_POINT('',#871);
#310=VERTEX_POINT('',#876);
#311=VERTEX_POINT('',#877);
#312=VERTEX_POINT('',#882);
#313=VERTEX_POINT('',#883);
#314=VERTEX_POINT('',#885);
#315=VERTEX_POINT('',#888);
#316=VERTEX_POINT('',#893);
#317=VERTEX_POINT('',#894);
#318=VERTEX_POINT('',#903);
#319=VERTEX_POINT('',#905);
#320=VERTEX_POINT('',#911);
#321=VERTEX_POINT('',#915);
#322=LINE('',#765,#378);
#323=LINE('',#768,#379);
#324=LINE('',#770,#380);
#325=LINE('',#772,#381);
#326=LINE('',#776,#382);
#327=LINE('',#780,#383);
#328=LINE('',#782,#384);
#329=LINE('',#784,#385);
#330=LINE('',#788,#386);
#331=LINE('',#792,#387);
#332=LINE('',#794,#388);
#333=LINE('',#796,#389);
#334=LINE('',#803,#390);
#335=LINE('',#805,#391);
#336=LINE('',#808,#392);
#337=LINE('',#810,#393);
#338=LINE('',#814,#394);
#339=LINE('',#818,#395);
#340=LINE('',#821,#396);
#341=LINE('',#823,#397);
#342=LINE('',#825,#398);
#343=LINE('',#829,#399);
#344=LINE('',#833,#400);
#345=LINE('',#835,#401);
#346=LINE('',#837,#402);
#347=LINE('',#841,#403);
#348=LINE('',#845,#404);
#349=LINE('',#847,#405);
#350=LINE('',#849,#406);
#351=LINE('',#856,#407);
#352=LINE('',#858,#408);
#353=LINE('',#861,#409);
#354=LINE('',#863,#410);
#355=LINE('',#865,#411);
#356=LINE('',#866,#412);
#357=LINE('',#867,#413);
#358=LINE('',#869,#414);
#359=LINE('',#875,#415);
#360=LINE('',#878,#416);
#361=LINE('',#879,#417);
#362=LINE('',#881,#418);
#363=LINE('',#884,#419);
#364=LINE('',#886,#420);
#365=LINE('',#887,#421);
#366=LINE('',#889,#422);
#367=LINE('',#890,#423);
#368=LINE('',#892,#424);
#369=LINE('',#895,#425);
#370=LINE('',#896,#426);
#371=LINE('',#902,#427);
#372=LINE('',#906,#428);
#373=LINE('',#908,#429);
#374=LINE('',#910,#430);
#375=LINE('',#912,#431);
#376=LINE('',#914,#432);
#377=LINE('',#918,#433);
#378=VECTOR('',#613,1.);
#379=VECTOR('',#614,1.);
#380=VECTOR('',#615,1.);
#381=VECTOR('',#616,1.);
#382=VECTOR('',#621,1.);
#383=VECTOR('',#626,1.);
#384=VECTOR('',#627,1.);
#385=VECTOR('',#628,1.);
#386=VECTOR('',#633,1.);
#387=VECTOR('',#638,1.);
#388=VECTOR('',#639,1.);
#389=VECTOR('',#640,1.);
#390=VECTOR('',#649,1.);
#391=VECTOR('',#652,1.);
#392=VECTOR('',#653,1.);
#393=VECTOR('',#654,1.);
#394=VECTOR('',#657,1.);
#395=VECTOR('',#662,1.);
#396=VECTOR('',#663,1.);
#397=VECTOR('',#664,1.);
#398=VECTOR('',#665,1.);
#399=VECTOR('',#670,1.);
#400=VECTOR('',#675,1.);
#401=VECTOR('',#676,1.);
#402=VECTOR('',#677,1.);
#403=VECTOR('',#682,1.);
#404=VECTOR('',#687,1.);
#405=VECTOR('',#688,1.);
#406=VECTOR('',#689,1.);
#407=VECTOR('',#698,1.);
#408=VECTOR('',#701,1.);
#409=VECTOR('',#702,1.);
#410=VECTOR('',#703,1.);
#411=VECTOR('',#704,1.);
#412=VECTOR('',#705,1.);
#413=VECTOR('',#706,1.);
#414=VECTOR('',#709,1.);
#415=VECTOR('',#716,1.);
#416=VECTOR('',#717,1.);
#417=VECTOR('',#718,1.);
#418=VECTOR('',#721,1.);
#419=VECTOR('',#722,1.);
#420=VECTOR('',#723,1.);
#421=VECTOR('',#724,1.);
#422=VECTOR('',#725,1.);
#423=VECTOR('',#726,1.);
#424=VECTOR('',#729,1.);
#425=VECTOR('',#730,1.);
#426=VECTOR('',#731,1.);
#427=VECTOR('',#742,1.);
#428=VECTOR('',#745,1.);
#429=VECTOR('',#748,1.);
#430=VECTOR('',#751,1.);
#431=VECTOR('',#752,1.);
#432=VECTOR('',#755,1.);
#433=VECTOR('',#760,1.);
#434=EDGE_LOOP('',(#42,#43,#44,#45));
#435=EDGE_LOOP('',(#46,#47,#48,#49));
#436=EDGE_LOOP('',(#50,#51,#52,#53));
#437=EDGE_LOOP('',(#54,#55,#56,#57));
#438=EDGE_LOOP('',(#58,#59,#60,#61));
#439=EDGE_LOOP('',(#62));
#440=EDGE_LOOP('',(#63));
#441=EDGE_LOOP('',(#64,#65,#66,#67,#68,#69));
#442=EDGE_LOOP('',(#70));
#443=EDGE_LOOP('',(#71,#72,#73,#74,#75,#76));
#444=EDGE_LOOP('',(#77,#78,#79,#80));
#445=EDGE_LOOP('',(#81,#82,#83,#84));
#446=EDGE_LOOP('',(#85,#86,#87,#88));
#447=EDGE_LOOP('',(#89,#90,#91,#92));
#448=EDGE_LOOP('',(#93,#94,#95,#96));
#449=EDGE_LOOP('',(#97));
#450=EDGE_LOOP('',(#98));
#451=EDGE_LOOP('',(#99,#100,#101,#102,#103,#104));
#452=EDGE_LOOP('',(#105));
#453=EDGE_LOOP('',(#106,#107,#108,#109,#110,#111,#112,#113,#114,#115,#116,
#117));
#454=EDGE_LOOP('',(#118,#119,#120,#121));
#455=EDGE_LOOP('',(#122,#123,#124,#125));
#456=EDGE_LOOP('',(#126,#127,#128,#129,#130,#131,#132,#133));
#457=EDGE_LOOP('',(#134,#135,#136,#137));
#458=EDGE_LOOP('',(#138,#139,#140,#141));
#459=EDGE_LOOP('',(#142,#143,#144,#145,#146,#147,#148,#149,#150,#151,#152,
#153,#154,#155,#156,#157,#158,#159));
#460=EDGE_LOOP('',(#160));
#461=EDGE_LOOP('',(#161));
#462=EDGE_LOOP('',(#162,#163,#164,#165));
#463=EDGE_LOOP('',(#166,#167,#168,#169));
#464=EDGE_LOOP('',(#170,#171,#172,#173));
#465=EDGE_LOOP('',(#174,#175,#176,#177));
#466=EDGE_LOOP('',(#178,#179,#180,#181));
#467=EDGE_LOOP('',(#182,#183,#184,#185,#186,#187,#188,#189,#190,#191,#192,
#193));
#468=FACE_BOUND('',#434,.T.);
#469=FACE_BOUND('',#435,.T.);
#470=FACE_BOUND('',#436,.T.);
#471=FACE_BOUND('',#437,.T.);
#472=FACE_BOUND('',#438,.T.);
#473=FACE_BOUND('',#439,.T.);
#474=FACE_BOUND('',#440,.T.);
#475=FACE_BOUND('',#441,.T.);
#476=FACE_BOUND('',#442,.T.);
#477=FACE_BOUND('',#443,.T.);
#478=FACE_BOUND('',#444,.T.);
#479=FACE_BOUND('',#445,.T.);
#480=FACE_BOUND('',#446,.T.);
#481=FACE_BOUND('',#447,.T.);
#482=FACE_BOUND('',#448,.T.);
#483=FACE_BOUND('',#449,.T.);
#484=FACE_BOUND('',#450,.T.);
#485=FACE_BOUND('',#451,.T.);
#486=FACE_BOUND('',#452,.T.);
#487=FACE_BOUND('',#453,.T.);
#488=FACE_BOUND('',#454,.T.);
#489=FACE_BOUND('',#455,.T.);
#490=FACE_BOUND('',#456,.T.);
#491=FACE_BOUND('',#457,.T.);
#492=FACE_BOUND('',#458,.T.);
#493=FACE_BOUND('',#459,.T.);
#494=FACE_BOUND('',#460,.T.);
#495=FACE_BOUND('',#461,.T.);
#496=FACE_BOUND('',#462,.T.);
#497=FACE_BOUND('',#463,.T.);
#498=FACE_BOUND('',#464,.T.);
#499=FACE_BOUND('',#465,.T.);
#500=FACE_BOUND('',#466,.T.);
#501=FACE_BOUND('',#467,.T.);
#502=PLANE('',#561);
#503=PLANE('',#565);
#504=PLANE('',#569);
#505=PLANE('',#573);
#506=PLANE('',#574);
#507=PLANE('',#577);
#508=PLANE('',#581);
#509=PLANE('',#585);
#510=PLANE('',#589);
#511=PLANE('',#590);
#512=PLANE('',#594);
#513=PLANE('',#595);
#514=PLANE('',#596);
#515=PLANE('',#600);
#516=PLANE('',#603);
#517=PLANE('',#604);
#518=PLANE('',#607);
#519=PLANE('',#608);
#520=ADVANCED_FACE('',(#468),#502,.T.);
#521=ADVANCED_FACE('',(#469),#32,.T.);
#522=ADVANCED_FACE('',(#470),#503,.F.);
#523=ADVANCED_FACE('',(#471),#33,.T.);
#524=ADVANCED_FACE('',(#472),#504,.F.);
#525=ADVANCED_FACE('',(#473,#474),#34,.F.);
#526=ADVANCED_FACE('',(#475,#476),#505,.T.);
#527=ADVANCED_FACE('',(#477),#506,.T.);
#528=ADVANCED_FACE('',(#478),#507,.T.);
#529=ADVANCED_FACE('',(#479),#35,.T.);
#530=ADVANCED_FACE('',(#480),#508,.T.);
#531=ADVANCED_FACE('',(#481),#36,.T.);
#532=ADVANCED_FACE('',(#482),#509,.F.);
#533=ADVANCED_FACE('',(#483,#484),#37,.F.);
#534=ADVANCED_FACE('',(#485,#486),#510,.T.);
#535=ADVANCED_FACE('',(#487),#511,.F.);
#536=ADVANCED_FACE('',(#488),#38,.T.);
#537=ADVANCED_FACE('',(#489),#512,.F.);
#538=ADVANCED_FACE('',(#490),#513,.F.);
#539=ADVANCED_FACE('',(#491),#514,.F.);
#540=ADVANCED_FACE('',(#492),#39,.T.);
#541=ADVANCED_FACE('',(#493,#494,#495),#515,.F.);
#542=ADVANCED_FACE('',(#496),#40,.F.);
#543=ADVANCED_FACE('',(#497),#516,.F.);
#544=ADVANCED_FACE('',(#498),#517,.F.);
#545=ADVANCED_FACE('',(#499),#41,.F.);
#546=ADVANCED_FACE('',(#500),#518,.F.);
#547=ADVANCED_FACE('',(#501),#519,.T.);
#548=CLOSED_SHELL('',(#520,#521,#522,#523,#524,#525,#526,#527,#528,#529,
#530,#531,#532,#533,#534,#535,#536,#537,#538,#539,#540,#541,#542,#543,#544,
#545,#546,#547));
#549=STYLED_ITEM('',(#550),#557);
#550=PRESENTATION_STYLE_ASSIGNMENT((#551));
#551=SURFACE_STYLE_USAGE(.BOTH.,#552);
#552=SURFACE_SIDE_STYLE('',(#553));
#553=SURFACE_STYLE_FILL_AREA(#554);
#554=FILL_AREA_STYLE('',(#555));
#555=FILL_AREA_STYLE_COLOUR('',#556);
#556=COLOUR_RGB('',0.537254901960784,0.854901960784314,0.827450980392157);
#557=MANIFOLD_SOLID_BREP('bottom',#548);
#558=SHAPE_DEFINITION_REPRESENTATION(#926,#559);
#559=SHAPE_REPRESENTATION('bottom',(#560),#921);
#560=AXIS2_PLACEMENT_3D('',#763,#609,#610);
#561=AXIS2_PLACEMENT_3D('',#764,#611,#612);
#562=AXIS2_PLACEMENT_3D('',#773,#617,#618);
#563=AXIS2_PLACEMENT_3D('',#774,#619,#620);
#564=AXIS2_PLACEMENT_3D('',#778,#622,#623);
#565=AXIS2_PLACEMENT_3D('',#779,#624,#625);
#566=AXIS2_PLACEMENT_3D('',#785,#629,#630);
#567=AXIS2_PLACEMENT_3D('',#786,#631,#632);
#568=AXIS2_PLACEMENT_3D('',#790,#634,#635);
#569=AXIS2_PLACEMENT_3D('',#791,#636,#637);
#570=AXIS2_PLACEMENT_3D('',#797,#641,#642);
#571=AXIS2_PLACEMENT_3D('',#798,#643,#644);
#572=AXIS2_PLACEMENT_3D('',#800,#645,#646);
#573=AXIS2_PLACEMENT_3D('',#802,#647,#648);
#574=AXIS2_PLACEMENT_3D('',#804,#650,#651);
#575=AXIS2_PLACEMENT_3D('',#812,#655,#656);
#576=AXIS2_PLACEMENT_3D('',#816,#658,#659);
#577=AXIS2_PLACEMENT_3D('',#817,#660,#661);
#578=AXIS2_PLACEMENT_3D('',#826,#666,#667);
#579=AXIS2_PLACEMENT_3D('',#827,#668,#669);
#580=AXIS2_PLACEMENT_3D('',#831,#671,#672);
#581=AXIS2_PLACEMENT_3D('',#832,#673,#674);
#582=AXIS2_PLACEMENT_3D('',#838,#678,#679);
#583=AXIS2_PLACEMENT_3D('',#839,#680,#681);
#584=AXIS2_PLACEMENT_3D('',#843,#683,#684);
#585=AXIS2_PLACEMENT_3D('',#844,#685,#686);
#586=AXIS2_PLACEMENT_3D('',#850,#690,#691);
#587=AXIS2_PLACEMENT_3D('',#851,#692,#693);
#588=AXIS2_PLACEMENT_3D('',#853,#694,#695);
#589=AXIS2_PLACEMENT_3D('',#855,#696,#697);
#590=AXIS2_PLACEMENT_3D('',#857,#699,#700);
#591=AXIS2_PLACEMENT_3D('',#868,#707,#708);
#592=AXIS2_PLACEMENT_3D('',#872,#710,#711);
#593=AXIS2_PLACEMENT_3D('',#873,#712,#713);
#594=AXIS2_PLACEMENT_3D('',#874,#714,#715);
#595=AXIS2_PLACEMENT_3D('',#880,#719,#720);
#596=AXIS2_PLACEMENT_3D('',#891,#727,#728);
#597=AXIS2_PLACEMENT_3D('',#897,#732,#733);
#598=AXIS2_PLACEMENT_3D('',#898,#734,#735);
#599=AXIS2_PLACEMENT_3D('',#899,#736,#737);
#600=AXIS2_PLACEMENT_3D('',#900,#738,#739);
#601=AXIS2_PLACEMENT_3D('',#901,#740,#741);
#602=AXIS2_PLACEMENT_3D('',#904,#743,#744);
#603=AXIS2_PLACEMENT_3D('',#907,#746,#747);
#604=AXIS2_PLACEMENT_3D('',#909,#749,#750);
#605=AXIS2_PLACEMENT_3D('',#913,#753,#754);
#606=AXIS2_PLACEMENT_3D('',#916,#756,#757);
#607=AXIS2_PLACEMENT_3D('',#917,#758,#759);
#608=AXIS2_PLACEMENT_3D('',#919,#761,#762);
#609=DIRECTION('',(0.,0.,1.));
#610=DIRECTION('',(1.,0.,0.));
#611=DIRECTION('',(-1.,0.,0.));
#612=DIRECTION('',(0.,0.,1.));
#613=DIRECTION('',(0.,0.,-1.));
#614=DIRECTION('',(0.,1.,0.));
#615=DIRECTION('',(0.,0.,-1.));
#616=DIRECTION('',(0.,1.,0.));
#617=DIRECTION('',(0.,0.,-1.));
#618=DIRECTION('',(-1.,0.,0.));
#619=DIRECTION('',(0.,0.,1.));
#620=DIRECTION('',(1.,0.,0.));
#621=DIRECTION('',(0.,0.,-1.));
#622=DIRECTION('',(0.,0.,1.));
#623=DIRECTION('',(1.,0.,0.));
#624=DIRECTION('',(0.,1.,0.));
#625=DIRECTION('',(0.,0.,1.));
#626=DIRECTION('',(1.,0.,0.));
#627=DIRECTION('',(0.,0.,-1.));
#628=DIRECTION('',(1.,0.,0.));
#629=DIRECTION('',(0.,0.,-1.));
#630=DIRECTION('',(-1.,0.,0.));
#631=DIRECTION('',(0.,0.,1.));
#632=DIRECTION('',(1.,0.,0.));
#633=DIRECTION('',(0.,0.,-1.));
#634=DIRECTION('',(0.,0.,1.));
#635=DIRECTION('',(1.,0.,0.));
#636=DIRECTION('',(-1.,0.,0.));
#637=DIRECTION('',(0.,0.,1.));
#638=DIRECTION('',(0.,1.,0.));
#639=DIRECTION('',(0.,0.,-1.));
#640=DIRECTION('',(0.,1.,0.));
#641=DIRECTION('',(0.,0.,-1.));
#642=DIRECTION('',(-1.,0.,0.));
#643=DIRECTION('',(0.,0.,1.));
#644=DIRECTION('',(1.,0.,0.));
#645=DIRECTION('',(0.,0.,1.));
#646=DIRECTION('',(1.,0.,0.));
#647=DIRECTION('',(0.,0.,1.));
#648=DIRECTION('',(1.,0.,0.));
#649=DIRECTION('',(-1.,0.,0.));
#650=DIRECTION('',(0.,0.,1.));
#651=DIRECTION('',(1.,0.,0.));
#652=DIRECTION('',(0.,-1.,0.));
#653=DIRECTION('',(1.,0.,0.));
#654=DIRECTION('',(0.,1.,0.));
#655=DIRECTION('',(0.,0.,1.));
#656=DIRECTION('',(1.,0.,0.));
#657=DIRECTION('',(-1.,0.,0.));
#658=DIRECTION('',(0.,0.,1.));
#659=DIRECTION('',(1.,0.,0.));
#660=DIRECTION('',(-1.,0.,0.));
#661=DIRECTION('',(0.,0.,1.));
#662=DIRECTION('',(0.,0.,-1.));
#663=DIRECTION('',(0.,1.,0.));
#664=DIRECTION('',(0.,0.,-1.));
#665=DIRECTION('',(0.,1.,0.));
#666=DIRECTION('',(0.,0.,-1.));
#667=DIRECTION('',(-1.,0.,0.));
#668=DIRECTION('',(0.,0.,1.));
#669=DIRECTION('',(1.,0.,0.));
#670=DIRECTION('',(0.,0.,-1.));
#671=DIRECTION('',(0.,0.,1.));
#672=DIRECTION('',(1.,0.,0.));
#673=DIRECTION('',(0.,-1.,0.));
#674=DIRECTION('',(0.,0.,-1.));
#675=DIRECTION('',(-1.,0.,0.));
#676=DIRECTION('',(0.,0.,-1.));
#677=DIRECTION('',(-1.,0.,0.));
#678=DIRECTION('',(0.,0.,-1.));
#679=DIRECTION('',(-1.,0.,0.));
#680=DIRECTION('',(0.,0.,1.));
#681=DIRECTION('',(1.,0.,0.));
#682=DIRECTION('',(0.,0.,-1.));
#683=DIRECTION('',(0.,0.,1.));
#684=DIRECTION('',(1.,0.,0.));
#685=DIRECTION('',(-1.,0.,0.));
#686=DIRECTION('',(0.,0.,1.));
#687=DIRECTION('',(0.,1.,0.));
#688=DIRECTION('',(0.,0.,-1.));
#689=DIRECTION('',(0.,1.,0.));
#690=DIRECTION('',(0.,0.,-1.));
#691=DIRECTION('',(-1.,0.,0.));
#692=DIRECTION('',(0.,0.,1.));
#693=DIRECTION('',(1.,0.,0.));
#694=DIRECTION('',(0.,0.,1.));
#695=DIRECTION('',(1.,0.,0.));
#696=DIRECTION('',(0.,0.,1.));
#697=DIRECTION('',(1.,0.,0.));
#698=DIRECTION('',(-1.,0.,0.));
#699=DIRECTION('',(0.,1.,0.));
#700=DIRECTION('',(0.,0.,1.));
#701=DIRECTION('',(0.,0.,1.));
#702=DIRECTION('',(-1.,0.,0.));
#703=DIRECTION('',(0.,0.,1.));
#704=DIRECTION('',(-1.,0.,0.));
#705=DIRECTION('',(-1.,0.,0.));
#706=DIRECTION('',(-1.,0.,0.));
#707=DIRECTION('',(0.,0.,1.));
#708=DIRECTION('',(1.,0.,0.));
#709=DIRECTION('',(0.,0.,1.));
#710=DIRECTION('',(0.,0.,1.));
#711=DIRECTION('',(1.,0.,0.));
#712=DIRECTION('',(0.,0.,1.));
#713=DIRECTION('',(1.,0.,0.));
#714=DIRECTION('',(-1.,0.,0.));
#715=DIRECTION('',(0.,0.,1.));
#716=DIRECTION('',(0.,0.,1.));
#717=DIRECTION('',(0.,-1.,0.));
#718=DIRECTION('',(0.,-1.,0.));
#719=DIRECTION('',(0.,-1.,0.));
#720=DIRECTION('',(0.,0.,-1.));
#721=DIRECTION('',(0.,0.,1.));
#722=DIRECTION('',(1.,0.,0.));
#723=DIRECTION('',(0.,0.,-1.));
#724=DIRECTION('',(0.,0.,-1.));
#725=DIRECTION('',(1.,0.,0.));
#726=DIRECTION('',(1.,0.,0.));
#727=DIRECTION('',(1.,0.,0.));
#728=DIRECTION('',(0.,0.,-1.));
#729=DIRECTION('',(0.,0.,1.));
#730=DIRECTION('',(0.,1.,0.));
#731=DIRECTION('',(0.,1.,0.));
#732=DIRECTION('',(0.,0.,1.));
#733=DIRECTION('',(1.,0.,0.));
#734=DIRECTION('',(0.,0.,1.));
#735=DIRECTION('',(1.,0.,0.));
#736=DIRECTION('',(0.,0.,1.));
#737=DIRECTION('',(1.,0.,0.));
#738=DIRECTION('',(0.,0.,1.));
#739=DIRECTION('',(1.,0.,0.));
#740=DIRECTION('',(0.,0.,-1.));
#741=DIRECTION('',(-1.,0.,0.));
#742=DIRECTION('',(0.,0.,-1.));
#743=DIRECTION('',(0.,0.,1.));
#744=DIRECTION('',(1.,0.,0.));
#745=DIRECTION('',(0.,0.,-1.));
#746=DIRECTION('',(-1.,0.,0.));
#747=DIRECTION('',(0.,0.,1.));
#748=DIRECTION('',(0.,1.,0.));
#749=DIRECTION('',(1.,0.,0.));
#750=DIRECTION('',(0.,0.,-1.));
#751=DIRECTION('',(0.,0.,-1.));
#752=DIRECTION('',(0.,-1.,0.));
#753=DIRECTION('',(0.,0.,-1.));
#754=DIRECTION('',(-1.,0.,0.));
#755=DIRECTION('',(0.,0.,-1.));
#756=DIRECTION('',(0.,0.,1.));
#757=DIRECTION('',(1.,0.,0.));
#758=DIRECTION('',(0.,-1.,0.));
#759=DIRECTION('',(0.,0.,-1.));
#760=DIRECTION('',(-1.,0.,0.));
#761=DIRECTION('',(0.,0.,1.));
#762=DIRECTION('',(1.,0.,0.));
#763=CARTESIAN_POINT('',(0.,0.,0.));
#764=CARTESIAN_POINT('',(-0.026,-0.04925,0.003));
#765=CARTESIAN_POINT('',(-0.026,-0.0436320344416233,0.003));
#766=CARTESIAN_POINT('',(-0.026,-0.0436320344416233,0.003));
#767=CARTESIAN_POINT('',(-0.026,-0.0436320344416233,-0.002));
#768=CARTESIAN_POINT('',(-0.026,-0.04925,-0.002));
#769=CARTESIAN_POINT('',(-0.026,-0.0545,-0.002));
#770=CARTESIAN_POINT('',(-0.026,-0.0545,0.003));
#771=CARTESIAN_POINT('',(-0.026,-0.0545,0.003));
#772=CARTESIAN_POINT('',(-0.026,-0.04925,0.003));
#773=CARTESIAN_POINT('',(-0.0245,-0.0545,0.003));
#774=CARTESIAN_POINT('',(-0.0245,-0.0545,-0.002));
#775=CARTESIAN_POINT('',(-0.0245,-0.056,-0.002));
#776=CARTESIAN_POINT('',(-0.0245,-0.056,0.003));
#777=CARTESIAN_POINT('',(-0.0245,-0.056,0.003));
#778=CARTESIAN_POINT('',(-0.0245,-0.0545,0.003));
#779=CARTESIAN_POINT('',(-0.02,-0.056,0.003));
#780=CARTESIAN_POINT('',(-0.02,-0.056,-0.002));
#781=CARTESIAN_POINT('',(-0.0155,-0.056,-0.002));
#782=CARTESIAN_POINT('',(-0.0155,-0.056,0.003));
#783=CARTESIAN_POINT('',(-0.0155,-0.056,0.003));
#784=CARTESIAN_POINT('',(-0.02,-0.056,0.003));
#785=CARTESIAN_POINT('',(-0.0155,-0.0545,0.003));
#786=CARTESIAN_POINT('',(-0.0155,-0.0545,-0.002));
#787=CARTESIAN_POINT('',(-0.014,-0.0545,-0.002));
#788=CARTESIAN_POINT('',(-0.014,-0.0545,0.003));
#789=CARTESIAN_POINT('',(-0.014,-0.0545,0.003));
#790=CARTESIAN_POINT('',(-0.0155,-0.0545,0.003));
#791=CARTESIAN_POINT('',(-0.014,-0.04925,0.003));
#792=CARTESIAN_POINT('',(-0.014,-0.04925,-0.002));
#793=CARTESIAN_POINT('',(-0.014,-0.0436320344416233,-0.002));
#794=CARTESIAN_POINT('',(-0.014,-0.0436320344416233,0.003));
#795=CARTESIAN_POINT('',(-0.014,-0.0436320344416233,0.003));
#796=CARTESIAN_POINT('',(-0.014,-0.04925,0.003));
#797=CARTESIAN_POINT('',(-0.02,-0.05,0.003));
#798=CARTESIAN_POINT('',(-0.02,-0.05,0.003));
#799=CARTESIAN_POINT('',(-0.0174,-0.05,0.003));
#800=CARTESIAN_POINT('',(-0.02,-0.05,-0.002));
#801=CARTESIAN_POINT('',(-0.0174,-0.05,-0.002));
#802=CARTESIAN_POINT('',(0.,6.93889390390723E-18,0.003));
#803=CARTESIAN_POINT('',(-0.02,-0.0436320344416233,0.003));
#804=CARTESIAN_POINT('',(0.,6.93889390390723E-18,0.));
#805=CARTESIAN_POINT('',(0.03235,-0.0363820344416233,0.));
#806=CARTESIAN_POINT('',(0.03235,-0.0336320344416233,0.));
#807=CARTESIAN_POINT('',(0.03235,-0.0391320344416233,0.));
#808=CARTESIAN_POINT('',(-0.03335,-0.0336320344416233,0.));
#809=CARTESIAN_POINT('',(-0.03235,-0.0336320344416233,0.));
#810=CARTESIAN_POINT('',(-0.03235,-0.0363820344416233,0.));
#811=CARTESIAN_POINT('',(-0.03235,-0.0391320344416233,0.));
#812=CARTESIAN_POINT('',(-0.02985,-0.0391320344416233,0.));
#813=CARTESIAN_POINT('',(-0.02985,-0.0416320344416233,0.));
#814=CARTESIAN_POINT('',(2.94902990916057E-17,-0.0416320344416233,0.));
#815=CARTESIAN_POINT('',(0.02985,-0.0416320344416233,0.));
#816=CARTESIAN_POINT('',(0.02985,-0.0391320344416233,0.));
#817=CARTESIAN_POINT('',(0.014,-0.04925,0.003));
#818=CARTESIAN_POINT('',(0.014,-0.0436320344416233,0.003));
#819=CARTESIAN_POINT('',(0.014,-0.0436320344416233,0.003));
#820=CARTESIAN_POINT('',(0.014,-0.0436320344416233,-0.002));
#821=CARTESIAN_POINT('',(0.014,-0.04925,-0.002));
#822=CARTESIAN_POINT('',(0.014,-0.0545,-0.002));
#823=CARTESIAN_POINT('',(0.014,-0.0545,0.003));
#824=CARTESIAN_POINT('',(0.014,-0.0545,0.003));
#825=CARTESIAN_POINT('',(0.014,-0.04925,0.003));
#826=CARTESIAN_POINT('',(0.0155,-0.0545,0.003));
#827=CARTESIAN_POINT('',(0.0155,-0.0545,-0.002));
#828=CARTESIAN_POINT('',(0.0155,-0.056,-0.002));
#829=CARTESIAN_POINT('',(0.0155,-0.056,0.003));
#830=CARTESIAN_POINT('',(0.0155,-0.056,0.003));
#831=CARTESIAN_POINT('',(0.0155,-0.0545,0.003));
#832=CARTESIAN_POINT('',(0.02,-0.056,0.003));
#833=CARTESIAN_POINT('',(0.02,-0.056,-0.002));
#834=CARTESIAN_POINT('',(0.0245,-0.056,-0.002));
#835=CARTESIAN_POINT('',(0.0245,-0.056,0.003));
#836=CARTESIAN_POINT('',(0.0245,-0.056,0.003));
#837=CARTESIAN_POINT('',(0.02,-0.056,0.003));
#838=CARTESIAN_POINT('',(0.0245,-0.0545,0.003));
#839=CARTESIAN_POINT('',(0.0245,-0.0545,-0.002));
#840=CARTESIAN_POINT('',(0.026,-0.0545,-0.002));
#841=CARTESIAN_POINT('',(0.026,-0.0545,0.003));
#842=CARTESIAN_POINT('',(0.026,-0.0545,0.003));
#843=CARTESIAN_POINT('',(0.0245,-0.0545,0.003));
#844=CARTESIAN_POINT('',(0.026,-0.04925,0.003));
#845=CARTESIAN_POINT('',(0.026,-0.04925,-0.002));
#846=CARTESIAN_POINT('',(0.026,-0.0436320344416233,-0.002));
#847=CARTESIAN_POINT('',(0.026,-0.0436320344416233,0.003));
#848=CARTESIAN_POINT('',(0.026,-0.0436320344416233,0.003));
#849=CARTESIAN_POINT('',(0.026,-0.04925,0.003));
#850=CARTESIAN_POINT('',(0.02,-0.05,0.003));
#851=CARTESIAN_POINT('',(0.02,-0.05,0.003));
#852=CARTESIAN_POINT('',(0.0226,-0.05,0.003));
#853=CARTESIAN_POINT('',(0.02,-0.05,-0.002));
#854=CARTESIAN_POINT('',(0.0226,-0.05,-0.002));
#855=CARTESIAN_POINT('',(0.,6.93889390390723E-18,0.003));
#856=CARTESIAN_POINT('',(0.02,-0.0436320344416233,0.003));
#857=CARTESIAN_POINT('',(0.028175,-0.0436320344416233,-0.002));
#858=CARTESIAN_POINT('',(0.03035,-0.0436320344416233,-0.002));
#859=CARTESIAN_POINT('',(0.03035,-0.0436320344416233,-0.002));
#860=CARTESIAN_POINT('',(0.03035,-0.0436320344416233,0.01));
#861=CARTESIAN_POINT('',(-0.028175,-0.0436320344416233,0.01));
#862=CARTESIAN_POINT('',(-0.03035,-0.0436320344416233,0.01));
#863=CARTESIAN_POINT('',(-0.03035,-0.0436320344416233,-0.002));
#864=CARTESIAN_POINT('',(-0.03035,-0.0436320344416233,-0.002));
#865=CARTESIAN_POINT('',(-0.028175,-0.0436320344416233,-0.002));
#866=CARTESIAN_POINT('',(1.04083408558608E-17,-0.0436320344416233,-0.002));
#867=CARTESIAN_POINT('',(0.028175,-0.0436320344416233,-0.002));
#868=CARTESIAN_POINT('',(0.03035,-0.0396320344416233,-0.002));
#869=CARTESIAN_POINT('',(0.03435,-0.0396320344416233,-0.002));
#870=CARTESIAN_POINT('',(0.03435,-0.0396320344416233,-0.002));
#871=CARTESIAN_POINT('',(0.03435,-0.0396320344416233,0.01));
#872=CARTESIAN_POINT('',(0.03035,-0.0396320344416233,0.01));
#873=CARTESIAN_POINT('',(0.03035,-0.0396320344416233,-0.002));
#874=CARTESIAN_POINT('',(0.03435,-0.0366320344416233,-0.002));
#875=CARTESIAN_POINT('',(0.03435,-0.0336320344416233,-0.002));
#876=CARTESIAN_POINT('',(0.03435,-0.0336320344416233,-0.002));
#877=CARTESIAN_POINT('',(0.03435,-0.0336320344416233,0.01));
#878=CARTESIAN_POINT('',(0.03435,-0.0366320344416233,0.01));
#879=CARTESIAN_POINT('',(0.03435,-0.0366320344416233,-0.002));
#880=CARTESIAN_POINT('',(-0.03335,-0.0336320344416233,-0.002));
#881=CARTESIAN_POINT('',(-0.03435,-0.0336320344416233,-0.002));
#882=CARTESIAN_POINT('',(-0.03435,-0.0336320344416233,-0.002));
#883=CARTESIAN_POINT('',(-0.03435,-0.0336320344416233,0.01));
#884=CARTESIAN_POINT('',(-0.03335,-0.0336320344416233,0.01));
#885=CARTESIAN_POINT('',(-0.03235,-0.0336320344416233,0.01));
#886=CARTESIAN_POINT('',(-0.03235,-0.0336320344416233,0.01));
#887=CARTESIAN_POINT('',(0.03235,-0.0336320344416233,0.01));
#888=CARTESIAN_POINT('',(0.03235,-0.0336320344416233,0.01));
#889=CARTESIAN_POINT('',(0.03335,-0.0336320344416233,0.01));
#890=CARTESIAN_POINT('',(-0.03335,-0.0336320344416233,-0.002));
#891=CARTESIAN_POINT('',(-0.03435,-0.0366320344416233,-0.002));
#892=CARTESIAN_POINT('',(-0.03435,-0.0396320344416233,-0.002));
#893=CARTESIAN_POINT('',(-0.03435,-0.0396320344416233,-0.002));
#894=CARTESIAN_POINT('',(-0.03435,-0.0396320344416233,0.01));
#895=CARTESIAN_POINT('',(-0.03435,-0.0366320344416233,0.01));
#896=CARTESIAN_POINT('',(-0.03435,-0.0366320344416233,-0.002));
#897=CARTESIAN_POINT('',(-0.03035,-0.0396320344416233,-0.002));
#898=CARTESIAN_POINT('',(-0.03035,-0.0396320344416233,0.01));
#899=CARTESIAN_POINT('',(-0.03035,-0.0396320344416233,-0.002));
#900=CARTESIAN_POINT('',(0.,6.93889390390723E-18,-0.002));
#901=CARTESIAN_POINT('',(-0.02985,-0.0391320344416233,0.01));
#902=CARTESIAN_POINT('',(-0.03235,-0.0391320344416233,0.01));
#903=CARTESIAN_POINT('',(-0.03235,-0.0391320344416233,0.01));
#904=CARTESIAN_POINT('',(-0.02985,-0.0391320344416233,0.01));
#905=CARTESIAN_POINT('',(-0.02985,-0.0416320344416233,0.01));
#906=CARTESIAN_POINT('',(-0.02985,-0.0416320344416233,0.01));
#907=CARTESIAN_POINT('',(-0.03235,-0.0363820344416233,0.01));
#908=CARTESIAN_POINT('',(-0.03235,-0.0363820344416233,0.01));
#909=CARTESIAN_POINT('',(0.03235,-0.0363820344416233,0.01));
#910=CARTESIAN_POINT('',(0.03235,-0.0391320344416233,0.01));
#911=CARTESIAN_POINT('',(0.03235,-0.0391320344416233,0.01));
#912=CARTESIAN_POINT('',(0.03235,-0.0363820344416233,0.01));
#913=CARTESIAN_POINT('',(0.02985,-0.0391320344416233,0.01));
#914=CARTESIAN_POINT('',(0.02985,-0.0416320344416233,0.01));
#915=CARTESIAN_POINT('',(0.02985,-0.0416320344416233,0.01));
#916=CARTESIAN_POINT('',(0.02985,-0.0391320344416233,0.01));
#917=CARTESIAN_POINT('',(2.94902990916057E-17,-0.0416320344416233,0.01));
#918=CARTESIAN_POINT('',(2.94902990916057E-17,-0.0416320344416233,0.01));
#919=CARTESIAN_POINT('',(0.,6.93889390390723E-18,0.01));
#920=MECHANICAL_DESIGN_GEOMETRIC_PRESENTATION_REPRESENTATION('',(#549),
#921);
#921=(
GEOMETRIC_REPRESENTATION_CONTEXT(3)
GLOBAL_UNCERTAINTY_ASSIGNED_CONTEXT((#922))
GLOBAL_UNIT_ASSIGNED_CONTEXT((#925,#924,#923))
REPRESENTATION_CONTEXT('bottom','TOP_LEVEL_ASSEMBLY_PART')
);
#922=UNCERTAINTY_MEASURE_WITH_UNIT(LENGTH_MEASURE(1.E-8),#925,
'DISTANCE_ACCURACY_VALUE','Maximum Tolerance applied to model');
#923=(
NAMED_UNIT(*)
SI_UNIT($,.STERADIAN.)
SOLID_ANGLE_UNIT()
);
#924=(
NAMED_UNIT(*)
PLANE_ANGLE_UNIT()
SI_UNIT($,.RADIAN.)
);
#925=(
LENGTH_UNIT()
NAMED_UNIT(*)
SI_UNIT($,.METRE.)
);
#926=PRODUCT_DEFINITION_SHAPE('','',#927);
#927=PRODUCT_DEFINITION('','',#929,#928);
#928=PRODUCT_DEFINITION_CONTEXT('',#935,'design');
#929=PRODUCT_DEFINITION_FORMATION_WITH_SPECIFIED_SOURCE('','',#931,
 .NOT_KNOWN.);
#930=PRODUCT_RELATED_PRODUCT_CATEGORY('','',(#931));
#931=PRODUCT('bottom','bottom','bottom',(#933));
#932=PRODUCT_CATEGORY('','');
#933=PRODUCT_CONTEXT('',#935,'mechanical');
#934=APPLICATION_PROTOCOL_DEFINITION('international standard',
'ap242_managed_model_based_3d_engineering',2020,#935);
#935=APPLICATION_CONTEXT('managed model based 3d engineering');
ENDSEC;
END-ISO-10303-21;
